<?xml version="1.0" encoding="UTF-8" standalone="no"?>

<!DOCTYPE svg PUBLIC "-//W3C//DTD SVG 1.1//EN" "http://www.w3.org/Graphics/SVG/1.1/DTD/svg11.dtd">
<!-- Generated by graphviz version 2.43.0 (0)
 -->
<!-- Title: communication_overview_http_app Pages: 1 -->
<svg width="658pt" height="115pt" viewBox="0.00 0.00 658.00 115.00" xmlns="http://www.w3.org/2000/svg" xmlns:xlink="http://www.w3.org/1999/xlink">
<g id="graph0" class="graph" transform="scale(1 1) rotate(0) translate(4 111)">
<title>communication_overview_http_app</title>
<polygon fill="white" stroke="transparent" points="-4,4 -4,-111 654,-111 654,4 -4,4"/>
<g id="clust1" class="cluster">
<title>cluster_sandstorm</title>
<polygon fill="none" stroke="black" points="112,-13 112,-94 401,-94 401,-13 112,-13"/>
<text text-anchor="middle" x="256.5" y="-78.8" font-family="Times,serif" font-size="14.00">Sandstorm</text>
</g>
<g id="clust2" class="cluster">
<title>cluster_grain</title>
<polygon fill="none" stroke="black" points="421,-8 421,-99 642,-99 642,-8 421,-8"/>
<text text-anchor="middle" x="531.5" y="-83.8" font-family="Times,serif" font-size="14.00">Grain</text>
</g>
<!-- client -->
<g id="node1" class="node">
<title>client</title>
<polygon fill="none" stroke="black" points="84,-60 0,-60 0,-24 84,-24 84,-60"/>
<text text-anchor="middle" x="42" y="-45" font-family="Times,serif" font-size="10.00">Web client</text>
<text text-anchor="middle" x="42" y="-34" font-family="Times,serif" font-size="10.00">(eg. browser)</text>
</g>
<!-- proxy -->
<g id="node2" class="node">
<title>proxy</title>
<polygon fill="none" stroke="black" points="213,-60 120,-60 120,-24 213,-24 213,-60"/>
<text text-anchor="middle" x="166.5" y="-45" font-family="Times,serif" font-size="10.00">Gateway</text>
<text text-anchor="middle" x="166.5" y="-34" font-family="Times,serif" font-size="10.00"> (gateway.c++)</text>
</g>
<!-- client&#45;&#45;proxy -->
<g id="edge1" class="edge">
<title>client&#45;&#45;proxy</title>
<path fill="none" stroke="black" d="M84.13,-42C95.53,-42 107.98,-42 119.63,-42"/>
</g>
<!-- websession -->
<g id="node3" class="node">
<title>websession</title>
<polygon fill="none" stroke="black" points="393,-62.5 249,-62.5 249,-21.5 393,-21.5 393,-62.5"/>
<text text-anchor="middle" x="321" y="-50.5" font-family="Times,serif" font-size="10.00">WebSession Serialization</text>
<text text-anchor="middle" x="321" y="-39.5" font-family="Times,serif" font-size="10.00">(HTTP over Cap&#39;n Proto,</text>
<text text-anchor="middle" x="321" y="-28.5" font-family="Times,serif" font-size="10.00">web&#45;session.capnp)</text>
</g>
<!-- proxy&#45;&#45;websession -->
<g id="edge2" class="edge">
<title>proxy&#45;&#45;websession</title>
<path fill="none" stroke="black" d="M213.26,-42C224.48,-42 236.77,-42 248.88,-42"/>
</g>
<!-- bridge -->
<g id="node4" class="node">
<title>bridge</title>
<polygon fill="none" stroke="black" points="528,-68 429,-68 429,-16 528,-16 528,-68"/>
<text text-anchor="middle" x="478.5" y="-56" font-family="Times,serif" font-size="10.00">Sandstorm</text>
<text text-anchor="middle" x="478.5" y="-45" font-family="Times,serif" font-size="10.00">HTTP Bridge</text>
<text text-anchor="middle" x="478.5" y="-34" font-family="Times,serif" font-size="10.00">(sandstorm&#45;http</text>
<text text-anchor="middle" x="478.5" y="-23" font-family="Times,serif" font-size="10.00">&#45;bridge.c++)</text>
</g>
<!-- websession&#45;&#45;bridge -->
<g id="edge3" class="edge">
<title>websession&#45;&#45;bridge</title>
<path fill="none" stroke="black" d="M393.38,-42C405.35,-42 417.53,-42 428.77,-42"/>
</g>
<!-- app -->
<g id="node5" class="node">
<title>app</title>
<polygon fill="none" stroke="black" points="634,-60 564,-60 564,-24 634,-24 634,-60"/>
<text text-anchor="middle" x="599" y="-39.5" font-family="Times,serif" font-size="10.00">HTTP App</text>
</g>
<!-- bridge&#45;&#45;app -->
<g id="edge4" class="edge">
<title>bridge&#45;&#45;app</title>
<path fill="none" stroke="black" d="M528.04,-42C540.06,-42 552.68,-42 563.85,-42"/>
</g>
</g>
</svg>
