<?xml version="1.0" encoding="UTF-8" standalone="no"?>

<!DOCTYPE svg PUBLIC "-//W3C//DTD SVG 1.1//EN" "http://www.w3.org/Graphics/SVG/1.1/DTD/svg11.dtd">
<!-- Generated by graphviz version 2.43.0 (0)
 -->
<!-- Title: communication_overview_native_app Pages: 1 -->
<svg width="586pt" height="105pt" viewBox="0.00 0.00 586.00 105.00" xmlns="http://www.w3.org/2000/svg" xmlns:xlink="http://www.w3.org/1999/xlink">
<g id="graph0" class="graph" transform="scale(1 1) rotate(0) translate(4 101)">
<title>communication_overview_native_app</title>
<polygon fill="white" stroke="transparent" points="-4,4 -4,-101 582,-101 582,4 -4,4"/>
<g id="clust1" class="cluster">
<title>cluster_sandstorm</title>
<polygon fill="none" stroke="black" points="112,-8 112,-89 401,-89 401,-8 112,-8"/>
<text text-anchor="middle" x="256.5" y="-73.8" font-family="Times,serif" font-size="14.00">Sandstorm</text>
</g>
<g id="clust2" class="cluster">
<title>cluster_grain</title>
<polygon fill="none" stroke="black" points="421,-11 421,-86 570,-86 570,-11 421,-11"/>
<text text-anchor="middle" x="495.5" y="-70.8" font-family="Times,serif" font-size="14.00">Grain</text>
</g>
<!-- client -->
<g id="node1" class="node">
<title>client</title>
<polygon fill="none" stroke="black" points="84,-55 0,-55 0,-19 84,-19 84,-55"/>
<text text-anchor="middle" x="42" y="-40" font-family="Times,serif" font-size="10.00">Web client</text>
<text text-anchor="middle" x="42" y="-29" font-family="Times,serif" font-size="10.00">(eg. browser)</text>
</g>
<!-- proxy -->
<g id="node2" class="node">
<title>proxy</title>
<polygon fill="none" stroke="black" points="213,-55 120,-55 120,-19 213,-19 213,-55"/>
<text text-anchor="middle" x="166.5" y="-40" font-family="Times,serif" font-size="10.00">Gateway</text>
<text text-anchor="middle" x="166.5" y="-29" font-family="Times,serif" font-size="10.00"> (gateway.c++)</text>
</g>
<!-- client&#45;&#45;proxy -->
<g id="edge1" class="edge">
<title>client&#45;&#45;proxy</title>
<path fill="none" stroke="black" d="M84.13,-37C95.53,-37 107.98,-37 119.63,-37"/>
</g>
<!-- websession -->
<g id="node3" class="node">
<title>websession</title>
<polygon fill="none" stroke="black" points="393,-57.5 249,-57.5 249,-16.5 393,-16.5 393,-57.5"/>
<text text-anchor="middle" x="321" y="-45.5" font-family="Times,serif" font-size="10.00">WebSession Serialization</text>
<text text-anchor="middle" x="321" y="-34.5" font-family="Times,serif" font-size="10.00">(HTTP over Cap&#39;n Proto,</text>
<text text-anchor="middle" x="321" y="-23.5" font-family="Times,serif" font-size="10.00">web&#45;session.capnp)</text>
</g>
<!-- proxy&#45;&#45;websession -->
<g id="edge2" class="edge">
<title>proxy&#45;&#45;websession</title>
<path fill="none" stroke="black" d="M213.26,-37C224.48,-37 236.77,-37 248.88,-37"/>
</g>
<!-- app -->
<g id="node4" class="node">
<title>app</title>
<polygon fill="none" stroke="black" points="562,-55 429,-55 429,-19 562,-19 562,-55"/>
<text text-anchor="middle" x="495.5" y="-40" font-family="Times,serif" font-size="10.00">Native Sandstorm App</text>
<text text-anchor="middle" x="495.5" y="-29" font-family="Times,serif" font-size="10.00">(speaks Cap&#39;n Proto )</text>
</g>
<!-- websession&#45;&#45;app -->
<g id="edge3" class="edge">
<title>websession&#45;&#45;app</title>
<path fill="none" stroke="black" d="M393.16,-37C404.94,-37 417.12,-37 428.76,-37"/>
</g>
</g>
</svg>
