<?xml version="1.0" encoding="utf-8"?>
<!-- Generator: Adobe Illustrator 19.2.1, SVG Export Plug-In . SVG Version: 6.00 Build 0)  -->
<svg version="1.1" id="Layer_1" xmlns="http://www.w3.org/2000/svg" xmlns:xlink="http://www.w3.org/1999/xlink" x="0px" y="0px"
	 viewBox="0 0 931.5 467.2" style="enable-background:new 0 0 931.5 467.2;" xml:space="preserve">
<style type="text/css">
	.st0{fill:#3A2546;}
	.st1{fill:#E2D9E4;}
</style>
<g>
	<polyline class="st0" points="267.4,210.5 233.9,210.5 230.4,210.5 196.4,210.5 196.4,244.3 196.4,247.4 196.4,281 196.4,314.6
		196.4,348.5 230.4,348.5 233.9,348.5 267.5,348.5 301.1,348.5 334.4,348.5 334.4,311.5 334.4,277.5 301.4,277.5 301.4,244.5
		267.4,244.5 267.4,210.5 	"/>
	<polyline class="st0" points="494.4,3.5 457.4,3.5 457.4,40.5 494.4,40.5 494.4,3.5 	"/>
	<polyline class="st0" points="311.4,192.5 273.4,192.5 273.4,229.5 310.4,229.5 310.4,266.5 347.4,266.5 347.4,229.5 311.4,229.5
		311.4,192.5 	"/>
	<polyline class="st0" points="413.4,165.5 376.4,165.5 376.4,202.6 376.4,232.7 376.4,236.2 376.4,266.3 376.4,269.8 376.4,303.5
		409.6,303.5 413.1,303.5 443.2,303.5 446.7,303.5 480.3,303.5 514.4,303.5 514.4,266.5 480.4,266.5 480.4,232.5 446.4,232.5
		446.4,199.5 413.4,199.5 413.4,165.5 	"/>
	<polyline class="st0" points="463.4,134.5 426.4,134.5 426.4,171.5 463.4,171.5 463.4,134.5 	"/>
	<polyline class="st0" points="502.4,174.5 465.4,174.5 465.4,212.5 502.4,212.5 502.4,174.5 	"/>
	<polyline class="st0" points="721.4,10.5 684.4,10.5 684.4,47.5 721.4,47.5 721.4,10.5 	"/>
	<polyline class="st0" points="541.4,213.5 504.4,213.5 504.4,251.5 541.4,251.5 541.4,213.5 	"/>
	<polyline class="st0" points="411.4,353.5 373.7,353.5 340.4,353.5 340.4,387.7 340.4,390.8 340.4,421.3 340.4,424.4 340.4,458
		340.4,467.2 478.4,467.2 478.4,458 478.4,454.9 478.4,421.5 444.4,421.5 444.4,387.5 411.4,387.5 411.4,353.5 	"/>
	<polyline class="st0" points="493.4,375.5 456.4,375.5 456.4,411.5 493.4,411.5 493.4,375.5 	"/>
	<polyline class="st0" points="456.4,338.5 419.4,338.5 419.4,375.5 456.4,375.5 456.4,338.5 	"/>
	<polyline class="st0" points="747.4,104.5 710.4,104.5 710.4,141.5 747.4,141.5 747.4,104.5 	"/>
	<polyline class="st0" points="601.4,129.5 564.4,129.5 564.4,163.2 564.4,200.4 564.4,230.4 564.4,234 564.4,267.5 601.3,267.5
		631.8,267.5 668.5,267.5 702.4,267.5 702.4,230.5 668.4,230.5 668.4,196.5 660.4,196.5 660.4,173.5 635.4,173.5 635.4,163.5
		601.4,163.5 601.4,129.5 	"/>
	<polyline class="st0" points="619.4,290.5 582.4,290.5 582.4,327.5 619.4,327.5 619.4,290.5 	"/>
	<polyline class="st0" points="834.4,104.5 797.4,104.5 797.4,141.5 834.4,141.5 834.4,104.5 	"/>
	<polyline class="st0" points="657.4,329.5 620.4,329.5 620.4,366.5 657.4,366.5 657.4,329.5 	"/>
	<polyline class="st0" points="906.4,42.5 870.4,42.5 870.4,57.5 866.4,57.5 866.4,93.5 903.4,93.5 903.4,79.5 906.4,79.5
		906.4,42.5 	"/>
	<polyline class="st0" points="853.4,184.5 816.4,184.5 816.4,221.5 853.4,221.5 853.4,184.5 	"/>
	<polyline class="st0" points="698.4,368.5 661.4,368.5 661.4,406.5 698.4,406.5 698.4,368.5 	"/>
	<polyline class="st0" points="565.4,317.5 528.4,317.5 528.4,355 528.4,385 528.4,388.6 528.4,418.6 528.4,422.2 528.4,455.5
		561.9,455.5 565.5,455.5 595.5,455.5 599.1,455.5 629.1,455.5 632.7,455.5 666.4,455.5 666.4,418.5 632.4,418.5 632.4,384.5
		599.4,384.5 599.4,351.5 565.4,351.5 565.4,317.5 	"/>
	<polyline class="st0" points="832.4,339.5 794.4,339.5 794.4,376.5 832.4,376.5 832.4,339.5 	"/>
	<polyline class="st0" points="174.4,263.5 27.4,263.5 27.4,411.4 27.4,467.2 309.4,467.2 309.4,397.5 174.4,397.5 174.4,263.5 	"/>
</g>
</svg>
