<?xml version="1.0" encoding="utf-8"?>
<!-- Generator: Adobe Illustrator 19.1.0, SVG Export Plug-In . SVG Version: 6.00 Build 0)  -->
<!DOCTYPE svg PUBLIC "-//W3C//DTD SVG 1.1//EN" "http://www.w3.org/Graphics/SVG/1.1/DTD/svg11.dtd">
<svg version="1.1" id="Layer_1" xmlns="http://www.w3.org/2000/svg" xmlns:xlink="http://www.w3.org/1999/xlink" x="0px" y="0px"
	 viewBox="0 0 119 154.5" style="enable-background:new 0 0 119 154.5;" xml:space="preserve" preserveAspectRatio="xMinYMin">
<style type="text/css">
	.st0{fill:#E9B879;}
	.st1{fill:#835731;}
	.st2{fill:#D69E63;}
	.st3{fill:#825631;}
	.st4{fill:#FFFFFF;}
	.st5{fill:#020202;}
	.st6{fill:#192C35;}
	.st7{fill:#E84524;}
	.st8{clip-path:url(#SVGID_4_);fill:#FFFFFF;}
	.st9{fill:url(#SVGID_5_);}
	.st10{fill:url(#SVGID_6_);}
	.st11{fill:#483729;}
	.st12{fill:#9F5D28;}
	.st13{fill:#AA5528;}
	.st14{fill:#FFF4D9;}
	.st15{fill:#D59E63;}
</style>
<polygon class="st0" points="86.7,110.4 94.4,145 92.6,154.5 81.6,154.5 79.7,114.9 "/>
<polygon class="st1" points="88.3,117.3 79.9,118.5 80,121.1 88.8,119.9 "/>
<polygon class="st1" points="89.3,122 80.1,123.2 80.2,125.8 89.9,124.8 "/>
<rect x="50.7" y="92.3" class="st2" width="19.8" height="12.3"/>
<path class="st3" d="M46.5,32.6L5,3c0,0-3.7,26.1-3.1,34.6c0.5,7.5,2.3,15.7,7.4,21.5c4.9,5.6,12.9,6.2,18.3,1L46.5,32.6z"/>
<path class="st3" d="M72.1,32.6L113.6,3c0,0,3.7,26.1,3.1,34.6c-0.5,7.5-2.3,15.7-7.4,21.5c-4.9,5.6-12.9,6.2-18.3,1L72.1,32.6z"/>
<path class="st0" d="M82.3,27.2c-3-1.6-6.4-2.7-9.9-3.4c1.4-0.9,6.5-1,6.5-1s-1.4-0.9-3.6-1.4c-2.2-0.5-5.3,0.4-5.4,0.4
	c0,0,0,0,0.1-0.1l-0.1,0.1c0,0,2.6-1.5,3.5-3.4c-1.1,0.4-3.5,1-8,1.8C56.3,21.5,46,24.5,46,24.5c-4.1,1-7.8,2.3-10.5,3.9
	C16.6,39.2,5.3,63,5.3,63s14.9,31.3,54.1,31.3c38.9,0,54-31.3,54-31.3S99.7,36.3,82.3,27.2z"/>
<path class="st2" d="M43.8,48c0,0,5.3,3.6,5.9,13.7c0,0-7.1,2.7-14.7,1.4c9.3-1.1,12.1-3.6,12.1-3.6C47.8,55.3,43.8,48,43.8,48z"/>
<path class="st4" d="M40.6,45.7c-11.2-5.4-18.1,7.8-19.7,10.6c-0.6,1,4.2,3.9,5.7,4.6l0,0c5.9,3,17,2.4,21,0.7
	C47.6,61.6,49.5,50,40.6,45.7"/>
<g>
	<g>
		<defs>
			<rect id="SVGID_1_" x="30.8" y="29.5" width="10" height="10.6"/>
		</defs>
		<clipPath id="SVGID_2_">
			<use xlink:href="#SVGID_1_"  style="overflow:visible;"/>
		</clipPath>
	</g>
</g>
<path class="st2" d="M74.3,48c0,0-5.3,3.6-5.9,13.7c0,0,7.1,2.7,14.7,1.4c-9.3-1.1-12.1-3.6-12.1-3.6C70.3,55.3,74.3,48,74.3,48z"/>
<path class="st5" d="M75,53.1c-0.1,4.3,3,7.8,6.9,7.9c3.9,0.1,7-3.4,7.1-7.7c0.1-4.3-3-7.8-6.9-7.9C78.2,45.4,75,48.8,75,53.1"/>
<path class="st6" d="M81.9,53.2l5,5.4c0,0-2.3,2.4-4.6,2.4c-3.6-0.1-5.5-2.4-5.5-2.4L81.9,53.2z"/>
<polygon class="st0" points="32.4,110.4 24.9,144.4 25.6,154.5 37.3,154.5 39.5,114.9 "/>
<path class="st7" d="M77.8,114.2l1,3.5l11.9-5.5c0,0-3.9-7.9-7.4-11.3c-0.1-0.1-0.3-0.2-0.6-0.5c-0.2-0.2-0.5-0.4-0.8-0.6
	c-1.7-1.1-4.1-2.1-6.4-3c0,0,0,0-0.1,0c-2.6-1-4.9-1.8-4.9-1.8s-3.7,7.7-10,7.7c-6.3,0-10-7.7-10-7.7c-3.1,0.3-11.8,4.8-11.8,4.8
	c-4.5,1.9-10.3,12.8-10.3,12.8l11.9,5.1l1.1-3.1l-3.5,39.9h42.8L77.8,114.2z"/>
<path class="st4" d="M70.4,61.8c4,1.6,14.8,2.1,20.7-0.9l0,0c1.5-0.7,6.2-3.9,5.9-4.5c-1.4-2.8-8.7-15.7-19.9-10.4
	C68.3,50.2,70.4,61.8,70.4,61.8"/>
<rect x="52.9" y="114.6" class="st4" width="2.7" height="2.7"/>
<rect x="52.9" y="117" class="st4" width="2.7" height="2.7"/>
<rect x="52.9" y="119.4" class="st4" width="2.7" height="2.7"/>
<rect x="52.9" y="121.8" class="st4" width="2.7" height="2.7"/>
<rect x="56" y="113.6" class="st4" width="0.7" height="0.7"/>
<rect x="56" y="114.2" class="st4" width="0.7" height="0.7"/>
<rect x="56" y="114.8" class="st4" width="0.7" height="0.7"/>
<rect x="56" y="115.4" class="st4" width="0.7" height="0.7"/>
<rect x="56.6" y="113.6" class="st4" width="0.7" height="0.7"/>
<rect x="56.6" y="114.2" class="st4" width="0.7" height="0.7"/>
<rect x="56.6" y="114.8" class="st4" width="0.7" height="0.7"/>
<rect x="56.6" y="115.4" class="st4" width="0.7" height="0.7"/>
<rect x="57.4" y="113.3" class="st4" width="0.7" height="0.7"/>
<rect x="57.2" y="114.2" class="st4" width="0.7" height="0.7"/>
<rect x="57.2" y="114.8" class="st4" width="0.7" height="0.7"/>
<rect x="57.2" y="115.4" class="st4" width="0.7" height="0.7"/>
<rect x="60.7" y="109.9" class="st4" width="0.7" height="0.7"/>
<rect x="58" y="114" class="st4" width="0.7" height="0.7"/>
<rect x="57.8" y="114.8" class="st4" width="0.7" height="0.7"/>
<rect x="57.8" y="115.4" class="st4" width="0.7" height="0.7"/>
<rect x="55.4" y="117" class="st4" width="2.7" height="2.7"/>
<rect x="55.4" y="119.4" class="st4" width="2.7" height="2.7"/>
<rect x="55.4" y="121.8" class="st4" width="2.7" height="2.7"/>
<rect x="59.2" y="112.8" class="st4" width="0.7" height="0.7"/>
<rect x="59.2" y="113.4" class="st4" width="0.7" height="0.7"/>
<rect x="59.2" y="114" class="st4" width="0.7" height="0.7"/>
<rect x="59.2" y="114.6" class="st4" width="0.7" height="0.7"/>
<rect x="60.1" y="112.3" class="st4" width="0.7" height="0.7"/>
<rect x="59.8" y="113.4" class="st4" width="0.7" height="0.7"/>
<rect x="59.8" y="114" class="st4" width="0.7" height="0.7"/>
<rect x="59.8" y="114.6" class="st4" width="0.7" height="0.7"/>
<rect x="63.5" y="108.7" class="st4" width="0.7" height="0.7"/>
<rect x="60.8" y="113" class="st4" width="0.7" height="0.7"/>
<rect x="60.4" y="114" class="st4" width="0.7" height="0.7"/>
<rect x="60.4" y="114.6" class="st4" width="0.7" height="0.7"/>
<rect x="66.3" y="108.7" class="st4" width="0.7" height="0.7"/>
<rect x="64.7" y="110" class="st4" width="0.7" height="0.7"/>
<rect x="61.5" y="113.7" class="st4" width="0.7" height="0.7"/>
<rect x="61" y="114.6" class="st4" width="0.7" height="0.7"/>
<rect x="58.6" y="116.2" class="st4" width="0.7" height="0.7"/>
<rect x="58.6" y="116.8" class="st4" width="0.7" height="0.7"/>
<rect x="58.6" y="117.4" class="st4" width="0.7" height="0.7"/>
<rect x="58.6" y="118" class="st4" width="0.7" height="0.7"/>
<rect x="59.2" y="116.2" class="st4" width="0.7" height="0.7"/>
<rect x="59.2" y="116.8" class="st4" width="0.7" height="0.7"/>
<rect x="59.2" y="117.4" class="st4" width="0.7" height="0.7"/>
<rect x="59.2" y="118" class="st4" width="0.7" height="0.7"/>
<rect x="60" y="115.9" class="st4" width="0.7" height="0.7"/>
<rect x="59.8" y="116.8" class="st4" width="0.7" height="0.7"/>
<rect x="59.8" y="117.4" class="st4" width="0.7" height="0.7"/>
<rect x="59.8" y="118" class="st4" width="0.7" height="0.7"/>
<rect x="63.6" y="113" class="st4" width="0.7" height="0.7"/>
<rect x="60.7" y="116.6" class="st4" width="0.7" height="0.7"/>
<rect x="60.4" y="117.4" class="st4" width="0.7" height="0.7"/>
<rect x="60.4" y="118" class="st4" width="0.7" height="0.7"/>
<rect x="57.8" y="119.4" class="st4" width="2.7" height="2.7"/>
<rect x="57.8" y="121.8" class="st4" width="2.7" height="2.7"/>
<rect x="62.6" y="112.2" class="st4" width="0.7" height="0.7"/>
<rect x="62.6" y="112.8" class="st4" width="0.7" height="0.7"/>
<rect x="62.6" y="113.4" class="st4" width="0.7" height="0.7"/>
<rect x="62.6" y="114" class="st4" width="0.7" height="0.7"/>
<rect x="65.9" y="108.2" class="st4" width="0.7" height="0.7"/>
<rect x="63.2" y="112.8" class="st4" width="0.7" height="0.7"/>
<rect x="63.2" y="113.4" class="st4" width="0.7" height="0.7"/>
<rect x="63.2" y="114" class="st4" width="0.7" height="0.7"/>
<rect x="69.4" y="105.7" class="st4" width="0.7" height="0.7"/>
<g>
	<g>
		<defs>
			<rect id="SVGID_3_" x="65.2" y="111.7" width="0.7" height="0.7"/>
		</defs>
		<clipPath id="SVGID_4_">
			<use xlink:href="#SVGID_3_"  style="overflow:visible;"/>
		</clipPath>
		<rect x="65.2" y="111.7" class="st8" width="0.7" height="0.7"/>
	</g>
</g>
<rect x="63.8" y="113.4" class="st4" width="0.7" height="0.7"/>
<linearGradient id="SVGID_5_" gradientUnits="userSpaceOnUse" x1="74.2984" y1="53.7164" x2="91.4352" y2="53.7164" gradientTransform="matrix(1 0 0 1 -0.1323 0.1345)">
	<stop  offset="0" style="stop-color:#1D9863"/>
	<stop  offset="1" style="stop-color:#238180"/>
</linearGradient>
<ellipse class="st9" cx="82.7" cy="53.9" rx="8.8" ry="9.2"/>
<rect x="63.8" y="114" class="st4" width="0.7" height="0.7"/>
<rect x="73" y="103.7" class="st4" width="0.7" height="0.7"/>
<rect x="71.4" y="107" class="st4" width="0.7" height="0.7"/>
<rect x="68" y="110.9" class="st4" width="0.7" height="0.7"/>
<rect x="64.4" y="114" class="st4" width="0.7" height="0.7"/>
<rect x="61.9" y="115.6" class="st4" width="0.7" height="0.7"/>
<rect x="61.9" y="116.2" class="st4" width="0.7" height="0.7"/>
<rect x="61.9" y="116.8" class="st4" width="0.7" height="0.7"/>
<rect x="61.9" y="117.4" class="st4" width="0.7" height="0.7"/>
<rect x="62.9" y="115.1" class="st4" width="0.7" height="0.7"/>
<rect x="62.5" y="116.2" class="st4" width="0.7" height="0.7"/>
<rect x="62.5" y="116.8" class="st4" width="0.7" height="0.7"/>
<rect x="62.5" y="117.4" class="st4" width="0.7" height="0.7"/>
<rect x="66.8" y="111.7" class="st4" width="0.7" height="0.7"/>
<rect x="63.6" y="115.8" class="st4" width="0.7" height="0.7"/>
<rect x="63.1" y="116.8" class="st4" width="0.7" height="0.7"/>
<rect x="63.1" y="117.4" class="st4" width="0.7" height="0.7"/>
<rect x="68.1" y="110.6" class="st4" width="0.7" height="0.7"/>
<rect x="67.1" y="113.2" class="st4" width="0.7" height="0.7"/>
<rect x="64.3" y="116.5" class="st4" width="0.7" height="0.7"/>
<rect x="63.8" y="117.4" class="st4" width="0.7" height="0.7"/>
<rect x="61.1" y="118.8" class="st4" width="0.7" height="0.7"/>
<rect x="61.1" y="119.4" class="st4" width="0.7" height="0.7"/>
<rect x="61.1" y="120" class="st4" width="0.7" height="0.7"/>
<rect x="61.1" y="120.6" class="st4" width="0.7" height="0.7"/>
<rect x="61.7" y="118.8" class="st4" width="0.7" height="0.7"/>
<rect x="61.7" y="119.4" class="st4" width="0.7" height="0.7"/>
<rect x="61.7" y="120" class="st4" width="0.7" height="0.7"/>
<rect x="61.7" y="120.6" class="st4" width="0.7" height="0.7"/>
<rect x="62.6" y="118.5" class="st4" width="0.7" height="0.7"/>
<rect x="62.3" y="119.4" class="st4" width="0.7" height="0.7"/>
<rect x="62.3" y="120" class="st4" width="0.7" height="0.7"/>
<rect x="62.3" y="120.6" class="st4" width="0.7" height="0.7"/>
<rect x="66.7" y="116" class="st4" width="0.7" height="0.7"/>
<rect x="63.3" y="119.2" class="st4" width="0.7" height="0.7"/>
<rect x="62.9" y="120" class="st4" width="0.7" height="0.7"/>
<rect x="62.9" y="120.6" class="st4" width="0.7" height="0.7"/>
<rect x="60.2" y="121.8" class="st4" width="2.7" height="2.7"/>
<polygon class="st1" points="30.9,117.3 39.3,118.5 39.2,121.1 30.3,119.9 "/>
<polygon class="st1" points="29.8,122 39.1,123.2 38.9,125.8 29.2,124.8 "/>
<linearGradient id="SVGID_6_" gradientUnits="userSpaceOnUse" x1="27.0272" y1="53.5421" x2="44.1641" y2="53.5421" gradientTransform="matrix(1 0 0 1 -0.1323 0.1345)">
	<stop  offset="0" style="stop-color:#1D9863"/>
	<stop  offset="1" style="stop-color:#238180"/>
</linearGradient>
<ellipse class="st10" cx="35.5" cy="53.7" rx="8.8" ry="9.2"/>
<path class="st5" d="M41.7,54.1c0.1,3.7-2.6,6.7-5.9,6.7c-3.3,0.1-6-2.9-6.1-6.5c-0.1-3.7,2.6-6.7,5.9-6.7
	C38.9,47.5,41.7,50.5,41.7,54.1"/>
<path class="st6" d="M35.7,54.4l-4.3,4.5c0,0,1.9,2,3.9,1.9c3.1,0,4.7-2,4.7-2L35.7,54.4z"/>
<path class="st5" d="M88.3,54.1c0.1,3.7-2.6,6.7-5.9,6.7c-3.3,0.1-6-2.9-6.1-6.5c-0.1-3.7,2.6-6.7,5.9-6.7
	C85.5,47.5,88.3,50.5,88.3,54.1"/>
<path class="st6" d="M82.3,54.4l-4.3,4.5c0,0,1.9,2,3.9,1.9c3.1,0,4.7-2,4.7-2L82.3,54.4z"/>
<path class="st3" d="M86.7,29.8c0,0-1,5.7-5.7,10.2c0,0,8.5-1.5,11.9-5C92.9,35,89.9,32,86.7,29.8z"/>
<path class="st3" d="M32.5,29.8c0,0,1,5.7,5.7,10.2c0,0-8.5-1.5-11.9-5C26.3,35,31.5,30.5,32.5,29.8z"/>
<path class="st11" d="M37.3,27.5l1.2-0.6L5,2.6L26.4,35C28.9,32.8,32.4,29.8,37.3,27.5z"/>
<path class="st11" d="M92.9,35l20.7-32L80.8,26.4l1.7,0.8C84.9,28.6,88.8,31,92.9,35z"/>
<g>
	<path class="st4" d="M45.4,132.2c0.1,0.1,0.4,0.2,0.6,0.2c0.3,0,0.4-0.1,0.4-0.3c0-0.2-0.1-0.3-0.4-0.4c-0.5-0.2-0.7-0.5-0.7-0.8
		c0-0.5,0.4-0.9,1-0.9c0.3,0,0.5,0.1,0.7,0.2l-0.1,0.5c-0.1-0.1-0.3-0.1-0.5-0.1c-0.2,0-0.4,0.1-0.4,0.3c0,0.2,0.1,0.3,0.4,0.4
		c0.5,0.2,0.7,0.5,0.7,0.9c0,0.5-0.4,0.9-1.1,0.9c-0.3,0-0.6-0.1-0.8-0.2L45.4,132.2z"/>
	<path class="st4" d="M49.6,132.2c0,0.2,0,0.5,0,0.7h-0.6l0-0.3h0c-0.2,0.2-0.4,0.4-0.8,0.4c-0.5,0-0.8-0.4-0.8-0.8
		c0-0.7,0.6-1,1.5-1V131c0-0.2-0.1-0.5-0.5-0.5c-0.3,0-0.5,0.1-0.7,0.2l-0.1-0.4c0.2-0.1,0.5-0.2,0.9-0.2c0.8,0,1.1,0.5,1.1,1.2
		V132.2z M49,131.5c-0.4,0-0.9,0.1-0.9,0.5c0,0.3,0.2,0.4,0.4,0.4c0.2,0,0.4-0.2,0.5-0.4c0-0.1,0-0.1,0-0.2V131.5z"/>
	<path class="st4" d="M50.3,130.9c0-0.3,0-0.6,0-0.8h0.6l0,0.4h0c0.1-0.2,0.4-0.4,0.8-0.4c0.5,0,0.9,0.3,0.9,1.1v1.7l-0.7,0l0-1.6
		c0-0.4-0.1-0.7-0.5-0.7c-0.2,0-0.4,0.2-0.5,0.4c0,0.1,0,0.1,0,0.2l0,1.7h-0.7V130.9z"/>
	<path class="st4" d="M55.8,128.8l0,3.3c0,0.3,0,0.6,0,0.8l-0.6,0l0-0.4h0c-0.1,0.3-0.4,0.5-0.8,0.5c-0.6,0-1.1-0.6-1.1-1.4
		c0-1,0.5-1.5,1.1-1.5c0.3,0,0.6,0.1,0.7,0.3h0v-1.5H55.8z M55.1,131.2c0-0.1,0-0.1,0-0.2c-0.1-0.3-0.3-0.5-0.5-0.5
		c-0.4,0-0.6,0.4-0.6,0.9c0,0.5,0.2,0.9,0.6,0.9c0.2,0,0.5-0.2,0.5-0.5c0-0.1,0-0.1,0-0.2L55.1,131.2z"/>
	<path class="st4" d="M56.4,132.2c0.1,0.1,0.4,0.2,0.6,0.2c0.3,0,0.4-0.1,0.4-0.3c0-0.2-0.1-0.3-0.4-0.4c-0.5-0.2-0.7-0.5-0.7-0.8
		c0-0.5,0.4-0.9,1-0.9c0.3,0,0.5,0.1,0.7,0.2l-0.1,0.5c-0.1-0.1-0.3-0.1-0.5-0.1c-0.2,0-0.4,0.1-0.4,0.3c0,0.2,0.1,0.3,0.4,0.4
		c0.5,0.2,0.7,0.5,0.7,0.9c0,0.5-0.4,0.9-1.1,0.9c-0.3,0-0.6-0.1-0.8-0.2L56.4,132.2z"/>
	<path class="st4" d="M59.5,129.3v0.7h0.6v0.5h-0.6v1.3c0,0.3,0.1,0.5,0.3,0.5c0.1,0,0.2,0,0.2,0l0,0.5c-0.1,0-0.3,0.1-0.5,0.1
		c-0.2,0-0.4-0.1-0.6-0.2c-0.1-0.2-0.2-0.4-0.2-0.8v-1.4h-0.4l0-0.5l0.4,0l0-0.5L59.5,129.3z"/>
	<path class="st4" d="M63,131.4c0,1.1-0.7,1.5-1.3,1.5c-0.7,0-1.3-0.5-1.3-1.4c0-0.9,0.6-1.5,1.3-1.5C62.5,130,63,130.6,63,131.4z
		 M61.1,131.4c0,0.5,0.2,1,0.6,1c0.4,0,0.6-0.4,0.6-1c0-0.4-0.2-1-0.6-1C61.3,130.5,61.1,131,61.1,131.4z"/>
	<path class="st4" d="M63.5,130.9c0-0.3,0-0.6,0-0.9h0.6l0,0.5h0c0.1-0.4,0.4-0.6,0.7-0.6c0.1,0,0.1,0,0.2,0v0.7c-0.1,0-0.1,0-0.2,0
		c-0.3,0-0.5,0.2-0.6,0.5c0,0.1,0,0.1,0,0.2v1.5h-0.7L63.5,130.9z"/>
	<path class="st4" d="M65.4,130.9c0-0.3,0-0.6,0-0.8l0.6,0l0,0.4h0c0.1-0.2,0.4-0.4,0.8-0.4c0.4,0,0.6,0.2,0.7,0.5h0
		c0.1-0.1,0.2-0.3,0.3-0.3c0.1-0.1,0.3-0.1,0.5-0.1c0.5,0,0.9,0.3,0.9,1.2v1.7h-0.7l0-1.6c0-0.4-0.1-0.7-0.4-0.7
		c-0.2,0-0.4,0.2-0.4,0.4c0,0.1,0,0.1,0,0.2l0,1.7H67v-1.7c0-0.4-0.1-0.6-0.4-0.6c-0.2,0-0.4,0.2-0.5,0.4c0,0.1,0,0.1,0,0.2l0,1.7
		l-0.7,0V130.9z"/>
	<path class="st4" d="M69.9,132.5c0-0.3,0.2-0.4,0.4-0.4c0.2,0,0.4,0.2,0.4,0.4c0,0.3-0.2,0.4-0.4,0.4
		C70.1,132.9,69.9,132.7,69.9,132.5z"/>
	<path class="st4" d="M72,129.3c0,0.2-0.1,0.4-0.4,0.4c-0.2,0-0.4-0.2-0.4-0.4c0-0.2,0.2-0.4,0.4-0.4C71.9,128.9,72,129.1,72,129.3z
		 M71.3,132.8l0-2.8H72l0,2.8H71.3z"/>
	<path class="st4" d="M75.1,131.4c0,1.1-0.7,1.5-1.3,1.5c-0.7,0-1.3-0.5-1.3-1.4c0-0.9,0.6-1.5,1.3-1.5
		C74.6,130,75.1,130.6,75.1,131.4z M73.2,131.4c0,0.5,0.2,1,0.6,1c0.4,0,0.6-0.4,0.6-1c0-0.4-0.2-1-0.6-1
		C73.4,130.5,73.2,131,73.2,131.4z"/>
</g>
<path class="st12" d="M67.4,43.7C67.4,43.7,67.4,43.7,67.4,43.7C67.4,43.7,67.4,43.7,67.4,43.7z"/>
<path class="st3" d="M77.9,25.2c-0.9-0.3-2.3-0.7-2.8-0.8c0.7,0.7,1.8,2.2,1.3,4.3c-0.4,0.9-1.4,2.7-4.6,5.2
	c-2.6,1.8-7.2,5.7-4.4,9.9c0,0,0-0.4,0.1-1.1c0,0.3-0.1,0.7-0.1,1c0-0.4,0.3-4.9,7.2-7.9c0.1,0,6-2.5,6.4-5.6
	C81.5,27.8,79,25.9,77.9,25.2z"/>
<path class="st3" d="M41.3,25.7c0.9-0.3,2.3-0.7,2.8-0.8c-0.7,0.7-1.8,1.7-1.3,3.7c0.4,0.9,1.4,2.7,4.6,5.2c2.6,1.8,7.2,5.7,4.4,9.9
	c0,0,0-0.4-0.1-1.1c0,0.3,0.1,0.7,0.1,1c0-0.4-0.3-4.9-7.2-7.9c-0.1,0-6-2.5-6.4-5.6C37.7,27.8,40.3,26.4,41.3,25.7z"/>
<path class="st13" d="M40.6,121.5"/>
<path class="st1" d="M7.9,58.3c0,0-1.1,1.8-1.5,2.5c-0.2,0.4-1.2,2.4-1.2,2.4s0.8,1.2,1.6,2.6s2.7,4,2.7,4s2.1,0,7.3-1
	c5-1,11-3.5,11-3.5C16.1,62.8,7.9,58.3,7.9,58.3z"/>
<path class="st1" d="M110.9,58.3c0,0,1.1,1.8,1.5,2.5c0.2,0.4,1.2,2.3,1.2,2.3s-0.5,1-1.6,2.7c-0.9,1.4-2.7,4-2.7,4s-2.1,0-7.3-1
	c-5-1-11-3.5-11-3.5C102.7,62.8,110.9,58.3,110.9,58.3z"/>
<rect x="31.1" y="48" class="st14" width="2.5" height="2.5"/>
<rect x="77.5" y="48.3" class="st14" width="2.5" height="2.5"/>
<g>
	<path class="st15" d="M51.9,68.4l-0.7-0.5c0,0,1.2,3.2,3.1,4.3c2.3,1.4,5.4,2.4,5.4,2.4s4.9-2.2,6.4-3.4c1.9-1.6,1.9-3.4,1.9-3.4
		l-3.9,0.7l-3.1,1.9l-4.4-0.9L51.9,68.4z"/>
</g>
<g>
	<path class="st1" d="M52.5,78.3c4.8-0.3,6.7-2.6,6.7-2.6l0.5,1c-1.2,0.7-6.5,4.8-12.2,1.4c-2.3-1.3-3-4.2-3-4.2
		S46.5,78.7,52.5,78.3z"/>
</g>
<g>
	<path class="st1" d="M66.9,78.3c-4.8-0.3-6.7-2.6-6.7-2.6l-0.5,1c1.2,0.7,6.5,4.8,12.2,1.4c2.3-1.3,3-4.2,3-4.2
		S72.9,78.7,66.9,78.3z"/>
</g>
<path d="M53.2,67.8l-2,0c0,0,0.6,1.4,1.6,2.6c1,1.2,2.4,1.4,2.4,1.4S52.3,69.2,53.2,67.8z"/>
<path d="M66,67.8l2,0c0,0-0.1,1.5-1.5,2.7c-1.2,1-2.3,1.4-2.3,1.4S68,68.7,66,67.8z"/>
<path class="st1" d="M60.2,77l-0.5-0.3L59.1,77c0,0-0.5-0.6-0.4-0.7c0.5-0.4,0.6-1,0.6-1.6c0-1-0.3-1.8-0.3-1.8h1.2
	c0,0-0.2,0.9-0.2,1.8c0,0.5,0.2,1.2,0.6,1.5C60.8,76.3,60.2,77,60.2,77z"/>
<path class="st11" d="M51.2,67.8c0,0,1.8-0.9,3-0.7c1.2,0.2,3.3,1.5,5.5,1.5s3.5-1.6,5.4-1.6c1.8,0,2.9,0.8,2.9,0.8
	s-5.6,5.2-8.1,5.2C58.1,73.1,55.6,71.6,51.2,67.8z"/>
</svg>
