<?xml version="1.0" encoding="utf-8"?>
<!-- Generator: Adobe Illustrator 19.1.0, SVG Export Plug-In . SVG Version: 6.00 Build 0)  -->
<!DOCTYPE svg PUBLIC "-//W3C//DTD SVG 1.1//EN" "http://www.w3.org/Graphics/SVG/1.1/DTD/svg11.dtd">
<svg version="1.1" id="Layer_1" xmlns="http://www.w3.org/2000/svg" xmlns:xlink="http://www.w3.org/1999/xlink" x="0px" y="0px"
	 viewBox="0 0 133.4 142.3" style="enable-background:new 0 0 133.4 142.3;" xml:space="preserve">
<style type="text/css">
	.st0{clip-path:url(#SVGID_2_);fill:url(#SVGID_3_);}
	.st1{clip-path:url(#SVGID_2_);fill:url(#SVGID_4_);}
	.st2{clip-path:url(#SVGID_2_);fill:url(#SVGID_5_);}
	.st3{clip-path:url(#SVGID_2_);fill:url(#SVGID_6_);}
	.st4{clip-path:url(#SVGID_2_);fill:url(#SVGID_7_);}
	.st5{clip-path:url(#SVGID_2_);fill:url(#SVGID_8_);}
	.st6{clip-path:url(#SVGID_2_);fill:url(#SVGID_9_);}
	.st7{clip-path:url(#SVGID_2_);fill:url(#SVGID_10_);}
	.st8{clip-path:url(#SVGID_2_);fill:url(#SVGID_11_);}
	.st9{clip-path:url(#SVGID_2_);fill:url(#SVGID_12_);}
	.st10{clip-path:url(#SVGID_2_);fill:url(#SVGID_13_);}
	.st11{clip-path:url(#SVGID_2_);fill:url(#SVGID_14_);}
	.st12{clip-path:url(#SVGID_2_);fill:url(#SVGID_15_);}
	.st13{clip-path:url(#SVGID_2_);fill:url(#SVGID_16_);}
	.st14{clip-path:url(#SVGID_2_);fill:url(#SVGID_17_);}
	.st15{clip-path:url(#SVGID_2_);fill:url(#SVGID_18_);}
	.st16{clip-path:url(#SVGID_2_);fill:url(#SVGID_19_);}
	.st17{clip-path:url(#SVGID_2_);fill:url(#SVGID_20_);}
	.st18{clip-path:url(#SVGID_2_);fill:url(#SVGID_21_);}
	.st19{clip-path:url(#SVGID_2_);fill:url(#SVGID_22_);}
	.st20{clip-path:url(#SVGID_2_);fill:url(#SVGID_23_);}
	.st21{clip-path:url(#SVGID_2_);fill:url(#SVGID_24_);}
	.st22{clip-path:url(#SVGID_2_);fill:url(#SVGID_25_);}
	.st23{clip-path:url(#SVGID_2_);fill:url(#SVGID_26_);}
	.st24{clip-path:url(#SVGID_2_);fill:url(#SVGID_27_);}
	.st25{clip-path:url(#SVGID_2_);fill:url(#SVGID_28_);}
</style>
<g>
	<g>
		<defs>
			<polyline id="SVGID_1_" points="6.5,6.5 131.1,6.5 131.1,134.9 6.5,134.9 6.5,6.5 			"/>
		</defs>
		<clipPath id="SVGID_2_">
			<use xlink:href="#SVGID_1_"  style="overflow:visible;"/>
		</clipPath>
		
			<linearGradient id="SVGID_3_" gradientUnits="userSpaceOnUse" x1="0" y1="7.552566e-002" x2="1" y2="7.552566e-002" gradientTransform="matrix(-140.3131 140.3131 140.3131 140.3131 137.5244 -1.2847)">
			<stop  offset="0" style="stop-color:#FFFFFF"/>
			<stop  offset="3.298366e-002" style="stop-color:#F1F1F1"/>
			<stop  offset="0.1675" style="stop-color:#BFBFBF"/>
			<stop  offset="0.3046" style="stop-color:#939393"/>
			<stop  offset="0.442" style="stop-color:#6F6F6F"/>
			<stop  offset="0.5799" style="stop-color:#535353"/>
			<stop  offset="0.7183" style="stop-color:#404040"/>
			<stop  offset="0.8578" style="stop-color:#343434"/>
			<stop  offset="1" style="stop-color:#303030"/>
		</linearGradient>
		<polyline class="st0" points="131.1,25.6 125.8,25.6 125.8,27.7 125.3,27.7 125.3,32.9 130.5,32.9 130.5,30.9 131.1,30.9 
			131.1,25.6 		"/>
		
			<linearGradient id="SVGID_4_" gradientUnits="userSpaceOnUse" x1="0" y1="-0.1312" x2="1" y2="-0.1312" gradientTransform="matrix(-140.3131 140.3131 140.3131 140.3131 137.5244 -1.2847)">
			<stop  offset="0" style="stop-color:#FFFFFF"/>
			<stop  offset="3.298366e-002" style="stop-color:#F1F1F1"/>
			<stop  offset="0.1675" style="stop-color:#BFBFBF"/>
			<stop  offset="0.3046" style="stop-color:#939393"/>
			<stop  offset="0.442" style="stop-color:#6F6F6F"/>
			<stop  offset="0.5799" style="stop-color:#535353"/>
			<stop  offset="0.7183" style="stop-color:#404040"/>
			<stop  offset="0.8578" style="stop-color:#343434"/>
			<stop  offset="1" style="stop-color:#303030"/>
		</linearGradient>
		<polyline class="st1" points="40.5,49.4 35.8,49.4 35.3,49.4 30.5,49.4 30.5,54.1 30.5,54.6 30.5,59.4 30.5,64.1 30.5,68.9 
			35.3,68.9 35.8,68.9 40.5,68.9 45.3,68.9 50,68.9 50,63.7 50,58.9 45.3,58.9 45.3,54.1 40.5,54.1 40.5,49.4 		"/>
		
			<linearGradient id="SVGID_5_" gradientUnits="userSpaceOnUse" x1="0" y1="-0.155" x2="1" y2="-0.155" gradientTransform="matrix(-140.3131 140.3131 140.3131 140.3131 137.5244 -1.2847)">
			<stop  offset="0" style="stop-color:#FFFFFF"/>
			<stop  offset="3.298366e-002" style="stop-color:#F1F1F1"/>
			<stop  offset="0.1675" style="stop-color:#BFBFBF"/>
			<stop  offset="0.3046" style="stop-color:#939393"/>
			<stop  offset="0.442" style="stop-color:#6F6F6F"/>
			<stop  offset="0.5799" style="stop-color:#535353"/>
			<stop  offset="0.7183" style="stop-color:#404040"/>
			<stop  offset="0.8578" style="stop-color:#343434"/>
			<stop  offset="1" style="stop-color:#303030"/>
		</linearGradient>
		<polyline class="st2" points="72.6,20.1 67.4,20.1 67.4,25.4 72.6,25.4 72.6,20.1 		"/>
		
			<linearGradient id="SVGID_6_" gradientUnits="userSpaceOnUse" x1="0" y1="-0.1337" x2="1" y2="-0.1337" gradientTransform="matrix(-140.3131 140.3131 140.3131 140.3131 137.5244 -1.2847)">
			<stop  offset="0" style="stop-color:#FFFFFF"/>
			<stop  offset="3.298366e-002" style="stop-color:#F1F1F1"/>
			<stop  offset="0.1675" style="stop-color:#BFBFBF"/>
			<stop  offset="0.3046" style="stop-color:#939393"/>
			<stop  offset="0.442" style="stop-color:#6F6F6F"/>
			<stop  offset="0.5799" style="stop-color:#535353"/>
			<stop  offset="0.7183" style="stop-color:#404040"/>
			<stop  offset="0.8578" style="stop-color:#343434"/>
			<stop  offset="1" style="stop-color:#303030"/>
		</linearGradient>
		<polyline class="st3" points="46.7,46.8 41.5,46.8 41.5,52 46.7,52 46.7,57.3 51.9,57.3 51.9,52 46.7,52 46.7,46.8 		"/>
		
			<linearGradient id="SVGID_7_" gradientUnits="userSpaceOnUse" x1="0" y1="-6.340665e-002" x2="1" y2="-6.340665e-002" gradientTransform="matrix(-140.3131 140.3131 140.3131 140.3131 137.5244 -1.2847)">
			<stop  offset="0" style="stop-color:#FFFFFF"/>
			<stop  offset="3.298366e-002" style="stop-color:#F1F1F1"/>
			<stop  offset="0.1675" style="stop-color:#BFBFBF"/>
			<stop  offset="0.3046" style="stop-color:#939393"/>
			<stop  offset="0.442" style="stop-color:#6F6F6F"/>
			<stop  offset="0.5799" style="stop-color:#535353"/>
			<stop  offset="0.7183" style="stop-color:#404040"/>
			<stop  offset="0.8578" style="stop-color:#343434"/>
			<stop  offset="1" style="stop-color:#303030"/>
		</linearGradient>
		<polyline class="st4" points="61.1,43 55.9,43 55.9,48.3 55.9,52.5 55.9,53 55.9,57.3 55.9,57.8 55.9,62.5 60.7,62.5 61.1,62.5 
			65.4,62.5 65.9,62.5 70.7,62.5 70.7,62.5 75.4,62.5 75.4,57.3 70.7,57.3 70.7,52.5 65.9,52.5 65.9,47.8 61.1,47.8 61.1,43 		"/>
		
			<linearGradient id="SVGID_8_" gradientUnits="userSpaceOnUse" x1="0" y1="-0.1049" x2="1" y2="-0.1049" gradientTransform="matrix(-140.3131 140.3131 140.3131 140.3131 137.5244 -1.2847)">
			<stop  offset="0" style="stop-color:#FFFFFF"/>
			<stop  offset="3.298366e-002" style="stop-color:#F1F1F1"/>
			<stop  offset="0.1675" style="stop-color:#BFBFBF"/>
			<stop  offset="0.3046" style="stop-color:#939393"/>
			<stop  offset="0.442" style="stop-color:#6F6F6F"/>
			<stop  offset="0.5799" style="stop-color:#535353"/>
			<stop  offset="0.7183" style="stop-color:#404040"/>
			<stop  offset="0.8578" style="stop-color:#343434"/>
			<stop  offset="1" style="stop-color:#303030"/>
		</linearGradient>
		<polyline class="st5" points="68.2,38.6 63,38.6 63,43.8 68.2,43.8 68.2,38.6 		"/>
		
			<linearGradient id="SVGID_9_" gradientUnits="userSpaceOnUse" x1="0" y1="-0.111" x2="1" y2="-0.111" gradientTransform="matrix(-140.3131 140.3131 140.3131 140.3131 137.5244 -1.2847)">
			<stop  offset="0" style="stop-color:#FFFFFF"/>
			<stop  offset="3.298366e-002" style="stop-color:#F1F1F1"/>
			<stop  offset="0.1675" style="stop-color:#BFBFBF"/>
			<stop  offset="0.3046" style="stop-color:#939393"/>
			<stop  offset="0.442" style="stop-color:#6F6F6F"/>
			<stop  offset="0.5799" style="stop-color:#535353"/>
			<stop  offset="0.7183" style="stop-color:#404040"/>
			<stop  offset="0.8578" style="stop-color:#343434"/>
			<stop  offset="1" style="stop-color:#303030"/>
		</linearGradient>
		<polyline class="st6" points="94.9,10.2 89.7,10.2 89.7,15.4 94.9,15.4 94.9,10.2 		"/>
		
			<linearGradient id="SVGID_10_" gradientUnits="userSpaceOnUse" x1="0" y1="-6.449252e-002" x2="1" y2="-6.449252e-002" gradientTransform="matrix(-140.3131 140.3131 140.3131 140.3131 137.5244 -1.2847)">
			<stop  offset="0" style="stop-color:#FFFFFF"/>
			<stop  offset="3.298366e-002" style="stop-color:#F1F1F1"/>
			<stop  offset="0.1675" style="stop-color:#BFBFBF"/>
			<stop  offset="0.3046" style="stop-color:#939393"/>
			<stop  offset="0.442" style="stop-color:#6F6F6F"/>
			<stop  offset="0.5799" style="stop-color:#535353"/>
			<stop  offset="0.7183" style="stop-color:#404040"/>
			<stop  offset="0.8578" style="stop-color:#343434"/>
			<stop  offset="1" style="stop-color:#303030"/>
		</linearGradient>
		<polyline class="st7" points="73.8,44.3 68.6,44.3 68.6,49.6 73.8,49.6 73.8,44.3 		"/>
		
			<linearGradient id="SVGID_11_" gradientUnits="userSpaceOnUse" x1="0" y1="-4.420712e-002" x2="1" y2="-4.420712e-002" gradientTransform="matrix(-140.3131 140.3131 140.3131 140.3131 137.5244 -1.2847)">
			<stop  offset="0" style="stop-color:#FFFFFF"/>
			<stop  offset="3.298366e-002" style="stop-color:#F1F1F1"/>
			<stop  offset="0.1675" style="stop-color:#BFBFBF"/>
			<stop  offset="0.3046" style="stop-color:#939393"/>
			<stop  offset="0.442" style="stop-color:#6F6F6F"/>
			<stop  offset="0.5799" style="stop-color:#535353"/>
			<stop  offset="0.7183" style="stop-color:#404040"/>
			<stop  offset="0.8578" style="stop-color:#343434"/>
			<stop  offset="1" style="stop-color:#303030"/>
		</linearGradient>
		<polyline class="st8" points="114.1,6.5 114.1,6.5 108.8,6.5 108.8,11.7 111.7,11.7 111.7,15.5 116.9,15.5 116.9,10.2 114.1,10.2 
			114.1,6.5 		"/>
		
			<linearGradient id="SVGID_12_" gradientUnits="userSpaceOnUse" x1="0" y1="-3.693426e-002" x2="1" y2="-3.693426e-002" gradientTransform="matrix(-140.3131 140.3131 140.3131 140.3131 137.5244 -1.2847)">
			<stop  offset="0" style="stop-color:#FFFFFF"/>
			<stop  offset="3.298366e-002" style="stop-color:#F1F1F1"/>
			<stop  offset="0.1675" style="stop-color:#BFBFBF"/>
			<stop  offset="0.3046" style="stop-color:#939393"/>
			<stop  offset="0.442" style="stop-color:#6F6F6F"/>
			<stop  offset="0.5799" style="stop-color:#535353"/>
			<stop  offset="0.7183" style="stop-color:#404040"/>
			<stop  offset="0.8578" style="stop-color:#343434"/>
			<stop  offset="1" style="stop-color:#303030"/>
		</linearGradient>
		<polyline class="st9" points="104.8,21.1 99.6,21.1 99.6,26.3 104.8,26.3 104.8,21.1 		"/>
		
			<linearGradient id="SVGID_13_" gradientUnits="userSpaceOnUse" x1="0" y1="-2.545071e-002" x2="1" y2="-2.545071e-002" gradientTransform="matrix(-140.3131 140.3131 140.3131 140.3131 137.5244 -1.2847)">
			<stop  offset="0" style="stop-color:#FFFFFF"/>
			<stop  offset="3.298366e-002" style="stop-color:#F1F1F1"/>
			<stop  offset="0.1675" style="stop-color:#BFBFBF"/>
			<stop  offset="0.3046" style="stop-color:#939393"/>
			<stop  offset="0.442" style="stop-color:#6F6F6F"/>
			<stop  offset="0.5799" style="stop-color:#535353"/>
			<stop  offset="0.7183" style="stop-color:#404040"/>
			<stop  offset="0.8578" style="stop-color:#343434"/>
			<stop  offset="1" style="stop-color:#303030"/>
		</linearGradient>
		<polyline class="st10" points="79.3,49.8 74,49.8 74,55.1 79.3,55.1 79.3,49.8 		"/>
		
			<linearGradient id="SVGID_14_" gradientUnits="userSpaceOnUse" x1="0" y1="1.341784e-002" x2="1" y2="1.341784e-002" gradientTransform="matrix(-140.3131 140.3131 140.3131 140.3131 137.5244 -1.2847)">
			<stop  offset="0" style="stop-color:#FFFFFF"/>
			<stop  offset="3.298366e-002" style="stop-color:#F1F1F1"/>
			<stop  offset="0.1675" style="stop-color:#BFBFBF"/>
			<stop  offset="0.3046" style="stop-color:#939393"/>
			<stop  offset="0.442" style="stop-color:#6F6F6F"/>
			<stop  offset="0.5799" style="stop-color:#535353"/>
			<stop  offset="0.7183" style="stop-color:#404040"/>
			<stop  offset="0.8578" style="stop-color:#343434"/>
			<stop  offset="1" style="stop-color:#303030"/>
		</linearGradient>
		<polyline class="st11" points="60.8,69.7 55.6,69.7 50.8,69.7 50.8,74.4 50.8,74.9 50.8,79.2 50.8,79.7 50.8,84.4 50.8,89.2 
			55.6,89.2 56.1,89.2 60.3,89.2 60.8,89.2 65.1,89.2 65.6,89.2 70.3,89.2 70.3,84.4 70.3,83.9 70.3,79.2 65.6,79.2 65.6,74.4 
			60.8,74.4 60.8,69.7 		"/>
		
			<linearGradient id="SVGID_15_" gradientUnits="userSpaceOnUse" x1="0" y1="1.342845e-002" x2="1" y2="1.342845e-002" gradientTransform="matrix(-140.3131 140.3131 140.3131 140.3131 137.5244 -1.2847)">
			<stop  offset="0" style="stop-color:#FFFFFF"/>
			<stop  offset="3.298366e-002" style="stop-color:#F1F1F1"/>
			<stop  offset="0.1675" style="stop-color:#BFBFBF"/>
			<stop  offset="0.3046" style="stop-color:#939393"/>
			<stop  offset="0.442" style="stop-color:#6F6F6F"/>
			<stop  offset="0.5799" style="stop-color:#535353"/>
			<stop  offset="0.7183" style="stop-color:#404040"/>
			<stop  offset="0.8578" style="stop-color:#343434"/>
			<stop  offset="1" style="stop-color:#303030"/>
		</linearGradient>
		<polyline class="st12" points="67.3,67.5 62.1,67.5 62.1,72.7 67.3,72.7 67.3,77.9 72.6,77.9 72.6,72.7 67.3,72.7 67.3,67.5 		"/>
		
			<linearGradient id="SVGID_16_" gradientUnits="userSpaceOnUse" x1="0" y1="2.319877e-002" x2="1" y2="2.319877e-002" gradientTransform="matrix(-140.3131 140.3131 140.3131 140.3131 137.5244 -1.2847)">
			<stop  offset="0" style="stop-color:#FFFFFF"/>
			<stop  offset="3.298366e-002" style="stop-color:#F1F1F1"/>
			<stop  offset="0.1675" style="stop-color:#BFBFBF"/>
			<stop  offset="0.3046" style="stop-color:#939393"/>
			<stop  offset="0.442" style="stop-color:#6F6F6F"/>
			<stop  offset="0.5799" style="stop-color:#535353"/>
			<stop  offset="0.7183" style="stop-color:#404040"/>
			<stop  offset="0.8578" style="stop-color:#343434"/>
			<stop  offset="1" style="stop-color:#303030"/>
		</linearGradient>
		<polyline class="st13" points="108.4,34.3 103.2,34.3 103.2,39.6 108.4,39.6 108.4,34.3 		"/>
		
			<linearGradient id="SVGID_17_" gradientUnits="userSpaceOnUse" x1="0" y1="1.341483e-002" x2="1" y2="1.341483e-002" gradientTransform="matrix(-140.3131 140.3131 140.3131 140.3131 137.5244 -1.2847)">
			<stop  offset="0" style="stop-color:#FFFFFF"/>
			<stop  offset="3.298366e-002" style="stop-color:#F1F1F1"/>
			<stop  offset="0.1675" style="stop-color:#BFBFBF"/>
			<stop  offset="0.3046" style="stop-color:#939393"/>
			<stop  offset="0.442" style="stop-color:#6F6F6F"/>
			<stop  offset="0.5799" style="stop-color:#535353"/>
			<stop  offset="0.7183" style="stop-color:#404040"/>
			<stop  offset="0.8578" style="stop-color:#343434"/>
			<stop  offset="1" style="stop-color:#303030"/>
		</linearGradient>
		<polyline class="st14" points="87.8,37.9 82.6,37.9 82.6,42.7 82.6,42.7 82.6,47.9 82.6,52.2 82.6,52.7 82.6,57.5 87.8,57.5 
			87.8,57.5 92.1,57.4 92.1,57.5 97.3,57.4 102.1,57.4 102.1,52.2 97.3,52.2 97.3,47.5 96.2,47.5 96.2,44.1 92.5,44.1 92.5,42.7 
			87.8,42.7 87.8,37.9 		"/>
		
			<linearGradient id="SVGID_18_" gradientUnits="userSpaceOnUse" x1="0" y1="5.297498e-002" x2="1" y2="5.297498e-002" gradientTransform="matrix(-140.3131 140.3131 140.3131 140.3131 137.5244 -1.2847)">
			<stop  offset="0" style="stop-color:#FFFFFF"/>
			<stop  offset="3.298366e-002" style="stop-color:#F1F1F1"/>
			<stop  offset="0.1675" style="stop-color:#BFBFBF"/>
			<stop  offset="0.3046" style="stop-color:#939393"/>
			<stop  offset="0.442" style="stop-color:#6F6F6F"/>
			<stop  offset="0.5799" style="stop-color:#535353"/>
			<stop  offset="0.7183" style="stop-color:#404040"/>
			<stop  offset="0.8578" style="stop-color:#343434"/>
			<stop  offset="1" style="stop-color:#303030"/>
		</linearGradient>
		<polyline class="st15" points="90.4,60.7 85.1,60.7 85.1,66 90.4,66 90.4,60.7 		"/>
		
			<linearGradient id="SVGID_19_" gradientUnits="userSpaceOnUse" x1="0" y1="6.738879e-002" x2="1" y2="6.738879e-002" gradientTransform="matrix(-140.3131 140.3131 140.3131 140.3131 137.5244 -1.2847)">
			<stop  offset="0" style="stop-color:#FFFFFF"/>
			<stop  offset="3.298366e-002" style="stop-color:#F1F1F1"/>
			<stop  offset="0.1675" style="stop-color:#BFBFBF"/>
			<stop  offset="0.3046" style="stop-color:#939393"/>
			<stop  offset="0.442" style="stop-color:#6F6F6F"/>
			<stop  offset="0.5799" style="stop-color:#535353"/>
			<stop  offset="0.7183" style="stop-color:#404040"/>
			<stop  offset="0.8578" style="stop-color:#343434"/>
			<stop  offset="1" style="stop-color:#303030"/>
		</linearGradient>
		<polyline class="st16" points="120.8,34.4 115.5,34.4 115.5,39.6 120.8,39.6 120.8,34.4 		"/>
		
			<linearGradient id="SVGID_20_" gradientUnits="userSpaceOnUse" x1="0" y1="9.136214e-002" x2="1" y2="9.136214e-002" gradientTransform="matrix(-140.3131 140.3131 140.3131 140.3131 137.5244 -1.2847)">
			<stop  offset="0" style="stop-color:#FFFFFF"/>
			<stop  offset="3.298366e-002" style="stop-color:#F1F1F1"/>
			<stop  offset="0.1675" style="stop-color:#BFBFBF"/>
			<stop  offset="0.3046" style="stop-color:#939393"/>
			<stop  offset="0.442" style="stop-color:#6F6F6F"/>
			<stop  offset="0.5799" style="stop-color:#535353"/>
			<stop  offset="0.7183" style="stop-color:#404040"/>
			<stop  offset="0.8578" style="stop-color:#343434"/>
			<stop  offset="1" style="stop-color:#303030"/>
		</linearGradient>
		<polyline class="st17" points="95.7,66.2 90.4,66.2 90.4,71.4 95.7,71.4 95.7,66.2 		"/>
		
			<linearGradient id="SVGID_21_" gradientUnits="userSpaceOnUse" x1="0" y1="0.1173" x2="1" y2="0.1173" gradientTransform="matrix(-140.3131 140.3131 140.3131 140.3131 137.5244 -1.2847)">
			<stop  offset="0" style="stop-color:#FFFFFF"/>
			<stop  offset="3.298366e-002" style="stop-color:#F1F1F1"/>
			<stop  offset="0.1675" style="stop-color:#BFBFBF"/>
			<stop  offset="0.3046" style="stop-color:#939393"/>
			<stop  offset="0.442" style="stop-color:#6F6F6F"/>
			<stop  offset="0.5799" style="stop-color:#535353"/>
			<stop  offset="0.7183" style="stop-color:#404040"/>
			<stop  offset="0.8578" style="stop-color:#343434"/>
			<stop  offset="1" style="stop-color:#303030"/>
		</linearGradient>
		<polyline class="st18" points="123.4,45.8 118.2,45.8 118.2,51 123.4,51 123.4,45.8 		"/>
		
			<linearGradient id="SVGID_22_" gradientUnits="userSpaceOnUse" x1="0" y1="0.1321" x2="1" y2="0.1321" gradientTransform="matrix(-140.3131 140.3131 140.3131 140.3131 137.5244 -1.2847)">
			<stop  offset="0" style="stop-color:#FFFFFF"/>
			<stop  offset="3.298366e-002" style="stop-color:#F1F1F1"/>
			<stop  offset="0.1675" style="stop-color:#BFBFBF"/>
			<stop  offset="0.3046" style="stop-color:#939393"/>
			<stop  offset="0.442" style="stop-color:#6F6F6F"/>
			<stop  offset="0.5799" style="stop-color:#535353"/>
			<stop  offset="0.7183" style="stop-color:#404040"/>
			<stop  offset="0.8578" style="stop-color:#343434"/>
			<stop  offset="1" style="stop-color:#303030"/>
		</linearGradient>
		<polyline class="st19" points="101.5,71.8 96.3,71.8 96.3,77.1 101.5,77 101.5,71.8 		"/>
		
			<linearGradient id="SVGID_23_" gradientUnits="userSpaceOnUse" x1="0" y1="9.024431e-002" x2="1" y2="9.024431e-002" gradientTransform="matrix(-140.3131 140.3131 140.3131 140.3131 137.5244 -1.2847)">
			<stop  offset="0" style="stop-color:#FFFFFF"/>
			<stop  offset="3.298366e-002" style="stop-color:#F1F1F1"/>
			<stop  offset="0.1675" style="stop-color:#BFBFBF"/>
			<stop  offset="0.3046" style="stop-color:#939393"/>
			<stop  offset="0.442" style="stop-color:#6F6F6F"/>
			<stop  offset="0.5799" style="stop-color:#535353"/>
			<stop  offset="0.7183" style="stop-color:#404040"/>
			<stop  offset="0.8578" style="stop-color:#343434"/>
			<stop  offset="1" style="stop-color:#303030"/>
		</linearGradient>
		<polyline class="st20" points="82.7,64.6 77.5,64.6 77.5,69.8 77.5,74.1 77.5,74.6 77.5,78.9 77.5,79.3 77.5,84.1 82.2,84.1 
			82.7,84.1 87,84.1 87.5,84.1 91.7,84.1 92.2,84.1 97,84.1 97,78.9 92.2,78.9 92.2,74.1 87.5,74.1 87.5,69.3 82.7,69.3 82.7,64.6 
					"/>
		
			<linearGradient id="SVGID_24_" gradientUnits="userSpaceOnUse" x1="0" y1="0.142" x2="1" y2="0.142" gradientTransform="matrix(-140.3131 140.3131 140.3131 140.3131 137.5244 -1.2847)">
			<stop  offset="0" style="stop-color:#FFFFFF"/>
			<stop  offset="3.298366e-002" style="stop-color:#F1F1F1"/>
			<stop  offset="0.1675" style="stop-color:#BFBFBF"/>
			<stop  offset="0.3046" style="stop-color:#939393"/>
			<stop  offset="0.442" style="stop-color:#6F6F6F"/>
			<stop  offset="0.5799" style="stop-color:#535353"/>
			<stop  offset="0.7183" style="stop-color:#404040"/>
			<stop  offset="0.8578" style="stop-color:#343434"/>
			<stop  offset="1" style="stop-color:#303030"/>
		</linearGradient>
		<polyline class="st21" points="88,88.1 82.8,88.1 82.8,93.3 88,93.3 88,88.1 		"/>
		
			<linearGradient id="SVGID_25_" gradientUnits="userSpaceOnUse" x1="0" y1="0.1847" x2="1" y2="0.1847" gradientTransform="matrix(-140.3131 140.3131 140.3131 140.3131 137.5244 -1.2847)">
			<stop  offset="0" style="stop-color:#FFFFFF"/>
			<stop  offset="3.298366e-002" style="stop-color:#F1F1F1"/>
			<stop  offset="0.1675" style="stop-color:#BFBFBF"/>
			<stop  offset="0.3046" style="stop-color:#939393"/>
			<stop  offset="0.442" style="stop-color:#6F6F6F"/>
			<stop  offset="0.5799" style="stop-color:#535353"/>
			<stop  offset="0.7183" style="stop-color:#404040"/>
			<stop  offset="0.8578" style="stop-color:#343434"/>
			<stop  offset="1" style="stop-color:#303030"/>
		</linearGradient>
		<polyline class="st22" points="120.4,67.7 115.2,67.7 115.2,72.9 120.4,72.9 120.4,67.7 		"/>
		
			<linearGradient id="SVGID_26_" gradientUnits="userSpaceOnUse" x1="0" y1="0.1794" x2="1" y2="0.1794" gradientTransform="matrix(-140.3131 140.3131 140.3131 140.3131 137.5244 -1.2847)">
			<stop  offset="0" style="stop-color:#FFFFFF"/>
			<stop  offset="3.298366e-002" style="stop-color:#F1F1F1"/>
			<stop  offset="0.1675" style="stop-color:#BFBFBF"/>
			<stop  offset="0.3046" style="stop-color:#939393"/>
			<stop  offset="0.442" style="stop-color:#6F6F6F"/>
			<stop  offset="0.5799" style="stop-color:#535353"/>
			<stop  offset="0.7183" style="stop-color:#404040"/>
			<stop  offset="0.8578" style="stop-color:#343434"/>
			<stop  offset="1" style="stop-color:#303030"/>
		</linearGradient>
		<polyline class="st23" points="93.2,93.3 88,93.3 88,98.6 93.2,98.6 93.2,93.3 		"/>
		
			<linearGradient id="SVGID_27_" gradientUnits="userSpaceOnUse" x1="0" y1="0.158" x2="1" y2="0.158" gradientTransform="matrix(-140.3131 140.3131 140.3131 140.3131 137.5244 -1.2847)">
			<stop  offset="0" style="stop-color:#FFFFFF"/>
			<stop  offset="3.298366e-002" style="stop-color:#F1F1F1"/>
			<stop  offset="0.1675" style="stop-color:#BFBFBF"/>
			<stop  offset="0.3046" style="stop-color:#939393"/>
			<stop  offset="0.442" style="stop-color:#6F6F6F"/>
			<stop  offset="0.5799" style="stop-color:#535353"/>
			<stop  offset="0.7183" style="stop-color:#404040"/>
			<stop  offset="0.8578" style="stop-color:#343434"/>
			<stop  offset="1" style="stop-color:#303030"/>
		</linearGradient>
		<polyline class="st24" points="81.1,90 75.9,90 71.1,90 71.1,95.2 71.1,99.5 71.1,99.9 71.1,104.2 71.1,104.7 71.1,109.5 
			76.4,109.5 80.6,109.5 81.1,109.5 85.4,109.5 85.9,109.5 90.6,109.5 90.6,104.2 90.6,99.5 85.9,99.5 85.9,94.7 81.1,94.7 81.1,90 
					"/>
		
			<linearGradient id="SVGID_28_" gradientUnits="userSpaceOnUse" x1="0" y1="2.170174e-002" x2="1" y2="2.170174e-002" gradientTransform="matrix(-140.3131 140.3131 140.3131 140.3131 137.5244 -1.2847)">
			<stop  offset="0" style="stop-color:#FFFFFF"/>
			<stop  offset="3.298366e-002" style="stop-color:#F1F1F1"/>
			<stop  offset="0.1675" style="stop-color:#BFBFBF"/>
			<stop  offset="0.3046" style="stop-color:#939393"/>
			<stop  offset="0.442" style="stop-color:#6F6F6F"/>
			<stop  offset="0.5799" style="stop-color:#535353"/>
			<stop  offset="0.7183" style="stop-color:#404040"/>
			<stop  offset="0.8578" style="stop-color:#343434"/>
			<stop  offset="1" style="stop-color:#303030"/>
		</linearGradient>
		<polyline class="st25" points="27.4,56.9 6.5,56.9 6.5,77.8 6.5,96.9 6.5,114 6.5,114 6.5,134.9 6.5,134.9 27.4,134.9 46.5,134.9 
			65.4,134.9 65.4,134.9 86.3,134.9 86.3,114 65.5,114 65.5,95 46.5,95 46.5,75.9 27.4,75.9 27.4,56.9 		"/>
	</g>
</g>
</svg>
