<?xml version="1.0" encoding="utf-8"?>
<!-- Generator: Adobe Illustrator 19.2.1, SVG Export Plug-In . SVG Version: 6.00 Build 0)  -->
<svg version="1.1" id="Layer_1" xmlns="http://www.w3.org/2000/svg" xmlns:xlink="http://www.w3.org/1999/xlink" x="0px" y="0px"
	 viewBox="0 0 115 77.7" style="enable-background:new 0 0 115 77.7;" xml:space="preserve">
<style type="text/css">
	.st0{fill:#E1CCD6;}
	.st1{fill:#D8C7D2;}
	.st2{fill:#ECDCE5;}
</style>
<g>
	<polyline class="st0" points="33.9,6 21,6 21,25.8 33.9,16.6 33.9,6 	"/>
	<path class="st1" d="M45.2,77.7V50.2h19.6v27.5H45.2 M55.2,1.5L33.9,16.6L21,25.8L2.4,39.1h18.9v38.5h66.9h-3.5
		c0.1-1.6,3.8-3.1,3.4-3.1c0,0,0,0,0,0c0,0,0,0,0,0c-0.7,0-2.7-1.3-2.7-1.3l1.7-0.4c0,0-1.8-0.8-0.5-3.2c0.3-0.5,0.9-0.8,1.6-1V39.1
		h19.7L55.2,1.5"/>
	<polyline class="st2" points="64.8,50.2 45.2,50.2 45.2,77.7 64.8,77.7 64.8,50.2 	"/>
	<path class="st2" d="M95.5,64.1c-0.1,0-0.2,0-0.3,0c-5.4,0.2-1.4,4.4-1.4,4.4s-1.1-0.1-2.5-0.1c-1,0-2.2,0.1-3.1,0.3
		c-0.7,0.2-1.3,0.5-1.6,1c-1.3,2.4,0.5,3.2,0.5,3.2l-1.7,0.4c0,0,2,1.3,2.7,1.3c0,0,0,0,0,0c0,0,0,0,0,0c0.4,0-3.3,1.4-3.4,3.1h3.5
		h24c0.8-1.5-0.6-2.5-1.3-3.1c-0.7-0.5-1.6-1.1-1.6-1.1s2.5-0.3,2.9-1.5c0.4-1.2,0.4-1.2,0.4-1.2l-1.9,0.1c0,0,1.6-2-1.1-3.9
		c-0.8-0.5-1.5-0.7-2.1-0.7c-1.6,0-2.7,1.2-2.7,1.2s0-1.3-1.3-1.8c-1.3-0.5-1.3-0.5-1.3-0.5s0.9,1.6,0,2.3
		C102,67.5,100.6,64.1,95.5,64.1"/>
</g>
</svg>
