<svg id="Layer_1" data-name="Layer 1" xmlns="http://www.w3.org/2000/svg" viewBox="0 0 40 40"><defs><style>.cls-1{fill:#111;}</style></defs><title>add-email</title><path class="cls-1" d="M34.09,9.29H30.27V7.49h3.82V3.43H36V7.49H39.8v1.8H36v4.06H34.09V9.29Z"/><path class="cls-1" d="M17.49,22.07l14-9.55a1.59,1.59,0,0,0-1.17-.63H1.46a1.37,1.37,0,0,0-1.35.9l14.77,9.37A2.48,2.48,0,0,0,17.49,22.07Z"/><path class="cls-1" d="M14.88,25.22L0.11,15.86V31.71a1.69,1.69,0,0,0,1.71,1.62H30a1.82,1.82,0,0,0,1.53-1.62V15.59l-14,9.64A2.64,2.64,0,0,1,14.88,25.22Z"/></svg>