<svg id="Layer_1" data-name="Layer 1" xmlns="http://www.w3.org/2000/svg" xmlns:xlink="http://www.w3.org/1999/xlink" viewBox="0 0 40 40"><defs><style>.cls-1{fill:url(#linear-gradient);}.cls-2{fill:#fff;}.cls-3{fill:#3f3f3f;}</style><linearGradient id="linear-gradient" x1="20" y1="40" x2="20" gradientUnits="userSpaceOnUse"><stop offset="0" stop-color="#878787"/><stop offset="0.14" stop-color="#999"/><stop offset="0.73" stop-color="#e2e2e2"/><stop offset="1" stop-color="#fff"/></linearGradient></defs><title>anonymous</title><rect class="cls-1" width="40" height="40"/><circle class="cls-2" cx="20" cy="18.38" r="8.5"/><path class="cls-3" d="M29.43,28.11L31.8,22.4l-4.25,1.11a8.88,8.88,0,0,0,.87-8A44.27,44.27,0,0,1,36,16.89C35,15.78,32.5,14.37,29,13.38l-3-7.1a2.63,2.63,0,0,0-2.47-1.43A15.73,15.73,0,0,1,20,6.57a19.14,19.14,0,0,1-3.85-1.71,2.62,2.62,0,0,0-2.49,1.49l-2.73,7c-3.46,1-6,2.32-6.91,3.5a44.27,44.27,0,0,1,7.56-1.33,8.88,8.88,0,0,0,.86,7.93L8.21,22.4l2.43,5.76a13.07,13.07,0,0,0-4.53,10V40H33.87V38.15A13.11,13.11,0,0,0,29.43,28.11ZM20.09,26l-5.73-1.93a7.77,7.77,0,0,1-1.52-8.69c2.22-.19,4.64-0.29,7.16-0.29s4.94,0.1,7.16.29a7.77,7.77,0,0,1-1.57,8.74Z"/></svg>