<?xml version="1.0" encoding="utf-8"?>
<!-- Generator: Adobe Illustrator 19.1.0, SVG Export Plug-In . SVG Version: 6.00 Build 0)  -->
<!DOCTYPE svg PUBLIC "-//W3C//DTD SVG 1.1//EN" "http://www.w3.org/Graphics/SVG/1.1/DTD/svg11.dtd">
<svg version="1.1" id="Layer_1" xmlns="http://www.w3.org/2000/svg" xmlns:xlink="http://www.w3.org/1999/xlink" x="0px" y="0px"
	 viewBox="-467 268 25 25" style="enable-background:new -467 268 25 25;" xml:space="preserve">
<style type="text/css">
	.st0{fill:#111111;}
</style>
<g>
	<path class="st0" d="M-460.3,278c0,0.5,1.2,0.9,2.6,0.9c1.5,0,2.4-0.4,2.6-0.8c0.1-0.1,0.1-0.5,0.1-0.5v-5h-4.8"/>
	<path class="st0" d="M-460.8,278l0.6-5.5h-3.3l-2.1,5.5c0,0.4,1,0.8,2.3,0.8C-461.8,278.8-460.8,278.5-460.8,278z"/>
	<path class="st0" d="M-448.8,278L-448.8,278c0,0.4,1,0.8,2.4,0.8c0.5,0,2.5-0.1,2.4-1c0,0-2.1-5.1-2.2-5.2h-3.3"/>
	<path class="st0" d="M-454.4,278c0,0.5,1,0.9,2.5,0.9c1.5,0,2.6-0.4,2.6-0.9v-0.1l-0.6-5.3h-4.5V278z"/>
	<polygon class="st0" points="-448.4,279.7 -448.4,283.1 -460.8,283.1 -460.8,279.7 -463.3,279.7 -463.3,287.8 -446.1,287.8 
		-446.1,279.7 	"/>
</g>
</svg>
