<?xml version="1.0" encoding="utf-8"?>
<!-- Generator: Adobe Illustrator 19.1.0, SVG Export Plug-In . SVG Version: 6.00 Build 0)  -->
<!DOCTYPE svg PUBLIC "-//W3C//DTD SVG 1.1//EN" "http://www.w3.org/Graphics/SVG/1.1/DTD/svg11.dtd">
<svg version="1.1" id="Layer_1" xmlns="http://www.w3.org/2000/svg" xmlns:xlink="http://www.w3.org/1999/xlink" x="0px" y="0px"
	 viewBox="-7 166 20 20" style="enable-background:new -7 166 20 20;" xml:space="preserve">
<style type="text/css">
	.st0{fill:#111111;}
</style>
<g>
	<path class="st0" d="M3.6,170.2c2.9,0,4.8,1.9,4.8,4.8c0,2.6-1.5,3.9-2.8,3.9c-0.8,0-1.4-0.4-1.5-1.2l0,0c-0.5,0.6-1.2,1.1-1.9,1.1
		c-0.9,0-1.7-0.7-1.7-2.1c0-1.5,1-3.4,2.8-3.4c0.5,0,1,0.2,1.3,0.7l0,0l0.1-0.6h0.5l-0.5,2.9c-0.3,1.4,0,2,0.9,2
		c1,0,2.2-1.2,2.2-3.4c0-2.6-1.6-4.3-4.2-4.3c-2.8,0-5.4,2.4-5.4,6c0,3,1.9,4.8,4.6,4.8c1,0,1.8-0.3,2.5-0.7l0.2,0.5
		c-0.9,0.5-1.8,0.8-2.8,0.8c-2.9,0-5.1-1.9-5.1-5.3C-2.4,172.8,0.4,170.2,3.6,170.2z M2.3,178.3c0.5,0,1-0.3,1.6-1l0.5-2.6
		C4,174.1,3.7,174,3.3,174c-1.4,0-2.2,1.5-2.2,2.8C1.1,177.9,1.6,178.3,2.3,178.3z"/>
</g>
</svg>
