<?xml version="1.0" encoding="utf-8"?>
<!-- Generator: Adobe Illustrator 19.1.0, SVG Export Plug-In . SVG Version: 6.00 Build 0)  -->
<!DOCTYPE svg PUBLIC "-//W3C//DTD SVG 1.1//EN" "http://www.w3.org/Graphics/SVG/1.1/DTD/svg11.dtd">
<svg version="1.1" id="Layer_1" xmlns="http://www.w3.org/2000/svg" xmlns:xlink="http://www.w3.org/1999/xlink" x="0px" y="0px"
	 viewBox="0 -0.5 25 25" style="enable-background:new 0 -0.5 25 25;" xml:space="preserve">
<style type="text/css">
	.st0{fill:#111111;}
</style>
<path class="st0" d="M22.6,14.4h-2c-0.1,0-0.2-0.1-0.2-0.2V9.8c0-0.1,0.1-0.2,0.2-0.2h2c0.1,0,0.2,0.1,0.2,0.2v4.4
	C22.8,14.3,22.7,14.4,22.6,14.4z"/>
<g>
	<path class="st0" d="M21,8c0-0.6-0.4-1-1-1H5C4.4,7,4,7.4,4,8v8c0,0.6,0.4,1,1,1h15c0.6,0,1-0.4,1-1V8z M13.9,14.5l-3.4-2.1
		l-5.2,2.1l5.2-4.7l3.4,2.2l4.6-2L13.9,14.5z"/>
</g>
</svg>
