<?xml version="1.0" encoding="utf-8"?>
<!-- Generator: Adobe Illustrator 19.1.0, SVG Export Plug-In . SVG Version: 6.00 Build 0)  -->
<!DOCTYPE svg PUBLIC "-//W3C//DTD SVG 1.1//EN" "http://www.w3.org/Graphics/SVG/1.1/DTD/svg11.dtd">
<svg version="1.1" id="Layer_1" xmlns="http://www.w3.org/2000/svg" xmlns:xlink="http://www.w3.org/1999/xlink" x="0px" y="0px"
	 viewBox="-467 268 25 25" style="enable-background:new -467 268 25 25;" xml:space="preserve">
<style type="text/css">
	.st0{fill:#111111;}
</style>
<path class="st0" d="M-444.5,287.3c-0.1-0.6-0.2-1.3-0.5-1.8c-0.1-0.3-0.3-0.5-0.6-0.7c-0.3-0.2-0.6-0.3-1-0.3
	c-0.9,0-1.5-0.1-1.8-0.1c-0.1,0-0.1,0-0.2,0c0.1-0.4,0.2-0.9,0.3-1.4h2.8c0.4,0,0.8-0.3,0.8-0.8c0-0.4-0.3-0.8-0.8-0.8h-2.8
	c0-0.5-0.1-1-0.2-1.5c0.2-0.1,0.8-0.2,2-0.2c0.2,0,0.5-0.1,0.7-0.2c0.2-0.1,0.4-0.2,0.5-0.3c0.2-0.2,0.4-0.5,0.5-0.8
	c0.2-0.4,0.3-0.9,0.3-1.4c0.1-0.5,0.1-1,0.1-1.4c0-1.1-0.1-2.1-0.1-2.1c-0.1-0.4-0.4-0.7-0.8-0.7c-0.4,0.1-0.7,0.4-0.7,0.8l0,0l0,0
	c0,0.1,0.1,0.9,0.1,1.9c0,0.4,0,0.7-0.1,1.1c-0.1,0.5-0.2,1-0.3,1.3c-0.1,0.1-0.1,0.2-0.2,0.2c0,0,0,0-0.1,0c-1,0-1.7,0.1-2.1,0.2
	c-0.2,0-0.3,0.1-0.4,0.1c-0.2-0.3-0.4-0.5-0.6-0.8c-0.2-0.2-0.4-0.3-0.6-0.5c0-0.1,0.1-0.1,0.1-0.2c0.3-0.4,0.4-1,0.4-1.5
	c0-0.5-0.2-1-0.4-1.5c-0.2-0.4-0.6-0.8-1-1.1v-2.1c0-0.4-0.3-0.8-0.8-0.8c-0.4,0-0.8,0.3-0.8,0.8v1.3c-0.6-0.2-1.2-0.3-1.8-0.3
	c-0.6,0-1.2,0.1-1.8,0.3v-1.3c0-0.4-0.3-0.8-0.8-0.8c-0.4,0-0.8,0.3-0.8,0.8v2.1c-0.4,0.3-0.7,0.7-1,1.1c-0.3,0.4-0.4,1-0.4,1.5
	c0,0.5,0.2,1,0.4,1.5c0.1,0.1,0.1,0.2,0.2,0.3c-0.2,0.2-0.4,0.3-0.6,0.6c-0.1,0.2-0.2,0.3-0.3,0.5c-0.1,0-0.2-0.1-0.4-0.1
	c-0.4-0.1-1.1-0.2-2.1-0.2c0,0-0.1,0-0.1,0c0,0,0,0-0.1,0c-0.1,0-0.1-0.2-0.2-0.3c-0.1-0.2-0.2-0.6-0.2-1c0-0.4-0.1-0.8-0.1-1.3
	c0-0.5,0-1,0.1-1.3c0-0.2,0-0.3,0-0.4c0,0,0-0.1,0-0.1l0,0l0,0c0.1-0.4-0.2-0.8-0.7-0.8c-0.4-0.1-0.8,0.2-0.8,0.7l0,0
	c0,0-0.1,1-0.1,2.1c0,0.4,0,0.8,0.1,1.3c0.1,0.6,0.2,1.3,0.5,1.8c0.1,0.3,0.3,0.5,0.6,0.7c0.3,0.2,0.6,0.3,1,0.3
	c0.9,0,1.5,0.1,1.8,0.1c0,0-0.1,1-0.1,1.5h-3.9c-0.4,0-0.8,0.3-0.8,0.8c0,0.4,0.3,0.8,0.8,0.8h3.8c0,0.5,0.1,0.9,0.3,1.4
	c-0.3,0.1-0.8,0.2-1.9,0.2c-0.2,0-0.5,0.1-0.7,0.2c-0.2,0.1-0.4,0.2-0.5,0.3c-0.2,0.2-0.4,0.5-0.5,0.8c-0.2,0.4-0.3,0.9-0.3,1.4
	c-0.1,0.5-0.1,1-0.1,1.4c0,1.1,0.1,2.1,0.1,2.1c0.1,0.4,0.4,0.7,0.8,0.7c0.4-0.1,0.7-0.4,0.7-0.8h0l0,0c0-0.1-0.1-0.9-0.1-1.9
	c0-0.4,0-0.7,0.1-1.1c0.1-0.5,0.2-1,0.3-1.3c0.1-0.1,0.1-0.2,0.2-0.2c0,0,0,0,0.1,0c1,0,1.7-0.1,2.1-0.2c0.2,0,0.3-0.1,0.4-0.1
	c0.5,0.9,1.2,1.8,2,2.5c0.5,0.4,1,0.7,1.5,1c0.5,0.2,1.1,0.4,1.6,0.4c0.7,0,1.4-0.3,2.1-0.7c1-0.6,1.9-1.5,2.7-2.6
	c0.1-0.2,0.2-0.4,0.3-0.6c0.1,0,0.3,0.1,0.5,0.1c0.4,0.1,1.1,0.2,2.1,0.2c0,0,0.1,0,0.1,0c0,0,0,0,0.1,0c0.1,0,0.1,0.2,0.2,0.3
	c0.1,0.2,0.2,0.6,0.2,1c0,0.4,0.1,0.8,0.1,1.3c0,0.5,0,1-0.1,1.3c0,0.2,0,0.3,0,0.4c0,0,0,0.1,0,0.1l0,0l0,0
	c-0.1,0.4,0.2,0.8,0.7,0.8s0.8-0.2,0.8-0.7h0c0,0,0.1-1,0.1-2.1C-444.4,288.1-444.4,287.7-444.5,287.3z M-457.4,274.8
	c0.2-0.4,0.6-0.7,1.1-1c0.5-0.3,1.2-0.4,1.9-0.4c0.9,0,1.8,0.3,2.3,0.7c0.3,0.2,0.5,0.4,0.6,0.7c0.1,0.2,0.2,0.5,0.2,0.7
	c0,0.3-0.1,0.5-0.2,0.7c-0.1,0.1-0.2,0.3-0.3,0.4c-0.2,0.2-0.5,0.4-0.8,0.6c-0.1,0-0.1,0-0.2,0.1c-0.5,0.2-1.1,0.3-1.7,0.3
	c-0.6,0-1.2-0.1-1.7-0.3c-0.2-0.1-0.5-0.2-0.7-0.4c-0.1-0.1-0.2-0.2-0.3-0.2c-0.1-0.1-0.3-0.3-0.4-0.4c-0.1-0.2-0.2-0.5-0.2-0.7
	C-457.6,275.3-457.6,275.1-457.4,274.8z M-450.2,284.4c-0.4,1-1.2,1.9-2,2.5c-0.4,0.3-0.8,0.6-1.2,0.8c-0.4,0.2-0.7,0.2-0.9,0.2
	c-0.4,0-0.9-0.1-1.4-0.5c-0.8-0.5-1.6-1.2-2.2-2.1c-0.6-0.9-0.9-1.9-0.9-2.8c0-1.2,0.1-2.1,0.3-2.7c0.1-0.5,0.3-0.8,0.5-1
	c0.1-0.2,0.3-0.3,0.5-0.4c0,0,0,0,0,0c0.1,0.1,0.2,0.1,0.4,0.2c0.7,0.4,1.6,0.6,2.5,0.6c1.1,0,2.2-0.3,3-0.8c0.1,0,0.2,0.1,0.2,0.1
	c0.2,0.1,0.4,0.2,0.6,0.4c0.3,0.3,0.5,0.6,0.6,1.2c0.2,0.6,0.3,1.4,0.3,2.5C-449.7,283.1-449.9,283.7-450.2,284.4z"/>
</svg>
