<?xml version="1.0" encoding="utf-8"?>
<!-- Generator: Adobe Illustrator 19.2.1, SVG Export Plug-In . SVG Version: 6.00 Build 0)  -->
<svg version="1.1" id="Layer_1" xmlns="http://www.w3.org/2000/svg" xmlns:xlink="http://www.w3.org/1999/xlink" x="0px" y="0px"
	 viewBox="0 0 40 40" style="enable-background:new 0 0 40 40;" xml:space="preserve">
<g>
	<path d="M29.9,34.3c0,0.2,0,0.3-0.2,0.5c-0.1,0.1-0.2,0.2-0.4,0.2l-22,0c-0.2,0-0.3-0.1-0.4-0.2c-0.1-0.1-0.2-0.3-0.2-0.5V7.1
		c0-0.2,0-0.4,0.2-0.5C6.9,6.4,7,6.3,7.2,6.3h2.3v2.5H27V6.3h2.2c0.2,0,0.3,0.1,0.5,0.2c0.1,0.1,0.2,0.3,0.2,0.5v10.6h2.1V7.1
		c0-0.7-0.3-1.4-0.8-1.9c-0.5-0.5-1.2-0.8-1.9-0.8h-4.9V3c0-0.5-0.3-1-0.7-1H12.8c-0.4,0-0.6,0.5-0.6,1v1.5h-5
		c-0.7,0-1.4,0.3-1.9,0.8C4.9,5.7,4.6,6.3,4.6,7.1v27.2c0,0.7,0.3,1.4,0.8,1.9C5.8,36.7,6.5,37,7.2,37h22l0,0c0.6,0,1.4-0.3,1.9-0.8
		c0.5-0.5,0.8-1.1,0.8-1.9v-8.4h-2.1V34.3z"/>
	<path d="M26.8,13.5c0-0.6-0.4-1-1-1H10.5c-0.6,0-1,0.4-1,1V14c0,0.6,0.4,1,1,1h15.3c0.6,0,1-0.4,1-1V13.5z"/>
	<path d="M9.5,21.6V22c0,0.5,0.5,1,1,1h6.2v-2.5h-6.2C10,20.5,9.5,21,9.5,21.6z"/>
	<path d="M26.8,29.6c0-0.6-0.4-1-1-1H10.5c-0.6,0-1,0.4-1,1V30c0,0.6,0.4,1,1,1h15.3c0.6,0,1-0.4,1-1V29.6z"/>
	<path d="M23.9,19.5v-2.6l-5.7,4.8l5.7,4.8V24h12.6v-2.2v-2.3H23.9z"/>
</g>
</svg>
