<svg xmlns="http://www.w3.org/2000/svg" xmlns:xlink="http://www.w3.org/1999/xlink" version="1.1" x="0px" y="0px" width="100px" height="100px" viewBox="0 0 100 100" enable-background="new 0 0 100 100" xml:space="preserve">
<g id="Captions">
</g>
<g id="Layer_7" display="none">
	<path display="inline" d="M14.064,38.02v24.115c4.91,0,8.881,3.936,8.967,8.828h53.936c0.088-4.893,4.061-8.828,8.969-8.828V38.02   c-4.963,0-8.98-4.016-8.98-8.982H23.047C23.047,34.004,19.029,38.02,14.064,38.02z"/>
</g>
<g id="Your_Icon" display="none">
	<path display="inline" d="M67.992,18.838h-35.98L14.018,50.001l17.994,31.161h35.98l17.99-31.161L67.992,18.838z M49.85,64.994   c-8.281,0-14.992-6.715-14.992-14.993c0-8.279,6.711-14.993,14.992-14.993c8.279,0,14.992,6.714,14.992,14.993   C64.842,58.279,58.129,64.994,49.85,64.994z"/>
</g>
<g id="Layer_6" display="none">
	<path display="inline" d="M24.646,65.857c-4.773,0-9.398,2.682-9.914,2.989l2.902,4.851c0.035-0.021,3.754-2.188,7.012-2.188   c1.387,0,2.096,0.392,3.162,0.991c1.285,0.711,2.879,1.601,5.42,1.601c2.572,0,4.131-0.94,5.275-1.63   c0.998-0.596,1.602-0.962,3.07-0.962c1.504,0,2.201,0.396,3.256,0.997c1.244,0.709,2.791,1.595,5.326,1.595   c2.623,0,4.367-0.94,5.77-1.688c1.105-0.596,1.721-0.903,2.572-0.903c0.814,0,1.355,0.272,2.41,0.848   c1.357,0.735,3.219,1.744,6.115,1.744c2.904,0,4.75-1.013,6.1-1.752c1.033-0.567,1.566-0.84,2.367-0.84   c1.916,0,5.471,1.412,7.266,2.298l2.512-5.065c-0.594-0.296-5.921-2.884-9.777-2.884c-2.285,0-3.838,0.85-5.086,1.536   c-0.412,0.223-0.785,0.415-1.158,0.581c0.737-12.915,8.17-26.257,8.17-26.257l-6.881-2.14V22.12H58.34v-5.639H41.855v5.639H29.658   v17.458l-6.879,2.14c0,0,7.367,13.072,8.162,26.05c-0.121-0.069-0.242-0.132-0.379-0.207C29.27,66.841,27.5,65.857,24.646,65.857z    M36.02,27.769h28.158v9.841l-14.08-4.371L36.02,37.609V27.769z"/>
	<path display="inline" d="M70.404,76.813c-1.115,0.609-1.924,1.054-3.381,1.054c-1.461,0-2.287-0.444-3.424-1.063   c-1.258-0.684-2.822-1.526-5.102-1.526c-2.312,0-3.938,0.87-5.242,1.567c-1.1,0.596-1.898,1.022-3.1,1.022   c-1.041,0-1.568-0.304-2.529-0.85c-1.287-0.735-3.053-1.74-6.053-1.74c-3.037,0-4.74,1.023-5.984,1.771   c-0.904,0.546-1.357,0.818-2.361,0.818c-1.074,0-1.674-0.333-2.666-0.886c-1.293-0.723-3.062-1.704-5.916-1.704   c-4.773,0-9.398,2.684-9.914,2.989l2.902,4.853c0.035-0.023,3.754-2.19,7.012-2.19c1.387,0,2.096,0.397,3.162,0.989   c1.285,0.713,2.879,1.601,5.42,1.601c2.572,0,4.131-0.937,5.275-1.626c0.998-0.6,1.602-0.964,3.07-0.964   c1.504,0,2.201,0.399,3.256,0.997c1.244,0.709,2.791,1.593,5.326,1.593c2.623,0,4.367-0.937,5.77-1.688   c1.105-0.592,1.721-0.901,2.572-0.901c0.814,0,1.355,0.271,2.41,0.847c1.357,0.736,3.219,1.743,6.115,1.743   c2.904,0,4.75-1.011,6.1-1.751c1.033-0.568,1.566-0.839,2.367-0.839c1.916,0,5.471,1.409,7.266,2.296l2.512-5.062   c-0.594-0.296-5.921-2.886-9.777-2.886C73.205,75.277,71.652,76.124,70.404,76.813z"/>
</g>
<g id="Layer_5" display="none">
	<path display="inline" d="M50,26.014c13.227,0,23.989,10.758,23.989,23.986S63.227,73.987,50,73.987   c-13.228,0-23.99-10.759-23.99-23.987S36.772,26.014,50,26.014 M50,14.018c-19.873,0-35.98,16.109-35.98,35.982   S30.127,85.982,50,85.982S85.98,69.873,85.98,50S69.873,14.018,50,14.018L50,14.018z"/>
</g>
<g id="Layer_4">
	<polygon points="66.498,16.166 83.459,33.127 66.498,50.089 83.459,67.05 66.498,84.014 49.535,67.05 32.573,84.014 15.611,67.05    32.573,50.089 15.611,33.127 32.573,16.166 49.535,33.127  "/>
</g>
</svg>