<svg xmlns="http://www.w3.org/2000/svg" xmlns:xlink="http://www.w3.org/1999/xlink" version="1.1" x="0px" y="0px" width="100px" height="100px" viewBox="0 0 100 100" enable-background="new 0 0 100 100" xml:space="preserve">
<g id="Captions">
</g>
<g id="Layer_7" display="none">
</g>
<g id="Your_Icon" display="none">
	<path display="inline" d="M49.998,14.018c-19.873,0-35.98,16.109-35.98,35.982s16.107,35.982,35.98,35.982S85.982,69.873,85.982,50   S69.871,14.018,49.998,14.018z M73.987,50c0,4.535-1.288,8.766-3.487,12.391L37.608,29.498c3.621-2.197,7.852-3.484,12.39-3.484   C63.226,26.014,73.987,36.771,73.987,50z M26.013,50c0-4.344,1.175-8.412,3.205-11.934l32.715,32.715   c-3.518,2.027-7.588,3.205-11.935,3.205C36.771,73.986,26.013,63.229,26.013,50z"/>
</g>
<g id="Layer_6" display="none">
	<polygon display="inline" points="64.233,14.998 60.503,14.998 56.765,14.998 56.765,52.798 60.503,53.73 60.503,85.937    67.967,85.937 67.967,14.998  "/>
	<polygon display="inline" points="44.385,34.027 41.642,34.027 41.642,14.063 38.336,14.063 38.336,34.027 35.152,34.027    35.152,14.063 32.033,14.063 32.033,32.033 32.033,36 32.033,42.065 36.234,44.479 36.234,85.937 43.703,85.937 43.703,44.479    47.897,42.065 47.897,36 47.897,32.033 47.897,14.063 44.385,14.063  "/>
</g>
<g id="Layer_5" display="none">
	<polygon display="inline" points="55.994,14.018 20.015,14.018 20.015,85.982 79.985,85.982 79.985,38.049 55.994,38.049  "/>
	<polygon display="inline" points="61.996,14.018 61.996,32.055 79.985,32.055  "/>
</g>
<g id="Layer_4">
	<polygon points="73.988,73.988 26.012,73.988 26.012,26.014 48,26.014 59.995,14.018 14.018,14.018 14.018,85.982 85.982,85.982    85.982,40.008 73.988,52  "/>
	<rect x="37.246" y="27.63" transform="matrix(-0.7071 0.7071 -0.7071 -0.7071 131.8579 23.0947)" width="47.799" height="22.451"/>
	<polygon points="32.009,52.121 32.051,67.947 47.882,67.992 47.951,67.93 32.076,52.053  "/>
</g>
</svg>