<?xml version="1.0" encoding="utf-8"?>
<!-- Generator: Adobe Illustrator 19.1.0, SVG Export Plug-In . SVG Version: 6.00 Build 0)  -->
<!DOCTYPE svg PUBLIC "-//W3C//DTD SVG 1.1//EN" "http://www.w3.org/Graphics/SVG/1.1/DTD/svg11.dtd">
<svg version="1.1" id="Layer_1" xmlns="http://www.w3.org/2000/svg" xmlns:xlink="http://www.w3.org/1999/xlink" x="0px" y="0px"
	 viewBox="-7 166 20 20" style="enable-background:new -7 166 20 20;" xml:space="preserve">
<style type="text/css">
	.st0{fill:#111111;}
</style>
<g>
	<path class="st0" d="M9,173.3c0-1-0.4-1.8-1-2.5c0.1-0.2,0.4-1.2-0.1-2.5c0,0-0.8-0.2-2.6,1c-0.6-0.2-1.4-0.3-2.2-0.3
		c-0.8,0-1.6,0.1-2.3,0.3c-1.8-1.2-2.6-1-2.6-1c-0.5,1.3-0.2,2.2-0.1,2.5c-0.6,0.6-1,1.5-1,2.5c0,3.3,1.8,4.2,3.7,4.5
		c0.1,0,0.2,0,0.3,0c-0.1,0.2-0.2,0.5-0.3,0.9c-0.5,0.2-1.7,0.6-2.4-0.7c0,0-0.4-0.8-1.3-0.8c0,0-0.8,0-0.1,0.5c0,0,0.5,0.3,0.9,1.2
		c0,0,0.4,1.5,2.5,1.2c0.1,0,0.2,0,0.3-0.1l0,0c0,0.7,0,1.2,0,1.4c0,0.1,0,0.7-0.1,1.2l0,0c-0.2,0.2-0.5,0.3-0.6,0.4s0,0.2,0.1,0.3
		c0,0,0.1,0,0.2,0c0.2,0,0.4,0,0.7-0.2c0.5-0.2,0.6-0.6,0.6-1c0-0.4,0-2.2,0-2.2s0-0.4,0.1-0.6c0.3-0.2,0.3-0.2,0.4-0.2l0,0v4
		c0,0,0,0.2-0.1,0.4c0,0-0.1,0.1-0.2,0.2c-0.1,0.1-0.2,0.1-0.2,0.2c0,0.2,0.1,0.3,0.4,0.2c0.2,0,0.5-0.2,0.8-0.4l0.1-0.1
		c0.2-0.3,0.2-0.5,0.2-0.7c0-0.1,0-3.9,0-3.9s0-0.1,0.1-0.1s0.1,0.1,0.1,0.1s0,3.8,0,3.9c0,0.1,0,0.4,0.2,0.7c0,0,0,0,0,0.1
		c0.2,0.3,0.5,0.4,0.8,0.4s0.4-0.1,0.4-0.2c0-0.1-0.2-0.2-0.3-0.3l-0.1-0.1c-0.1-0.1-0.1-0.4-0.1-0.4V179l0,0c0,0,0.1,0.1,0.2,0.3
		c0.1,0.3,0.1,0.6,0.1,0.6s0,1.8,0,2.2c0,0.3,0.1,0.6,0.4,0.8c0.1,0.1,0.2,0.1,0.3,0.2c0.5,0.2,0.8,0.2,0.9,0.1
		c0.1,0,0.2-0.2,0.1-0.3c-0.1-0.1-0.3-0.2-0.6-0.5c-0.1-0.2-0.1-0.6-0.1-0.6s0-2.4,0-2.6c0-0.4-0.2-0.9-0.2-0.9S5.1,178,5,177.8
		l-0.1-0.1C7.1,177.5,9,176.6,9,173.3z"/>
</g>
</svg>
