<?xml version="1.0" encoding="utf-8"?>
<!-- Generator: Adobe Illustrator 19.1.0, SVG Export Plug-In . SVG Version: 6.00 Build 0)  -->
<!DOCTYPE svg PUBLIC "-//W3C//DTD SVG 1.1//EN" "http://www.w3.org/Graphics/SVG/1.1/DTD/svg11.dtd">
<svg version="1.1" id="Layer_1" xmlns="http://www.w3.org/2000/svg" xmlns:xlink="http://www.w3.org/1999/xlink" x="0px" y="0px"
	 viewBox="-7 166 20 20" style="enable-background:new -7 166 20 20;" xml:space="preserve">
<style type="text/css">
	.st0{fill:#111111;}
</style>
<g>
	<path id="Google_1_" class="st0" d="M6,168.9H2c-1.1,0-2.4,0.2-3.5,1.1c-0.8,0.7-1.3,1.7-1.3,2.6c0,1.5,1.2,3.1,3.2,3.1
		c0.2,0,0.4,0,0.6,0c0,0.2-0.1,0.4-0.1,0.7c0,0.6,0.3,1,0.6,1.3c-0.9,0.1-2.5,0.2-3.7,0.9c-1.1,0.7-1.5,1.7-1.5,2.4
		c0,1.4,1.4,2.8,4.2,2.8c3.4,0,5.1-1.8,5.1-3.7c0-1.3-0.8-2-1.6-2.7l-0.7-0.5c-0.3-0.3-0.6-0.5-0.6-0.9s0.3-0.7,0.5-1
		c0.8-0.6,1.6-1.3,1.6-2.8s-0.9-2.3-1.4-2.6h1.2L6,168.9z M4.3,180.8c0,1.2-1.3,2-3.1,2c-2.2,0-3.2-0.8-3.2-2.2c0-1.4,1.2-1.8,1.7-2
		c0.8-0.3,1.9-0.3,2-0.3c0.2,0,0.3,0,0.4,0C3.6,179.3,4.3,179.9,4.3,180.8z M2.7,174.6c-0.3,0.3-0.8,0.5-1.3,0.5
		c-1.7,0-2.4-2.1-2.4-3.4c0-0.5,0.1-1,0.4-1.4c0.3-0.4,0.9-0.6,1.4-0.6c1.6,0,2.5,2.2,2.5,3.6C3.2,173.5,3.2,174.1,2.7,174.6z"/>
	<rect x="8.2" y="173.8" class="st0" width="0.9" height="4.3"/>
	<rect x="6.6" y="175.5" class="st0" width="4.2" height="0.9"/>
</g>
</svg>
