<svg xmlns="http://www.w3.org/2000/svg" xmlns:xlink="http://www.w3.org/1999/xlink" version="1.1" id="Icon" x="0px" y="0px" width="100px" height="100px" viewBox="5.0 -10.0 100.0 135.0" enable-background="new 0 0 100 100" xml:space="preserve">
<path fill-rule="evenodd" clip-rule="evenodd" fill="#111111" d="M85.718,53.723c-1.73,0-8.447,0-17.117,0c0,0-2.14,0.18-2.14,3.565  l-0.031-0.079c-0.335,8.764-7.525,15.769-16.371,15.769c-8.845,0-16.036-7.005-16.372-15.769l-0.032,0.079  c0-3.386-2.139-3.565-2.139-3.565c-8.67,0-15.387,0-17.116,0c-5.706,0-3.566-4.992-3.566-4.992l8.558-31.379  c0,0,0.713-2.854,3.565-2.854h54.915c2.854,0,3.565,2.794,3.565,2.794l7.846,31.32C89.283,48.612,91.422,53.723,85.718,53.723z   M17.966,8.08H82.15c1.971,0,4.279,1.427,4.992,3.566l11.412,40.651v36.37c0,1.971-1.598,3.568-3.567,3.568H5.128  c-1.969,0-3.566-1.598-3.566-3.568v-36.37l11.411-40.651C13.687,9.507,15.996,8.08,17.966,8.08z"/>
</svg>
