<?xml version="1.0" encoding="utf-8"?>
<!-- Generator: Adobe Illustrator 18.1.1, SVG Export Plug-In . SVG Version: 6.00 Build 0)  -->
<!DOCTYPE svg PUBLIC "-//W3C//DTD SVG 1.1//EN" "http://www.w3.org/Graphics/SVG/1.1/DTD/svg11.dtd">
<svg version="1.1" id="Layer_1" xmlns="http://www.w3.org/2000/svg" xmlns:xlink="http://www.w3.org/1999/xlink" x="0px" y="0px"
	 viewBox="0 0 25 25" style="enable-background:new 0 0 25 25;" xml:space="preserve">
<path style="fill:#111111;" d="M20.1,4.5L20.1,4.5c-1.4-1.4-3.2-2.2-4.9-2.2c-0.6,0-1.2,0.1-1.8,0.3c-0.6,0.2-1.1,0.6-1.6,1
	c-0.5,0.4-0.8,1-1,1.6c-0.2,0.6-0.3,1.2-0.3,1.8c0,1.5,0.6,3,1.6,4.2L3.4,20c-0.4,0.4-0.4,1,0,1.4c0.4,0.4,1,0.4,1.4,0L5.2,21
	l2.1,2.1l3.7-3.8l-2.1-2.1l4.7-4.7c1.2,0.9,2.7,1.5,4.1,1.5c0.6,0,1.2-0.1,1.8-0.3c0.6-0.2,1.1-0.6,1.6-1c0.5-0.5,0.8-1,1-1.6
	c0.2-0.6,0.3-1.2,0.3-1.8C22.3,7.7,21.5,5.9,20.1,4.5z M20.1,10.5c-0.1,0.3-0.3,0.6-0.5,0.8c-0.2,0.2-0.5,0.4-0.8,0.5
	c-0.3,0.1-0.7,0.2-1.1,0.2c-1.1,0-2.4-0.5-3.5-1.6c-1.1-1.1-1.6-2.4-1.6-3.5c0-0.4,0.1-0.8,0.2-1.1c0.1-0.3,0.3-0.6,0.5-0.8
	c0.2-0.2,0.5-0.4,0.8-0.5c0.3-0.1,0.7-0.2,1.1-0.2c1.1,0,2.4,0.5,3.5,1.6c1.1,1.1,1.6,2.4,1.6,3.5C20.3,9.8,20.2,10.2,20.1,10.5z"/>
</svg>
