<?xml version="1.0" encoding="utf-8"?>
<!-- Generator: Adobe Illustrator 19.1.0, SVG Export Plug-In . SVG Version: 6.00 Build 0)  -->
<!DOCTYPE svg PUBLIC "-//W3C//DTD SVG 1.1//EN" "http://www.w3.org/Graphics/SVG/1.1/DTD/svg11.dtd">
<svg version="1.1" id="Layer_1" xmlns="http://www.w3.org/2000/svg" xmlns:xlink="http://www.w3.org/1999/xlink" x="0px" y="0px"
	 viewBox="-469 271 20 20" style="enable-background:new -469 271 20 20;" xml:space="preserve">
<style type="text/css">
	.st0{fill:#111111;}
</style>
<g>
	<path class="st0" d="M-454.9,277.7c-0.1-0.1-0.2-0.5-0.3-0.6c0,0,0-0.1-0.1-0.2c0,0,0-0.1,0-0.1c0-0.1,0-0.1-0.1-0.2
		c0-0.1-0.1-0.3-0.1-0.4c-0.1-0.2-0.2-0.5-0.3-0.7c-0.1-0.2-0.2-0.4-0.3-0.6c-0.2-0.2-0.4-0.4-0.7-0.4c-0.1,0-0.3,0.1-0.3,0.2
		c-0.1,0.1-0.2,0.3-0.3,0.4c-0.1,0.1-0.2,0.3-0.3,0.4c-0.1,0.1-0.2,0.1-0.3,0.1c-0.1,0-0.3-0.2-0.4-0.3c-0.1-0.1-0.3-0.3-0.4-0.3
		c-0.2-0.1-0.3-0.1-0.5,0c-0.2,0.1-0.3,0.4-0.3,0.6c0-0.1,0-0.2,0,0c-0.1,0.6-0.2,1.3-0.4,1.9c0,0,0,0,0,0c-0.1,0.2-0.3,0.6-0.3,0.7
		c0,0,0,0,0,0c0,0.1-0.2,0.2-0.4,0.3c-0.3,0-1.2,0.9,2.5,0.9c3.2,0,3.5-1.1,3.6-1.5C-454.7,277.8-454.7,277.8-454.9,277.7
		C-454.8,277.7-454.9,277.7-454.9,277.7z"/>
	<path class="st0" d="M-456.8,283.9c-0.4,0-0.8,0.2-1.1,0.3c-0.5,0.2-0.9,0.4-1.4,0.5c-0.5,0.1-1,0.2-1.5,0.2c0,0-0.1,0-0.2,0
		c0,0,0,0,0,0c0,0-0.1,0.1-0.1,0.2c0,0-0.2,0.2-0.2,0.2c0.3,0.2,0.6,0.3,1,0.3c0.7,0.1,1.5,0.1,2.2-0.1c0.4-0.1,0.7-0.2,1.1-0.4
		c0.2-0.1,0.3-0.2,0.5-0.3c0.1-0.1,0.3-0.3,0.3-0.4c0.1-0.2,0.1-0.3-0.1-0.5C-456.5,283.9-456.6,283.9-456.8,283.9z"/>
	<path class="st0" d="M-450.7,279.7c-0.1-0.7-0.3-1.4-0.6-2c-0.4-1-1-1.9-1.8-2.6c-1.5-1.5-3.6-2.3-5.7-2.3c-4.5,0-8.2,3.7-8.2,8.2
		c0,0,0,0.1,0,0.1c-0.1,0-0.1,0-0.2,0c-0.1,0-0.3,0-0.4,0.1c-0.2,0.1-0.3,0.3-0.3,0.5c0,0.6,0.5,1.2,0.9,1.5
		c0.1,0.1,0.2,0.1,0.2,0.1c1,3.4,4.2,5.9,7.9,5.9c2.3,0,4.4-0.9,6-2.6c1.5-1.6,2.4-3.9,2.3-6.1C-450.7,280.3-450.7,280-450.7,279.7z
		 M-466.6,281.5c0,0-0.1,0-0.2,0c-0.2,0-0.4,0.1-0.6,0.3c-0.1-0.1-0.1-0.3,0.1-0.4c0.1-0.1,0.3-0.1,0.5,0c0.1,0,0.2,0,0.3,0.1
		C-466.6,281.4-466.6,281.5-466.6,281.5z M-452.7,281.7c-0.2,0.8-0.7,1.5-1.2,2.1c-0.3,0.3-0.5,0.6-0.8,0.9
		c-0.3,0.2-0.5,0.5-0.8,0.7c-0.6,0.4-1,1.1-1,1.8c0,0,0,0.1,0,0.1c0,0-0.1,0-0.1,0c-0.2,0-0.4,0-0.6,0.1c-0.4,0-0.8,0-1.3,0
		c-0.6,0-1.3-0.1-1.9-0.4c-0.3-0.1-0.6-0.3-0.8-0.5c-0.2-0.2-0.3-0.3-0.4-0.6c0-0.1,0-0.1,0-0.2c0-0.2,0.2-0.3,0.3-0.4
		c0.1-0.1,0.1-0.2,0.2-0.2c0,0,0.1-0.1,0.1-0.2c0,0-0.2,0-0.3,0c-0.1,0-0.2,0-0.3,0c-0.9-0.1-1.7-0.4-2.5-0.8
		c-0.4-0.2-0.8-0.4-1.1-0.6c-0.1-0.1-0.2-0.1-0.2-0.2c0,0-0.1-0.1-0.1-0.1c0,0,0-0.1,0-0.1c0,0,0-0.1,0-0.1c0-0.1,0-0.1,0-0.2
		c0.1-0.4,0.1-0.7,0-1.1c0-0.1,0-0.1-0.1-0.2c0,0-0.1-0.1-0.1-0.1c0,0,0.1-0.1,0.1-0.1c0,0,0.1-0.1,0.1-0.1c0.2-0.1,0.4-0.3,0.5-0.4
		c0,0.1,0,0.2,0,0.4c0.1,0.5,0.3,0.9,0.8,1.1c0.4,0.2,1,0.2,1.5,0.1c0.7-0.1,1.4-0.5,1.8-1.1c0-0.1,0.1-0.1,0.1-0.2c0,0,0-0.1,0-0.1
		c0,0,0,0,0,0c0,0,0.1,0,0.1,0c0,0,0.1,0,0.1,0c0,0,0,0,0.1,0c0,0,0,0.1,0,0.1c0,0.1,0.1,0.3,0.1,0.4c0.2,0.4,0.4,0.8,0.8,1.1
		c0.4,0.3,0.8,0.5,1.3,0.6c0.5,0.2,1.1,0.2,1.5-0.2c0.4-0.4,0.6-0.9,0.7-1.4c0-0.1,0-0.1,0-0.2c0,0,0-0.1,0-0.1c0,0,0.1,0,0.2,0
		c0.1,0,0.2,0,0.3,0c0.1,0,0.2,0,0.4,0c0.5,0,1,0,1.6-0.1c0.3,0,0.6,0,1,0C-452.6,281.4-452.7,281.5-452.7,281.7z M-452.7,280.1
		c-0.6,0-1.3,0.1-1.9,0.1c-0.4,0-0.7,0.1-1.1,0.1c-0.1,0-0.2,0-0.3,0c-0.6-0.1-1.2-0.2-1.7-0.2c-0.7-0.1-1.4-0.2-2.1-0.3
		c-0.4,0-0.7-0.1-1.1-0.2c-0.6-0.1-1.2-0.2-1.9-0.3c0.1-0.1,0.2-0.1,0.3-0.2c0.1,0,0.2-0.1,0.2-0.2c0.1-0.2,0.2-0.4,0.3-0.6
		c0.2-0.4,0.3-0.9,0.5-1.3c0.1-0.2,0.2-0.4,0.3-0.6c0.1-0.1,0.1-0.1,0.2-0.1c0.1,0,0.1,0.1,0.2,0.2c0.1,0.3,0.2,0.6,0.3,0.9
		c0.1-0.1,0.1-0.2,0.2-0.4c0.2-0.5,0.3-1,0.4-1.5c0-0.2,0.1-0.4,0.1-0.6c0-0.1,0-0.3,0.1-0.4c0-0.2,0.2-0.4,0.4-0.5
		c0.2-0.1,0.4,0,0.5,0.1c0.2,0.1,0.3,0.2,0.4,0.3c0.1,0.1,0.2,0.2,0.4,0.3c0.3,0.1,0.5-0.2,0.6-0.4c0.2-0.2,0.4-0.6,0.7-0.7
		c0.2-0.1,0.5,0,0.7,0.2c0.1,0.1,0.2,0.3,0.3,0.4c0.1,0.2,0.2,0.4,0.3,0.7c0.2,0.4,0.3,0.9,0.5,1.3c0.1,0.2,0.1,0.3,0.2,0.5
		c0,0.1,0,0.2,0.1,0.2c0,0.1,0.2,0.1,0.2,0.2c0.1-0.2,0.2-0.4,0.3-0.6c0.1-0.1,0.2-0.3,0.3-0.3c0.2,0.1,0.2,0.4,0.3,0.5
		c0.1,0.3,0.1,0.7,0.2,1c0,0.2,0,0.4,0.1,0.5c0.1,0.2,0.2,0.3,0.3,0.5c0.1,0.2,0.2,0.3,0.3,0.5c0.1,0.2,0.1,0.4,0.1,0.6
		C-452.6,280.1-452.7,280.1-452.7,280.1z"/>
</g>
</svg>
