<?xml version="1.0" encoding="utf-8"?>
<!-- Generator: Adobe Illustrator 19.2.1, SVG Export Plug-In . SVG Version: 6.00 Build 0)  -->
<svg version="1.1" id="Layer_1" xmlns="http://www.w3.org/2000/svg" xmlns:xlink="http://www.w3.org/1999/xlink" x="0px" y="0px"
	 viewBox="0 0 25 25" style="enable-background:new 0 0 25 25;" xml:space="preserve">
<style type="text/css">
	.st0{fill:none;}
	.st1{fill:#111111;}
</style>
<g>
	<polygon class="st0" points="21.7,12 18.1,12 18.1,14.9 21.7,14.9 21.7,12 	"/>
	<polygon class="st0" points="14.9,16.1 13.3,16.1 13.3,19 16.8,19 16.8,16.1 14.9,16.1 	"/>
	<polygon class="st0" points="16.1,21.2 15.8,21.2 15.8,25 19.3,25 19.3,21.2 16.1,21.2 	"/>
	<polygon class="st0" points="21.7,16.1 18.1,16.1 18.1,19 21.7,19 21.7,16.1 	"/>
	<path class="st0" d="M12,23.8V10.7h2.9V1.4H4.1V25H12V23.8L12,23.8z M10.2,2.6h3.6v2.9h-3.6V2.6L10.2,2.6z M9,9.6H5.4V6.7H9V9.6
		L9,9.6z M9,5.5H5.4V2.6H9V5.5L9,5.5z M10.2,6.7h3.6v2.9h-3.6V6.7L10.2,6.7z"/>
	<polygon class="st0" points="13.3,12 13.3,14.9 16.8,14.9 16.8,12 13.3,12 	"/>
	<polygon class="st1" points="5.4,5.5 9,5.5 9,2.6 5.4,2.6 5.4,5.5 	"/>
	<polygon class="st1" points="13.8,2.6 10.2,2.6 10.2,5.5 13.8,5.5 13.8,2.6 	"/>
	<polygon class="st1" points="5.4,9.6 9,9.6 9,6.7 5.4,6.7 5.4,9.6 	"/>
	<polygon class="st1" points="13.8,6.7 10.2,6.7 10.2,9.6 13.8,9.6 13.8,6.7 	"/>
	<path class="st1" d="M4.1,1.4h10.8v9.3H12V25h3.8v-3.8h3.6V25H23V10.7h-7V0.2H3V25h1.1V1.4z M16.8,19h-3.6v-2.9h3.6V19L16.8,19z
		 M18.1,12h3.6v2.9h-3.6V12L18.1,12z M18.1,16.1h3.6V19h-3.6V16.1L18.1,16.1z M16.8,12v2.9h-3.6V12H16.8L16.8,12z"/>
</g>
</svg>
