<?xml version="1.0" encoding="utf-8"?>
<!-- Generator: Adobe Illustrator 19.2.1, SVG Export Plug-In . SVG Version: 6.00 Build 0)  -->
<svg version="1.1" id="Layer_1" xmlns="http://www.w3.org/2000/svg" xmlns:xlink="http://www.w3.org/1999/xlink" x="0px" y="0px"
	 viewBox="0 0 25 25" style="enable-background:new 0 0 25 25;" xml:space="preserve">
<style type="text/css">
	.st1{fill:#111111;}
</style>
<g>
	<polygon class="st1" points="5.4,5.5 9,5.5 9,2.6 5.4,2.6 5.4,5.5 	"/>
	<polygon class="st1" points="13.8,2.6 10.2,2.6 10.2,5.5 13.8,5.5 13.8,2.6 	"/>
	<polygon class="st1" points="5.4,9.6 9,9.6 9,6.7 5.4,6.7 5.4,9.6 	"/>
	<polygon class="st1" points="13.8,6.7 10.2,6.7 10.2,9.6 13.8,9.6 13.8,6.7 	"/>
	<path class="st1" d="M4.1,1.4h10.8v9.3H12V25h3.8v-3.8h3.6V25H23V10.7h-7V0.2H3V25h1.1V1.4z M16.8,19h-3.6v-2.9h3.6V19L16.8,19z
		 M18.1,12h3.6v2.9h-3.6V12L18.1,12z M18.1,16.1h3.6V19h-3.6V16.1L18.1,16.1z M16.8,12v2.9h-3.6V12H16.8L16.8,12z"/>
</g>
</svg>
