<?xml version="1.0" encoding="utf-8"?>
<!-- Generator: Adobe Illustrator 19.1.0, SVG Export Plug-In . SVG Version: 6.00 Build 0)  -->
<!DOCTYPE svg PUBLIC "-//W3C//DTD SVG 1.1//EN" "http://www.w3.org/Graphics/SVG/1.1/DTD/svg11.dtd">
<svg version="1.1" id="Layer_1" xmlns="http://www.w3.org/2000/svg" xmlns:xlink="http://www.w3.org/1999/xlink" x="0px" y="0px"
	 viewBox="0 0 40 40" style="enable-background:new 0 0 40 40;" xml:space="preserve">
<path style="fill:#111111;" d="M33.2,9.5l-3-3c-0.8-0.8-1.8-1.2-2.9-1.2c-1,0-2.1,0.4-2.9,1.2L19,12c-0.8,0.8-1.2,1.8-1.2,2.9c0,1,0.4,2.1,1.2,2.9l0.5,0.5
	l-1.1,1.1l-0.5-0.5C17.1,18,16,17.7,15,17.7s-2.1,0.4-2.9,1.2l-5.5,5.5c-0.8,0.8-1.2,1.8-1.2,2.9c0,1,0.4,2.1,1.2,2.9l3,3
	c0.8,0.8,1.8,1.2,2.9,1.2c1,0,2.1-0.4,2.9-1.2l5.5-5.5c0.8-0.8,1.2-1.8,1.2-2.9c0-1-0.4-2.1-1.2-2.9l-0.6-0.6l1.1-1.1l0.6,0.6l0,0
	c0.8,0.8,1.8,1.2,2.9,1.2c1,0,2.1-0.4,2.9-1.2l5.5-5.5c0.8-0.8,1.2-1.8,1.2-2.9C34.4,11.4,34,10.3,33.2,9.5z M19,25.7l-5.5,5.5
	c-0.3,0.3-0.6,0.4-1,0.4s-0.7-0.1-1-0.4l-3-3c-0.3-0.3-0.4-0.6-0.4-1s0.1-0.7,0.4-1l5.5-5.5c0.3-0.3,0.6-0.4,1-0.4s0.7,0.1,1,0.4
	l0.5,0.5L13,24.7l1.9,1.9l3.5-3.5l0.6,0.6c0.3,0.3,0.4,0.6,0.4,1S19.3,25.4,19,25.7z M31.3,13.4l-5.5,5.5c-0.3,0.3-0.6,0.4-1,0.4
	s-0.7-0.1-1-0.4l-0.6-0.6l3.3-3.3l-1.8-2l-3.3,3.3l-0.5-0.5c-0.3-0.3-0.4-0.6-0.4-1s0.1-0.7,0.4-1l5.5-5.5C26.6,8.1,27,8,27.3,8
	c0.4,0,0.7,0.1,1,0.4l3,3c0.3,0.3,0.4,0.6,0.4,1C31.7,12.8,31.6,13.1,31.3,13.4z"/>
</svg>
