<?xml version="1.0" encoding="utf-8"?>
<!-- Generator: Adobe Illustrator 19.1.0, SVG Export Plug-In . SVG Version: 6.00 Build 0)  -->
<!DOCTYPE svg PUBLIC "-//W3C//DTD SVG 1.1//EN" "http://www.w3.org/Graphics/SVG/1.1/DTD/svg11.dtd">
<svg version="1.1" id="Layer_1" xmlns="http://www.w3.org/2000/svg" xmlns:xlink="http://www.w3.org/1999/xlink" x="0px" y="0px"
	 viewBox="-51 52 25 25" style="enable-background:new -51 52 25 25;" xml:space="preserve">
<style type="text/css">
	.st0{fill:#111111;}
</style>
<g>
	<path class="st0" d="M-39.4,74.5c0.8,0.3,1.8,0.2,2.5-0.2c0.6-0.3,1-0.8,1.3-1.3h-5.7C-40.9,73.7-40.2,74.3-39.4,74.5z"/>
	<path class="st0" d="M-29.5,70.8c0-0.4-0.2-0.7-0.6-0.9c-1.5-0.9-2.1-2.3-2.1-4c0-1,0-2,0-2.9c0-2.8-1.7-5.2-4.2-6.1
		c-0.4-0.2-0.6-0.3-0.7-0.4c0-0.1,0.1-0.3,0.1-0.4c0-0.9-0.6-1.6-1.4-1.6s-1.4,0.7-1.4,1.6c0,0.2,0.1,0.4,0.1,0.5
		c-0.1,0.1-0.2,0.1-0.5,0.2c-2.4,0.8-4.3,3-4.4,5.5c-0.1,1.3-0.1,2.6-0.1,3.8c0,0.7-0.1,1.4-0.4,2s-0.8,1.1-1.4,1.5
		c-0.2,0.1-0.6,0.5-0.6,1c0,0.4,0,0.5,0,1h17.6C-29.5,71.6-29.5,71.1-29.5,70.8z"/>
</g>
</svg>
