<?xml version="1.0" encoding="UTF-8"?><svg xmlns="http://www.w3.org/2000/svg" xmlns:xlink="http://www.w3.org/1999/xlink" viewBox="0 0 48 48" version="1.1"><g id="surface1"><path d="M44 27l-1-9-2.898 1.898C37.398 18.2 34 17 30.199 16.398c0 0-1.898-.398-4.398-.398S21 16.3 21 16.3C11.3 17.5 4 23 4 29.603 4 36.398 11.5 42 23 43v-3.898C15.102 38 10.102 34.3 10.102 29.602c0-4.403 4.597-8.102 10.898-9.301 0 0 4.898-1.102 9.2.199 2.1.5 4 1.2 5.6 2.2L32 25z" fill="#9E9E9E"/><path d="M23 8v35l6-3V5z"/><path d="M23 8v35l6-3V5z" fill="#FF9800"/></g><metadata><rdf:RDF xmlns:rdf="http://www.w3.org/1999/02/22-rdf-syntax-ns#" xmlns:rdfs="http://www.w3.org/2000/01/rdf-schema#" xmlns:dc="http://purl.org/dc/elements/1.1/"><rdf:Description about="https://iconscout.com/legal#licenses" dc:title="openid" dc:description="openid" dc:publisher="Iconscout" dc:date="2017-12-15" dc:format="image/svg+xml" dc:language="en"><dc:creator><rdf:Bag><rdf:li>Icons8</rdf:li></rdf:Bag></dc:creator></rdf:Description></rdf:RDF></metadata></svg>