<?xml version="1.0" encoding="UTF-8" standalone="no"?>
<!DOCTYPE svg PUBLIC "-//W3C//DTD SVG 1.1//EN" "http://www.w3.org/Graphics/SVG/1.1/DTD/svg11.dtd">
<svg width="100%" height="100%" viewBox="0 0 48 48" version="1.1" xmlns="http://www.w3.org/2000/svg" xmlns:xlink="http://www.w3.org/1999/xlink" xml:space="preserve" xmlns:serif="http://www.serif.com/" style="fill-rule:evenodd;clip-rule:evenodd;stroke-linejoin:round;stroke-miterlimit:2;">
<style type="text/css">
    #surface1{fill:#111111;}
</style>
    <g id="surface1">
        <path d="M44,27L43,18L40.102,19.898C37.398,18.2 34,17 30.199,16.398C30.199,16.398 28.301,16 25.801,16C23.301,16 21,16.3 21,16.3C11.3,17.5 4,23 4,29.603C4,36.398 11.5,42 23,43L23,39.102C15.102,38 10.102,34.3 10.102,29.602C10.102,25.199 14.699,21.5 21,20.301C21,20.301 25.898,19.199 30.2,20.5C32.3,21 34.2,21.7 35.8,22.7L32,25L44,27Z" style="fill-rule:nonzero;"/>
        <path d="M23,8L23,43L29,40L29,5L23,8Z" style="fill-rule:nonzero;"/>
    </g>
</svg>
