<?xml version="1.0" encoding="utf-8"?>
<!-- Generator: Adobe Illustrator 19.1.0, SVG Export Plug-In . SVG Version: 6.00 Build 0)  -->
<!DOCTYPE svg PUBLIC "-//W3C//DTD SVG 1.1//EN" "http://www.w3.org/Graphics/SVG/1.1/DTD/svg11.dtd">
<svg version="1.1" id="Layer_1" xmlns="http://www.w3.org/2000/svg" xmlns:xlink="http://www.w3.org/1999/xlink" x="0px" y="0px"
	 viewBox="10 -10 40 40" style="enable-background:new 10 -10 40 40;" xml:space="preserve">
<style type="text/css">
	.st0{fill:#9E9E9E;}
</style>
<path class="st0" d="M47.1,15.9l-5.8-5.1V3.2c0-1.5-1.2-2.8-2.8-2.8H16.7c-1.5,0-2.8,1.2-2.8,2.8v14.9c0,1.5,1.2,2.8,2.8,2.8h21.9
	c1.5,0,2.8-1.2,2.8-2.8v-1.3h6.9L47.1,15.9z M40.2,15.7v2.4c0,0.9-0.7,1.7-1.7,1.7H16.7c-0.9,0-1.7-0.7-1.7-1.7V3.2
	c0-0.9,0.7-1.7,1.7-1.7h21.9c0.9,0,1.7,0.7,1.7,1.7v8.1l5,4.4H40.2z"/>
</svg>
