<?xml version="1.0" encoding="utf-8"?>
<!-- Generator: Adobe Illustrator 19.1.0, SVG Export Plug-In . SVG Version: 6.00 Build 0)  -->
<!DOCTYPE svg PUBLIC "-//W3C//DTD SVG 1.1//EN" "http://www.w3.org/Graphics/SVG/1.1/DTD/svg11.dtd">
<svg version="1.1" id="Layer_1" xmlns="http://www.w3.org/2000/svg" xmlns:xlink="http://www.w3.org/1999/xlink" x="0px" y="0px"
	 viewBox="-451.5 268.5 25 25" style="enable-background:new -451.5 268.5 25 25;" xml:space="preserve">
<style type="text/css">
	.st0{fill:#111111;}
</style>
<path class="st0" d="M-428.7,284.5l-3.7-3.2v-4.8c0-1-0.8-1.8-1.8-1.8h-13.9c-1,0-1.8,0.8-1.8,1.8v9.5c0,1,0.8,1.8,1.8,1.8h13.9
	c1,0,1.8-0.8,1.8-1.8V285h4.4L-428.7,284.5z M-433.1,284.3v1.5c0,0.6-0.4,1.1-1.1,1.1h-13.9c-0.6,0-1.1-0.4-1.1-1.1v-9.5
	c0-0.6,0.4-1.1,1.1-1.1h13.9c0.6,0,1.1,0.4,1.1,1.1v5.2l3.2,2.8C-429.9,284.3-433.1,284.3-433.1,284.3z"/>
</svg>
