<svg id="Layer_1" data-name="Layer 1" xmlns="http://www.w3.org/2000/svg" viewBox="0 0 25 25"><defs><style>.cls-1{fill:#111111;}</style></defs><title>question</title><path class="cls-1" d="M12.5,2.38a9.86,9.86,0,1,0,9.86,9.86A9.86,9.86,0,0,0,12.5,2.38Zm6.44,16.3a9.1,9.1,0,1,1,2.67-6.44A9.07,9.07,0,0,1,18.94,18.68Z"/><path class="cls-1" d="M11.35,15.43a4.92,4.92,0,0,1,.29-1.85,4.86,4.86,0,0,1,1.14-1.52,8.72,8.72,0,0,0,1.08-1.18,2.06,2.06,0,0,0,.35-1.15,1.76,1.76,0,0,0-.41-1.25A1.56,1.56,0,0,0,12.61,8a1.72,1.72,0,0,0-1.21.42,1.48,1.48,0,0,0-.46,1.14H8.82A3.13,3.13,0,0,1,9.87,7.16a4,4,0,0,1,2.74-.9,3.93,3.93,0,0,1,2.74.89,3.19,3.19,0,0,1,1,2.49A4.08,4.08,0,0,1,15,12.45l-1.08,1.06a2.89,2.89,0,0,0-.59,1.92h-2ZM11.2,18.14a1.12,1.12,0,0,1,.32-0.83A1.19,1.19,0,0,1,12.4,17a1.18,1.18,0,0,1,.88.33,1.12,1.12,0,0,1,.32.82,1.1,1.1,0,0,1-.31.8,1.19,1.19,0,0,1-.89.32,1.17,1.17,0,0,1-.89-0.32A1.11,1.11,0,0,1,11.2,18.14Z"/></svg>
