<?xml version="1.0" encoding="utf-8"?>
<!-- Generator: Adobe Illustrator 19.1.1, SVG Export Plug-In . SVG Version: 6.00 Build 0)  -->
<svg version="1.1" id="Layer_1" xmlns="http://www.w3.org/2000/svg" xmlns:xlink="http://www.w3.org/1999/xlink" x="0px" y="0px"
	 viewBox="0 0 412 151.3" style="enable-background:new 0 0 412 151.3;" xml:space="preserve">
<style type="text/css">
	.st0{fill:#A77DAF;}
	.st1{opacity:0.6;fill:#62356D;}
	.st2{fill:#4C4277;}
	.st3{fill:#6498B5;}
	.st4{opacity:0.6;fill:#38527A;}
	.st5{fill:#62356D;}
	.st6{fill:#38527A;}
	.st7{fill:#9F9BAA;}
	.st8{clip-path:url(#SVGID_4_);fill:#A77DAF;}
</style>
<ellipse class="st0" cx="62.7" cy="52.2" rx="34.4" ry="35.8"/>
<path class="st0" d="M111.8,135.6c0-18.7-9.1-48.7-33.9-48.7H48c-25.1,0-34.2,30.2-34.2,49.2v0.4h98v-1.1"/>
<polyline class="st1" points="65.6,128.8 36.9,128.8 36.9,136.5 65.6,136.5 65.6,128.8 "/>
<polyline class="st2" points="101.9,128.8 65.6,128.8 65.6,136.5 101.9,136.5 101.9,128.8 "/>
<ellipse class="st3" cx="348.5" cy="52.2" rx="34.4" ry="35.8"/>
<path class="st3" d="M298.9,135.2c0-18.7,9.3-48.3,34.2-48.3h29.9c25.1,0,33.9,29.8,33.9,48.8v0.7h-98v-1.1"/>
<polyline class="st4" points="373.7,128.8 345.1,128.8 345.1,136.5 373.7,136.5 373.7,128.8 "/>
<rect x="147" y="67.1" class="st5" width="15.4" height="15.4"/>
<g>
	<polygon class="st5" points="144.8,84.8 144.8,83.4 144.8,70.4 65.6,70.4 65.6,136.5 159.1,136.5 159.1,84.8 146.3,84.8 	"/>
</g>
<polyline class="st6" points="263.7,82.6 248.3,82.6 248.3,67.1 263.7,67.1 "/>
<g>
	<polygon class="st6" points="265.9,70.4 265.9,83.4 265.9,84.8 264.7,84.8 251.6,84.8 251.6,136.5 345.1,136.5 345.1,70.4 	"/>
</g>
<path class="st7" d="M156.6,64.5L156.6,64.5c0.5-0.3,21-12.7,49.3-12.7c21.8,0,37.4,7.4,43.5,10.9l1.6-2.9
	c-6.5-3.7-22.6-11.3-45.2-11.3c-29.7,0-50.8,13.1-51,13.2L156.6,64.5L156.6,64.5z"/>
<polygon class="st7" points="234.1,68.4 233.2,65.2 248.9,60.9 243.5,45.5 246.6,44.4 253.2,63.1 "/>
<rect x="98.6" y="91.4" class="st0" width="6.6" height="6.6"/>
<rect x="98.6" y="96.9" class="st0" width="6.6" height="6.6"/>
<rect x="98.6" y="102.4" class="st0" width="6.6" height="6.6"/>
<rect x="98.6" y="109" class="st0" width="6.6" height="5.5"/>
<rect x="106.1" y="88.8" class="st0" width="1.6" height="1.6"/>
<rect x="106.1" y="90.2" class="st0" width="1.6" height="1.6"/>
<rect x="106.1" y="91.7" class="st0" width="1.6" height="1.6"/>
<rect x="106.1" y="93.1" class="st0" width="1.6" height="1.6"/>
<rect x="107.5" y="88.8" class="st0" width="1.6" height="1.6"/>
<rect x="107.5" y="90.2" class="st0" width="1.6" height="1.6"/>
<rect x="107.5" y="91.7" class="st0" width="1.6" height="1.6"/>
<rect x="107.5" y="93.1" class="st0" width="1.6" height="1.6"/>
<rect x="109.4" y="88" class="st0" width="1.6" height="1.6"/>
<rect x="109" y="90.2" class="st0" width="1.6" height="1.6"/>
<rect x="109" y="91.7" class="st0" width="1.6" height="1.6"/>
<rect x="109" y="93.1" class="st0" width="1.6" height="1.6"/>
<rect x="117.3" y="79.8" class="st0" width="1.6" height="1.6"/>
<rect x="111" y="89.6" class="st0" width="1.6" height="1.6"/>
<rect x="110.4" y="91.7" class="st0" width="1.6" height="1.6"/>
<rect x="110.4" y="93.1" class="st0" width="1.6" height="1.6"/>
<rect x="104.1" y="96.9" class="st0" width="6.6" height="6.6"/>
<rect x="104.1" y="102.4" class="st0" width="6.6" height="6.6"/>
<rect x="104.1" y="109" class="st0" width="6.6" height="5.5"/>
<rect x="113.8" y="86.8" class="st0" width="1.6" height="1.6"/>
<rect x="113.8" y="88.3" class="st0" width="1.6" height="1.6"/>
<rect x="113.8" y="89.7" class="st0" width="1.6" height="1.6"/>
<rect x="113.8" y="91.2" class="st0" width="1.6" height="1.6"/>
<rect x="116" y="85.5" class="st0" width="1.6" height="1.6"/>
<rect x="115.3" y="88.3" class="st0" width="1.6" height="1.6"/>
<rect x="115.3" y="89.7" class="st0" width="1.6" height="1.6"/>
<rect x="115.3" y="91.2" class="st0" width="1.6" height="1.6"/>
<rect x="124.2" y="76.8" class="st0" width="1.6" height="1.6"/>
<rect x="117.7" y="87.2" class="st0" width="1.6" height="1.6"/>
<rect x="116.8" y="89.7" class="st0" width="1.6" height="1.6"/>
<rect x="116.8" y="91.2" class="st0" width="1.6" height="1.6"/>
<rect x="130.9" y="76.8" class="st0" width="1.6" height="1.6"/>
<rect x="127.2" y="80.1" class="st0" width="1.6" height="1.6"/>
<rect x="119.4" y="88.9" class="st0" width="1.6" height="1.6"/>
<rect x="118.2" y="91.2" class="st0" width="1.6" height="1.6"/>
<rect x="112.3" y="95" class="st0" width="1.6" height="1.6"/>
<rect x="112.3" y="96.4" class="st0" width="1.6" height="1.6"/>
<rect x="112.3" y="97.9" class="st0" width="1.6" height="1.6"/>
<rect x="112.3" y="99.3" class="st0" width="1.6" height="1.6"/>
<rect x="113.7" y="95" class="st0" width="1.6" height="1.6"/>
<rect x="113.7" y="96.4" class="st0" width="1.6" height="1.6"/>
<rect x="113.7" y="97.9" class="st0" width="1.6" height="1.6"/>
<rect x="113.7" y="99.3" class="st0" width="1.6" height="1.6"/>
<rect x="115.7" y="94.3" class="st0" width="1.6" height="1.6"/>
<rect x="115.2" y="96.4" class="st0" width="1.6" height="1.6"/>
<rect x="115.2" y="97.9" class="st0" width="1.6" height="1.6"/>
<rect x="115.2" y="99.3" class="st0" width="1.6" height="1.6"/>
<rect x="124.6" y="87.1" class="st0" width="1.6" height="1.6"/>
<rect x="117.3" y="95.9" class="st0" width="1.6" height="1.6"/>
<rect x="116.7" y="97.9" class="st0" width="1.6" height="1.6"/>
<rect x="116.7" y="99.3" class="st0" width="1.6" height="1.6"/>
<rect x="110.7" y="102.4" class="st0" width="6.6" height="6.6"/>
<rect x="110.7" y="109" class="st0" width="6.6" height="5.5"/>
<rect x="122" y="85.3" class="st0" width="1.6" height="1.6"/>
<rect x="122" y="86.7" class="st0" width="1.6" height="1.6"/>
<rect x="122" y="88.2" class="st0" width="1.6" height="1.6"/>
<rect x="122" y="89.6" class="st0" width="1.6" height="1.6"/>
<rect x="130" y="75.6" class="st0" width="1.6" height="1.6"/>
<rect x="123.5" y="86.7" class="st0" width="1.6" height="1.6"/>
<rect x="123.5" y="88.2" class="st0" width="1.6" height="1.6"/>
<rect x="123.5" y="89.6" class="st0" width="1.6" height="1.6"/>
<rect x="128.7" y="84" class="st0" width="1.6" height="1.6"/>
<g>
	<g>
		<defs>
			<polyline id="SVGID_1_" points="128.7,85.6 130.3,85.6 130.3,84 128.7,84 128.7,85.6 			"/>
		</defs>
		<clipPath id="SVGID_2_">
			<use xlink:href="#SVGID_1_"  style="overflow:visible;"/>
		</clipPath>
	</g>
	<g>
		<defs>
			<polyline id="SVGID_3_" points="128.7,85.6 130.3,85.6 130.3,84 128.7,84 128.7,85.6 			"/>
		</defs>
		<use xlink:href="#SVGID_3_"  style="overflow:visible;fill:#A77DAF;"/>
		<clipPath id="SVGID_4_">
			<use xlink:href="#SVGID_3_"  style="overflow:visible;"/>
		</clipPath>
		<rect x="128.7" y="84" class="st8" width="1.6" height="1.6"/>
	</g>
	<g>
		<defs>
			<polyline id="SVGID_5_" points="128.7,85.6 130.3,85.6 130.3,84 128.7,84 128.7,85.6 			"/>
		</defs>
		<clipPath id="SVGID_6_">
			<use xlink:href="#SVGID_5_"  style="overflow:visible;"/>
		</clipPath>
	</g>
</g>
<rect x="124.9" y="88.2" class="st0" width="1.6" height="1.6"/>
<rect x="124.9" y="89.6" class="st0" width="1.6" height="1.6"/>
<rect x="135.1" y="82.1" class="st0" width="1.6" height="1.6"/>
<rect x="126.4" y="89.6" class="st0" width="1.6" height="1.6"/>
<rect x="120.4" y="93.4" class="st0" width="1.6" height="1.6"/>
<rect x="120.4" y="94.9" class="st0" width="1.6" height="1.6"/>
<rect x="120.4" y="96.3" class="st0" width="1.6" height="1.6"/>
<rect x="120.4" y="97.8" class="st0" width="1.6" height="1.6"/>
<rect x="122.8" y="92.2" class="st0" width="1.6" height="1.6"/>
<rect x="121.9" y="94.9" class="st0" width="1.6" height="1.6"/>
<rect x="121.9" y="96.3" class="st0" width="1.6" height="1.6"/>
<rect x="121.9" y="97.8" class="st0" width="1.6" height="1.6"/>
<rect x="132.1" y="84.2" class="st0" width="1.6" height="1.6"/>
<rect x="124.4" y="93.9" class="st0" width="1.6" height="1.6"/>
<rect x="123.4" y="96.3" class="st0" width="1.6" height="1.6"/>
<rect x="123.4" y="97.8" class="st0" width="1.6" height="1.6"/>
<rect x="135.2" y="81.5" class="st0" width="1.6" height="1.6"/>
<rect x="132.9" y="87.7" class="st0" width="1.6" height="1.6"/>
<rect x="126.2" y="95.6" class="st0" width="1.6" height="1.6"/>
<rect x="124.8" y="97.8" class="st0" width="1.6" height="1.6"/>
<rect x="118.5" y="101.2" class="st0" width="1.6" height="1.6"/>
<rect x="118.5" y="102.6" class="st0" width="1.6" height="1.6"/>
<rect x="118.5" y="104.1" class="st0" width="1.6" height="1.6"/>
<rect x="118.5" y="105.6" class="st0" width="1.6" height="1.6"/>
<rect x="119.9" y="101.2" class="st0" width="1.6" height="1.6"/>
<rect x="119.9" y="102.6" class="st0" width="1.6" height="1.6"/>
<rect x="119.9" y="104.1" class="st0" width="1.6" height="1.6"/>
<rect x="119.9" y="105.6" class="st0" width="1.6" height="1.6"/>
<rect x="122.1" y="100.6" class="st0" width="1.6" height="1.6"/>
<rect x="121.4" y="102.6" class="st0" width="1.6" height="1.6"/>
<rect x="121.4" y="104.1" class="st0" width="1.6" height="1.6"/>
<rect x="121.4" y="105.6" class="st0" width="1.6" height="1.6"/>
<rect x="132" y="94.4" class="st0" width="1.6" height="1.6"/>
<rect x="123.7" y="102.2" class="st0" width="1.6" height="1.6"/>
<rect x="122.9" y="104.1" class="st0" width="1.6" height="1.6"/>
<rect x="122.9" y="105.6" class="st0" width="1.6" height="1.6"/>
<rect x="117.3" y="109" class="st0" width="6.6" height="5.5"/>
</svg>
