<svg xmlns="http://www.w3.org/2000/svg" xmlns:xlink="http://www.w3.org/1999/xlink" version="1.1" x="0px" y="0px" width="100px" height="100px" viewBox="0 0 100 100" enable-background="new 0 0 100 100" xml:space="preserve">
<g id="Captions">
</g>
<g id="Layer_7" display="none">
	<path display="inline" d="M79.762,50.001c0-3.41,2.764-6.172,6.174-6.172V29.718H14.064v14.111c3.414,0,6.175,2.762,6.175,6.172   c0,3.414-2.761,6.178-6.175,6.178v14.104h71.872V56.179C82.525,56.179,79.762,53.415,79.762,50.001z"/>
</g>
<g id="Your_Icon" display="none">
	<path display="inline" d="M84.649,28.072L69.086,43.635L56.364,30.916l15.562-15.565c-7.393-2.627-15.958-1.005-21.872,4.914   c-5.917,5.914-7.541,14.48-4.916,21.873L14.135,73.142l12.722,12.725l31.006-31.007c7.392,2.626,15.957,1.004,21.872-4.913   C85.652,44.03,87.274,35.467,84.649,28.072z"/>
</g>
<g id="Layer_6" display="none">
	<path display="inline" d="M71.885,38.652V14.066H28.107v24.586h0.016l-2.274,16.811h0.012v22.156h1.979v8.314h7.386v-8.314h29.551   v8.314h7.387v-8.314h1.982V55.463h0.008L71.885,38.652z M35.083,71.154c-2.547,0-4.612-2.059-4.612-4.615   c0-2.549,2.065-4.615,4.612-4.615c2.549,0,4.62,2.066,4.62,4.615C39.703,69.096,37.631,71.154,35.083,71.154z M64.922,71.154   c-2.553,0-4.613-2.059-4.613-4.615c0-2.549,2.061-4.615,4.613-4.615c2.547,0,4.617,2.066,4.617,4.615   C69.539,69.096,67.469,71.154,64.922,71.154z M30.47,54.461l3.009-15.809h1.47h30.278h1.299l3.014,15.809H30.47z"/>
</g>
<g id="Layer_5">
	<path d="M86,18.67l-7.942,8.311l0.177,0.014C71.611,19.072,61.723,14.02,50.561,14.02c-19.973,0-36.109,16.107-36.109,35.984   c0,19.871,16.215,35.977,36.184,35.977c15.459,0,28.668-9.658,33.825-23.25l-13.269-5.516c-2.992,8.42-11.073,14.465-20.538,14.465   c-12.02,0-21.779-9.725-21.779-21.676c0-11.961,9.767-21.691,21.785-21.691c7.195,0,13.566,3.5,17.541,8.867l-8.686,8.088   L86,45.256V18.67z"/>
</g>
<g id="Layer_4" display="none">
	<polygon display="inline" points="14.019,14.02 85.981,50.004 14.019,85.98  "/>
</g>
</svg>