<?xml version="1.0" encoding="utf-8"?>
<!-- Generator: Adobe Illustrator 19.1.0, SVG Export Plug-In . SVG Version: 6.00 Build 0)  -->
<!DOCTYPE svg PUBLIC "-//W3C//DTD SVG 1.1//EN" "http://www.w3.org/Graphics/SVG/1.1/DTD/svg11.dtd">
<svg version="1.1" id="Layer_1" xmlns="http://www.w3.org/2000/svg" xmlns:xlink="http://www.w3.org/1999/xlink" x="0px" y="0px"
	 viewBox="0 0 128 128" style="enable-background:new 0 0 128 128;" xml:space="preserve">
<style type="text/css">
	.st0{fill:#111111;}
</style>
<g>
	<path class="st0" d="M63.3,32.7c-17,0-30.8,13.8-30.8,30.8c0,3.6,0.6,7,1.7,10.2L28.3,77l13.9,3.9L46,67l-6.8,3.8
		c-0.7-2.3-1.1-4.8-1.1-7.4c0-6.9,2.8-13.2,7.4-17.8c4.6-4.5,10.8-7.4,17.8-7.4c6.9,0,13.2,2.8,17.8,7.4c4.5,4.6,7.4,10.8,7.4,17.8
		c0,6.9-2.8,13.2-7.4,17.8c-4.6,4.5-10.8,7.4-17.8,7.4c-4.5,0-8.7-1.2-12.3-3.2l-3.9,4.3c4.7,2.9,10.2,4.6,16.2,4.6
		c17,0,30.8-13.8,30.8-30.8C94.1,46.4,80.3,32.7,63.3,32.7z"/>
	<path class="st0" d="M60.4,44.5c-1.6,0-2.8,1.3-2.8,2.8l0,0v20.2l12,11.7c1.1,1.1,2.9,1.1,4,0c1.1-1.1,1.1-2.9,0-4l-10.2-10V47.4
		C63.2,45.8,61.9,44.5,60.4,44.5z"/>
</g>
</svg>
