<svg xmlns="http://www.w3.org/2000/svg" xmlns:xlink="http://www.w3.org/1999/xlink" version="1.1" x="0px" y="0px" width="100px" height="100px" viewBox="0 0 100 100" enable-background="new 0 0 100 100" xml:space="preserve">
<g id="Layer_5">
	<path d="M86,18.67l-7.942,8.311l0.177,0.014C71.611,19.072,61.723,14.02,50.561,14.02c-19.973,0-36.109,16.107-36.109,35.984   c0,19.871,16.215,35.977,36.184,35.977c15.459,0,28.668-9.658,33.825-23.25l-13.269-5.516c-2.992,8.42-11.073,14.465-20.538,14.465   c-12.02,0-21.779-9.725-21.779-21.676c0-11.961,9.767-21.691,21.785-21.691c7.195,0,13.566,3.5,17.541,8.867l-8.686,8.088   L86,45.256V18.67z"/>
</g>
</svg>
