<?xml version="1.0" encoding="utf-8"?>
<!-- Generator: Adobe Illustrator 18.1.1, SVG Export Plug-In . SVG Version: 6.00 Build 0)  -->
<!DOCTYPE svg PUBLIC "-//W3C//DTD SVG 1.1//EN" "http://www.w3.org/Graphics/SVG/1.1/DTD/svg11.dtd">
<svg version="1.1" id="Layer_1" xmlns="http://www.w3.org/2000/svg" xmlns:xlink="http://www.w3.org/1999/xlink" x="0px" y="0px"
	 viewBox="0 0 25 25" style="enable-background:new 0 0 25 25;" xml:space="preserve">
<g>
	<path style="fill:#111111;" d="M12.7,20.3c-2,0-4.1-0.8-5.6-2.3c-1.6-1.6-2.3-3.6-2.3-5.6c0-0.8,0.1-1.7,0.4-2.5l1.6,1.4L6.5,6.5
		L1.8,7.1l1.8,1.5C3,9.8,2.8,11.1,2.8,12.4c0,2.5,1,5.1,2.9,7c1.9,1.9,4.5,2.9,7,2.9c1.6,0,3.3-0.4,4.8-1.2L16,19.6
		C14.9,20.1,13.8,20.3,12.7,20.3z"/>
	<path style="fill:#111111;" d="M21.4,17c0.8-1.4,1.1-3,1.1-4.6c0-2.5-1-5.1-2.9-7c-1.9-1.9-4.5-2.9-7-2.9c-1.9,0-3.8,0.6-5.5,1.6
		l1.4,1.4c1.2-0.7,2.6-1.1,4-1.1c2,0,4.1,0.8,5.6,2.3c1.6,1.6,2.3,3.6,2.3,5.6c0,1.1-0.3,2.3-0.7,3.3l-1.7-1.4l0.2,3.8L18.3,18
		c0,0,0,0,0,0l0.1,0.1l0.1,0.9l4.7-0.6L21.4,17z"/>
</g>
</svg>
