<?xml version="1.0" encoding="utf-8"?>
<!-- Generator: Adobe Illustrator 19.1.0, SVG Export Plug-In . SVG Version: 6.00 Build 0)  -->
<!DOCTYPE svg PUBLIC "-//W3C//DTD SVG 1.1//EN" "http://www.w3.org/Graphics/SVG/1.1/DTD/svg11.dtd">
<svg version="1.1" id="Layer_1" xmlns="http://www.w3.org/2000/svg" xmlns:xlink="http://www.w3.org/1999/xlink" x="0px" y="0px"
	 viewBox="0 -0.5 25 25" style="enable-background:new 0 -0.5 25 25;" xml:space="preserve">
<style type="text/css">
	.st0{fill:#111111;}
</style>
<path class="st0" d="M12.5,16.2c-2.3,0-4.1-1.7-4.2-3.9C8.2,10,9.9,8,12.2,7.9c0.1,0,0.2,0,0.3,0c2.2,0,4.1,1.7,4.2,4
	C16.7,14.1,15,16,12.5,16.2C12.5,16.2,12.5,16.2,12.5,16.2 M9.4,1.9c0,0-0.1,0-0.2,0c-0.5,0.2-1,0.4-1.6,0.6
	C7.5,2.7,7.5,2.7,7.5,2.9c0,0.4,0.1,0.8,0.1,1.2c0,0.4,0,0.8,0.1,1.2c0,0.2,0,0.3-0.2,0.4C6.9,6.1,6.4,6.6,6,7.1
	C5.9,7.2,5.8,7.3,5.7,7.3c0,0,0,0-0.1,0C4.9,7.2,4.2,7.2,3.5,7.1c0,0,0,0-0.1,0c-0.1,0-0.2,0-0.3,0.2C2.9,7.9,2.7,8.4,2.5,8.9
	c-0.1,0.2,0,0.3,0.1,0.4c0.6,0.5,1.1,0.9,1.7,1.4c0.2,0.1,0.2,0.3,0.2,0.4c-0.1,0.6-0.1,1.3,0,1.9c0,0.2,0,0.3-0.2,0.4
	c-0.5,0.4-1,0.9-1.6,1.3c-0.2,0.1-0.2,0.2-0.1,0.4c0.2,0.5,0.4,1,0.6,1.6C3.3,16.9,3.4,17,3.5,17c0,0,0,0,0.1,0
	c0.7-0.1,1.4-0.1,2.1-0.1c0,0,0,0,0.1,0c0.1,0,0.3,0,0.4,0.2c0.4,0.6,0.9,1.1,1.5,1.5c0.2,0.1,0.2,0.2,0.2,0.4
	c-0.1,0.7-0.1,1.4-0.2,2.2c0,0.2,0.1,0.3,0.2,0.3c0.5,0.2,1,0.4,1.5,0.6c0.1,0,0.1,0.1,0.2,0.1c0.1,0,0.2-0.1,0.3-0.2
	c0.5-0.6,0.9-1.1,1.4-1.7c0.1-0.1,0.2-0.2,0.3-0.2c0,0,0,0,0.1,0c0.3,0,0.6,0,0.9,0c0.3,0,0.6,0,1-0.1c0,0,0.1,0,0.1,0
	c0.1,0,0.2,0.1,0.3,0.2c0.4,0.5,0.9,1.1,1.4,1.6c0.1,0.1,0.2,0.1,0.2,0.1c0,0,0.1,0,0.2,0c0.5-0.2,1-0.4,1.5-0.6
	c0.2-0.1,0.3-0.2,0.2-0.4c-0.1-0.7-0.1-1.4-0.1-2.1c0-0.2,0-0.3,0.2-0.4c0.5-0.4,1-0.9,1.4-1.4c0.1-0.1,0.2-0.2,0.3-0.2
	c0,0,0,0,0.1,0c0.7,0.1,1.5,0.1,2.2,0.1c0,0,0,0,0.1,0c0.2,0,0.2-0.1,0.3-0.2c0.2-0.5,0.4-1,0.6-1.5c0.1-0.2,0.1-0.3-0.1-0.4
	c-0.6-0.5-1.1-0.9-1.7-1.4c-0.1-0.1-0.2-0.2-0.2-0.3c0.1-0.6,0.1-1.2,0-1.8c0-0.2,0-0.3,0.2-0.5c0.6-0.5,1.2-1,1.7-1.5
	c0.2-0.1,0.2-0.2,0.1-0.4c-0.2-0.5-0.4-1-0.6-1.5c-0.1-0.2-0.2-0.3-0.4-0.3c0,0,0,0-0.1,0c-0.8,0.1-1.5,0.1-2.3,0.2c0,0,0,0-0.1,0
	c-0.1,0-0.2,0-0.3-0.2c-0.4-0.5-0.8-1-1.3-1.4c-0.1-0.1-0.2-0.2-0.2-0.4c0.1-0.8,0.1-1.5,0.1-2.3c0-0.2,0-0.3-0.2-0.4
	c-0.5-0.2-1-0.4-1.5-0.6c-0.1,0-0.1,0-0.2,0c-0.1,0-0.2,0-0.2,0.1c-0.5,0.6-0.9,1.1-1.4,1.7C13.9,3.9,13.8,4,13.7,4c0,0,0,0-0.1,0
	c-0.4-0.1-0.8-0.1-1.2-0.1c-0.3,0-0.6,0-0.9,0.1c0,0,0,0-0.1,0c-0.1,0-0.2-0.1-0.3-0.2c-0.5-0.6-1-1.2-1.5-1.7
	C9.6,2,9.5,1.9,9.4,1.9"/>
</svg>
