<?xml version="1.0" encoding="utf-8"?>
<!-- Generator: Adobe Illustrator 19.1.0, SVG Export Plug-In . SVG Version: 6.00 Build 0)  -->
<!DOCTYPE svg PUBLIC "-//W3C//DTD SVG 1.1//EN" "http://www.w3.org/Graphics/SVG/1.1/DTD/svg11.dtd">
<svg version="1.1" id="Layer_1" xmlns="http://www.w3.org/2000/svg" xmlns:xlink="http://www.w3.org/1999/xlink" x="0px" y="0px"
	 viewBox="-467 268 25 25" style="enable-background:new -467 268 25 25;" xml:space="preserve">
<style type="text/css">
	.st0{fill:#111111;}
</style>
<path class="st0" d="M-451.5,290.8c0-3.3-2.2-6.6-5.5-6.6h-0.3c2.5,0,4.4-2.7,4.4-5.5c0-3.3-2.5-5.8-5.5-5.8s-5.6,2.4-5.6,5.7
	c0,2.9,1.9,5.6,4.4,5.6h-0.3c-3.3,0-5.6,3.3-5.6,6.6v0.4h14L-451.5,290.8L-451.5,290.8z"/>
<g>
	<path class="st0" d="M-446.8,277.1v3.5h3.3v1.4h-3.3v3.5h-1.6V282h-3.3v-1.4h3.3v-3.5H-446.8z"/>
</g>
</svg>
