<?xml version="1.0" encoding="utf-8"?>
<!-- Generator: Adobe Illustrator 15.0.0, SVG Export Plug-In . SVG Version: 6.00 Build 0)  -->
<!DOCTYPE svg PUBLIC "-//W3C//DTD SVG 1.1//EN" "http://www.w3.org/Graphics/SVG/1.1/DTD/svg11.dtd">
<svg version="1.1" id="Calque_1" xmlns="http://www.w3.org/2000/svg" xmlns:xlink="http://www.w3.org/1999/xlink" x="0px" y="0px"
	 width="90px" height="90px" viewBox="0 0 90 90" enable-background="new 0 0 90 90" xml:space="preserve">
<path d="M63.264,55.08c-2.771,0-5.338,0.705-7.459,1.903l-16.326-9.278c0.248-0.83,0.394-1.691,0.394-2.584
	c0-0.892-0.146-1.753-0.394-2.583l16.324-9.279c2.122,1.198,4.688,1.903,7.458,1.903c7.284,0,13.188-4.85,13.188-10.832
	S70.545,13.5,63.261,13.5c-7.281,0-13.185,4.849-13.185,10.831c0,0.892,0.146,1.754,0.393,2.583l-16.323,9.279
	c-2.123-1.198-4.689-1.902-7.459-1.902c-7.283,0-13.187,4.849-13.187,10.831c0,5.982,5.904,10.83,13.187,10.83
	c2.768,0,5.336-0.703,7.459-1.902l16.324,9.28c-0.248,0.829-0.394,1.691-0.394,2.581c0,5.983,5.904,10.833,13.188,10.833
	c7.282,0,13.186-4.85,13.186-10.833C76.449,59.93,70.545,55.08,63.264,55.08z"/>
</svg>
