<svg xmlns="http://www.w3.org/2000/svg" xmlns:xlink="http://www.w3.org/1999/xlink" version="1.1" x="0px" y="0px" width="100px" height="100px" viewBox="5.0 -10.0 100.0 135.0" enable-background="new 0 0 100 100" xml:space="preserve">
<g id="Captions">
</g>
<g id="Layer_7" display="none">
</g>
<g id="Your_Icon" display="none">
	<path display="inline" d="M75.247,41.843c-0.715-6.531-5.452-13.034-13-17.843c-7.463-4.753-7.605-9.219-7.605-9.405v-0.577h-5.998   v50.392c-2.51-1.511-5.615-2.416-8.995-2.416c-8.28,0-14.991,5.369-14.991,11.995c0,6.623,6.711,11.994,14.991,11.994   c8.278,0,14.993-5.371,14.993-11.994V30.72c1.197,0.938,2.625,1.753,4.386,2.337c14.478,4.824,13.587,20.052,10.728,22.915   C73.908,51.82,75.808,46.934,75.247,41.843z"/>
</g>
<g id="Layer_6" display="none">
	<path display="inline" d="M76.637,18.634c0-2.52-2.053-4.569-4.57-4.569H27.941c-2.521,0-4.574,2.05-4.574,4.569l-3.891,28.78h0.01   V75.43h2.506v10.506h9.336V75.43h37.346v10.506h9.336V75.43h2.502V47.414h0.012L76.637,18.634z M41.25,17.337h17.508v5.123H41.25   V17.337z M31.143,67.257c-3.217,0-5.832-2.611-5.832-5.833c0-3.226,2.615-5.835,5.832-5.835c3.23,0,5.84,2.609,5.84,5.835   C36.982,64.646,34.373,67.257,31.143,67.257z M68.855,67.257c-3.223,0-5.832-2.611-5.832-5.833c0-3.226,2.609-5.835,5.832-5.835   s5.836,2.609,5.836,5.835C74.691,64.646,72.078,67.257,68.855,67.257z M25.311,46.155l3.893-20.424h41.6l3.889,20.424H25.311z"/>
</g>
<g id="Layer_5" display="none">
	<g display="inline">
		<circle cx="24.512" cy="75.486" r="8.997"/>
		<path d="M15.519,39.506v11.992c18.186,0,32.983,14.797,32.983,32.984h11.994C60.496,59.682,40.314,39.506,15.519,39.506z"/>
		<path d="M15.519,15.518v11.994c31.413,0,56.968,25.556,56.968,56.971h11.995C84.481,46.456,53.546,15.518,15.519,15.518z"/>
	</g>
</g>
<g id="Layer_4">
	<polygon points="54.914,36.953 63.789,45.894 78.459,31.087 86,38.856 85.992,15 78.537,15 62.141,15 69.602,22.337  "/>
	<polygon points="64,73 27,73 27,37 45.734,37 60.254,22 14,22 14,86 77,86 77,40.089 64,55.39  "/>
</g>
</svg>
