<?xml version="1.0" encoding="utf-8"?>
<!-- Generator: Adobe Illustrator 15.0.0, SVG Export Plug-In . SVG Version: 6.00 Build 0)  -->
<!DOCTYPE svg PUBLIC "-//W3C//DTD SVG 1.1//EN" "http://www.w3.org/Graphics/SVG/1.1/DTD/svg11.dtd">
<svg version="1.1" id="Layer_1" xmlns="http://www.w3.org/2000/svg" xmlns:xlink="http://www.w3.org/1999/xlink" x="0px" y="0px"
	 width="100px" height="100px" viewBox="0 0 100 100" enable-background="new 0 0 100 100" xml:space="preserve">
<g id="Captions">
</g>
<g id="Layer_7" display="none">
</g>
<g id="Your_Icon" display="none">
	<path display="inline" d="M69.998,28.402c-0.529-4.838-4.039-9.655-9.63-13.217c-5.528-3.521-5.634-6.829-5.634-6.966V7.791h-4.442
		v37.328c-1.859-1.12-4.159-1.79-6.663-1.79c-6.133,0-11.104,3.977-11.104,8.885c0,4.906,4.971,8.885,11.104,8.885
		c6.132,0,11.105-3.979,11.105-8.885V20.163c0.887,0.695,1.945,1.298,3.25,1.731c10.724,3.573,10.064,14.854,7.945,16.974
		C69.006,35.792,70.413,32.173,69.998,28.402z"/>
</g>
<g id="Layer_6" display="none">
	<path display="inline" d="M71.027,11.21c0-1.867-1.521-3.384-3.385-3.384H34.956c-1.867,0-3.388,1.518-3.388,3.384l-2.882,21.318
		h0.007v20.752h1.856v7.782h6.916v-7.782h27.664v7.782h6.916v-7.782h1.854V32.529h0.008L71.027,11.21z M44.815,10.25h12.968v3.795
		H44.815V10.25z M37.328,47.228c-2.383,0-4.32-1.934-4.32-4.321c0-2.39,1.937-4.322,4.32-4.322c2.393,0,4.326,1.933,4.326,4.322
		C41.653,45.293,39.721,47.228,37.328,47.228z M65.264,47.228c-2.389,0-4.32-1.934-4.32-4.321c0-2.39,1.932-4.322,4.32-4.322
		c2.387,0,4.322,1.933,4.322,4.322C69.586,45.293,67.65,47.228,65.264,47.228z M33.008,31.596l2.884-15.129h30.815l2.881,15.129
		H33.008z"/>
</g>
<g id="Layer_5" display="none">
	<g display="inline">
		<circle cx="32.417" cy="53.323" r="6.664"/>
		<path d="M25.755,26.671v8.883c13.471,0,24.432,10.96,24.432,24.432h8.885C59.071,41.616,44.122,26.671,25.755,26.671z"/>
		<path d="M25.755,8.902v8.884c23.269,0,42.198,18.93,42.198,42.201h8.885C76.838,31.819,53.923,8.902,25.755,8.902z"/>
	</g>
</g>
<g id="Layer_4">
	<polygon points="55.464,36.478 64.212,45.292 78.677,30.693 86.111,38.354 86.103,14.833 78.752,14.833 62.588,14.833 
		69.944,22.067 	"/>
	<polygon points="64.421,72.018 27.942,72.018 27.942,36.524 46.412,36.524 60.729,21.735 15.125,21.735 15.125,84.834 
		77.239,84.834 77.239,39.569 64.421,54.655 	"/>
</g>
</svg>
