<svg xmlns="http://www.w3.org/2000/svg" xmlns:xlink="http://www.w3.org/1999/xlink" version="1.1" id="Calque_1" x="0px" y="0px" width="90px" height="90px" viewBox="4.5 -9.0 90.0 121.5" enable-background="new 0 0 90 90" xml:space="preserve">
<path d="M61.833,56.339c-2.546,0-4.907,0.789-6.858,2.13l-15.01-10.386c0.228-0.928,0.362-1.893,0.362-2.892  c0-0.998-0.134-1.963-0.362-2.891l15.009-10.387c1.951,1.341,4.311,2.13,6.858,2.13c6.696,0,12.124-5.428,12.124-12.124  c0-6.696-5.428-12.124-12.124-12.124s-12.124,5.428-12.124,12.124c0,0.998,0.134,1.963,0.361,2.891L35.061,35.197  c-1.951-1.341-4.311-2.13-6.858-2.13c-6.696,0-12.124,5.428-12.124,12.124s5.428,12.124,12.124,12.124  c2.546,0,4.907-0.788,6.858-2.13l15.01,10.386c-0.228,0.928-0.362,1.893-0.362,2.892c0,6.696,5.428,12.124,12.124,12.124  s12.124-5.428,12.124-12.124S68.528,56.339,61.833,56.339z"/>
</svg>
