<svg xmlns="http://www.w3.org/2000/svg" xmlns:xlink="http://www.w3.org/1999/xlink" version="1.1" x="0px" y="0px" width="100px" height="100px" viewBox="0 0 100 100" enable-background="new 0 0 100 100" xml:space="preserve">
<g id="Captions">
</g>
<g id="Layer_7" display="none">
</g>
<g id="Your_Icon">
	<path d="M26.01,85.981h47.975V32.011H26.01V85.981z M59.994,42.006h3.994v35.979h-3.994V42.006z M48,42.006h3.994v35.979H48V42.006   z M36.004,42.006h4v35.979h-4V42.006z"/>
	<path d="M67.988,26.012h11.996c0-3.311-2.686-5.997-6-5.997h-13.99v-5.996h-19.99v5.996H26.01c-3.314,0-5.994,2.687-5.994,5.997   h11.988H67.988z"/>
</g>
<g id="Layer_6" display="none">
	<path display="inline" d="M85.936,63.407l-1.619-4.27l-5.113,1.938L68.658,33.373L41.566,43.687l-11.096-29.22l-16.406,6.229   l1.67,4.395l12.139-4.61l18.053,47.565c-3.221,1.418-5.465,4.62-5.465,8.352c0,5.041,4.088,9.137,9.137,9.137   c5.043,0,9.125-4.096,9.125-9.137c0-0.881-0.16-1.71-0.393-2.511L85.936,63.407z"/>
</g>
<g id="Layer_5" display="none">
	<rect x="14.02" y="39.005" display="inline" width="71.961" height="41.979"/>
	<polygon display="inline" points="77.986,29.009 42.006,29.009 42.006,19.016 18.016,19.016 18.016,29.009 18.016,31.01    18.016,35.01 77.986,35.01  "/>
</g>
<g id="Layer_4" display="none">
	<polygon display="inline" points="14,17 14,67 25,67 25,83.463 50.837,67 86,67 86,17  "/>
</g>
</svg>