<?xml version="1.0" encoding="utf-8"?>
<!-- Generator: Adobe Illustrator 19.1.0, SVG Export Plug-In . SVG Version: 6.00 Build 0)  -->
<!DOCTYPE svg PUBLIC "-//W3C//DTD SVG 1.1//EN" "http://www.w3.org/Graphics/SVG/1.1/DTD/svg11.dtd">
<svg version="1.1" id="Layer_1" xmlns="http://www.w3.org/2000/svg" xmlns:xlink="http://www.w3.org/1999/xlink" x="0px" y="0px"
	 viewBox="-53 55 20 20" style="enable-background:new -53 55 20 20;" xml:space="preserve">
<style type="text/css">
	.st0{fill:#111111;}
</style>
<g>
	<path class="st0" d="M-38.7,71.5c0.5,0,0.8-0.1,1.1-0.2c0,0,0.1,0,0.1-0.1c0.1-0.1,0.1-0.1,0-0.2c-0.3-0.2-0.6-0.4-0.9-0.6
		c-0.3-0.2-0.5-0.5-0.4-0.9c0.1-0.3,0.3-0.6,0.5-0.8c0.3-0.3,0.6-0.3,0.9-0.1c0.3,0.2,0.7,0.4,1,0.6c0.1,0.1,0.2,0.1,0.2-0.1
		c0-0.3-0.1-0.6-0.2-0.9c-0.3-0.7-0.7-1.2-1.5-1.4c-0.3-0.1-0.6-0.1-0.9,0h-0.1c-0.1,0-0.3,0-0.4-0.1c-1.1-1-2.2-2-3.3-3.1
		c-0.7-0.6-1.4-1.4-2.2-2.2c-0.1-0.1-0.3-0.3-0.4-0.4s-0.2-0.3-0.2-0.4c0-0.2,0.1-0.4,0.1-0.6c0.1-0.7-0.2-1.3-0.8-1.7
		c-0.7-0.6-1.5-0.6-2.4-0.3c0,0-0.1,0-0.1,0.1c-0.1,0.1-0.1,0.1,0,0.2c0.3,0.2,0.6,0.4,1,0.6c0.3,0.2,0.4,0.6,0.4,0.9
		c-0.1,0.4-0.3,0.7-0.6,0.9s-0.6,0.3-0.9,0.1s-0.7-0.4-1-0.6c-0.2-0.2-0.2-0.1-0.2,0c0,0.3,0,0.5,0.1,0.8c0.3,0.7,0.7,1.3,1.5,1.5
		c0.3,0.1,0.6,0.1,0.9,0c0.1,0,0.1,0,0.2,0s0.2,0,0.3,0.1c1.1,1,2.3,2,3.3,3.1c0.9,0.9,1.7,1.8,2.6,2.6c0.2,0.2,0.3,0.5,0.2,0.8
		c-0.2,0.7,0,1.3,0.5,1.8C-39.7,71.3-39.2,71.5-38.7,71.5z"/>
</g>
</svg>
