<?xml version="1.0" encoding="utf-8"?>
<!-- Generator: Adobe Illustrator 19.1.0, SVG Export Plug-In . SVG Version: 6.00 Build 0)  -->
<svg version="1.1" id="Layer_1" xmlns="http://www.w3.org/2000/svg" xmlns:xlink="http://www.w3.org/1999/xlink" x="0px" y="0px"
	 viewBox="-629 391 20 20" style="enable-background:new -629 391 20 20;" xml:space="preserve">
<style type="text/css">
	.st0{fill:#111111;}
</style>
<g>
	<path class="st0" d="M-616,394.1c0.1,0,0.2,0,0.3,0c0.2,0,0.3,0,0.5,0.1c0.7,0.1,1.3,0.5,1.8,0.9c0,0,0.1,0,0.1,0
		c0.6-0.1,1.2-0.3,1.7-0.6c0.1-0.1,0.2-0.1,0.4-0.2c-0.3,0.8-0.8,1.4-1.4,1.8c0.7-0.1,1.3-0.2,1.9-0.5c0,0,0,0,0,0
		c0,0,0,0.1-0.1,0.1c-0.4,0.6-0.9,1.1-1.5,1.6c0,0-0.1,0.1-0.1,0.1c0,0.7,0,1.4-0.2,2.1c-0.2,1.2-0.6,2.3-1.3,3.3
		c-0.7,1.2-1.7,2.3-2.9,3c-1.5,1-3.2,1.4-5,1.5c-0.7,0-1.3,0-2-0.2c-1.2-0.2-2.3-0.7-3.3-1.3c0,0,0,0,0,0c1.8,0.2,3.5-0.3,4.9-1.4
		c-0.5,0-0.9-0.1-1.3-0.3c-0.4-0.2-0.8-0.5-1.1-0.8c-0.3-0.3-0.5-0.7-0.7-1.2c0.5,0.1,1,0.1,1.5-0.1c-1.9-0.4-2.7-2.1-2.6-3.3
		c0.5,0.2,1,0.4,1.5,0.4c-0.7-0.5-1.2-1.2-1.4-2c-0.2-0.9-0.1-1.7,0.4-2.4c1.8,2.1,4.1,3.3,6.9,3.5c0,0,0-0.1,0-0.1
		c-0.1-0.6-0.1-1.2,0.1-1.8c0.4-1.1,1.3-1.9,2.5-2.1C-616.4,394.2-616.2,394.2-616,394.1z"/>
</g>
</svg>
