<?xml version="1.0" encoding="utf-8"?>
<!-- Generator: Adobe Illustrator 19.1.0, SVG Export Plug-In . SVG Version: 6.00 Build 0)  -->
<svg version="1.1" id="Layer_1" xmlns="http://www.w3.org/2000/svg" xmlns:xlink="http://www.w3.org/1999/xlink" x="0px" y="0px"
	 viewBox="-619 381 40 40" style="enable-background:new -619 381 40 40;" xml:space="preserve">
<g>
	<g>
		<path d="M-603.1,387.7c0.2,2,0.4,4,0.6,6.1c-0.5,0.1-1,0.1-1.5,0.1c-0.2-2-0.4-4-0.6-6.1C-604.1,387.8-603.6,387.7-603.1,387.7z"
			/>
		<path d="M-611.8,395.3c0.1-0.5,0.3-0.9,0.4-1.4c2,0.5,3.9,1,5.9,1.6c-0.1,0.5-0.3,1-0.4,1.4C-607.9,396.4-609.9,395.9-611.8,395.3
			z"/>
		<path d="M-594.6,413.4c-0.2-2-0.4-4-0.6-6.1c0.5-0.1,1-0.1,1.5-0.1c0.2,2,0.4,4,0.6,6.1C-593.6,413.3-594,413.3-594.6,413.4z"/>
		<path d="M-585.8,405.7c-0.1,0.5-0.3,0.9-0.4,1.4c-2-0.5-3.9-1-5.9-1.6c0.1-0.5,0.3-1,0.4-1.4
			C-589.7,404.7-587.8,405.2-585.8,405.7z"/>
		<g>
			<path d="M-586,390.5l-3-3c-0.8-0.8-1.8-1.2-2.9-1.2c-1,0-2.1,0.4-2.9,1.2l-5.4,5.5c-0.8,0.8-1.2,1.8-1.2,2.9c0,1,0.4,2.1,1.2,2.9
				l0.3,0.3l1.9-1.9l-0.4-0.4c-0.3-0.3-0.4-0.6-0.4-1c0-0.4,0.1-0.7,0.4-1l5.5-5.5c0.2-0.2,0.6-0.3,0.9-0.3c0.4,0,0.7,0.1,1,0.4l3,3
				c0.3,0.3,0.4,0.6,0.4,1s-0.1,0.7-0.4,1l-5.5,5.5c-0.3,0.3-0.6,0.4-1,0.4c-0.4,0-0.7-0.1-1-0.4l-0.5-0.5l-1.8,1.8l0.5,0.5
				c0.8,0.8,1.8,1.2,2.9,1.2c1,0,2.1-0.4,2.9-1.2l5.5-5.5c0.8-0.8,1.2-1.8,1.2-2.9C-584.8,392.4-585.2,391.3-586,390.5z"/>
			<path d="M-600.1,404.7c0.3,0.3,0.4,0.6,0.4,1c0,0.4-0.1,0.7-0.4,1l-5.5,5.5c-0.3,0.3-0.6,0.4-1,0.4c-0.4,0-0.7-0.1-1-0.4l-3-3
				c-0.3-0.3-0.4-0.6-0.4-1c0-0.4,0.1-0.7,0.4-1l5.5-5.5c0.3-0.3,0.6-0.4,1-0.4c0.4,0,0.7,0.1,1,0.4l0.4,0.4l1.8-1.8l-0.3-0.3
				c-0.8-0.9-1.9-1.2-2.9-1.2s-2.1,0.4-2.9,1.2l-5.5,5.5c-0.8,0.8-1.2,1.8-1.2,2.9c0,1,0.4,2.1,1.2,2.9l3,3c0.8,0.8,1.8,1.2,2.9,1.2
				c1,0,2.1-0.4,2.9-1.2l5.5-5.5c0.8-0.8,1.2-1.8,1.2-2.9c0-1-0.4-2.1-1.2-2.9l-0.5-0.5l-1.8,1.8L-600.1,404.7z"/>
		</g>
	</g>
</g>
</svg>
