<?xml version="1.0" encoding="utf-8"?>
<!-- Generator: Adobe Illustrator 19.1.0, SVG Export Plug-In . SVG Version: 6.00 Build 0)  -->
<!DOCTYPE svg PUBLIC "-//W3C//DTD SVG 1.1//EN" "http://www.w3.org/Graphics/SVG/1.1/DTD/svg11.dtd">
<svg version="1.1" id="Layer_1" xmlns="http://www.w3.org/2000/svg" xmlns:xlink="http://www.w3.org/1999/xlink" x="0px" y="0px"
	 viewBox="-469 271 20 20" style="enable-background:new -469 271 20 20;" xml:space="preserve">
<style type="text/css">
	.st0{fill:#111111;}
</style>
<g>
	<path class="st0" d="M-458.9,289.2c-4.5,0-8.2-3.7-8.2-8.2c0-4.5,3.6-8.2,8.2-8.2c4.6,0,8.2,3.7,8.2,8.3
		C-450.7,285.6-454.4,289.3-458.9,289.2z M-454.8,278.1c0.2-0.1,0.3-0.2,0.5-0.3c0.1,0,0.1-0.2,0.1-0.2c-0.1-0.1-0.2-0.3-0.4-0.3
		c-0.2,0-0.3-0.1-0.3-0.2c-0.1-0.2-0.2-0.4-0.3-0.6c-0.2,0.1-0.3,0.2-0.4,0.2c-0.2,0.1-0.3,0-0.3-0.2c-0.2-0.4-0.7-0.6-1.1-0.5
		c0,0.2,0,0.4,0,0.7c0,0,0.1,0.1,0.1,0.1c0.1,0.1,0.1,0.3,0,0.3c-0.3,0.2-0.3,0.3-0.1,0.6c-0.2,0.2-0.4,0.2-0.5,0
		c-0.1-0.3-0.2-0.5-0.6-0.5c0,0,0,0-0.1,0c-0.2-0.1-0.5-0.2-0.7-0.2c-0.1,0-0.4-0.2-0.4-0.4c-0.1-0.3,0.3-0.8,0.6-0.8
		c0.1,0,0.3-0.1,0.4-0.3c0.1-0.2,0.3-0.3,0.5-0.2c0.2,0.1,0.2,0,0.2-0.2c0-0.1,0-0.1,0-0.2c0-0.1-0.1-0.1-0.1-0.2
		c-0.1,0-0.1,0-0.2,0.1c-0.1,0.1-0.1,0.2-0.2,0.2c-0.1,0.1-0.2,0.1-0.3,0c0-0.1-0.1-0.1-0.1-0.2c-0.3,0-0.4-0.1-0.6-0.3
		c-0.1-0.2-0.4-0.2-0.6,0c0.1,0.1,0.3,0.2,0.4,0.3c-0.1,0.2-0.2,0.3-0.3,0.5c0-0.1-0.1-0.1-0.1-0.2c-0.2,0-0.4,0-0.6,0
		c-0.1,0-0.3,0-0.3-0.2c-0.1-0.4-0.1-0.4-0.4-0.2c0.1,0.1,0.2,0.1,0.3,0.2c0,0,0,0,0,0.1c-0.1,0-0.2,0-0.3,0.1
		c-0.1,0-0.1,0.2-0.2,0.2c-0.4-0.3-0.5-0.3-0.9,0c-0.5,0.4-1,0.8-1.5,1.2c-0.3,0.3-0.5,0.6-0.8,1c0.3,0.3,0.6,0.5,0.9,0.8
		c0.1,0.1,0.1,0.2,0.2,0.3c-0.1,0-0.2,0.1-0.2,0.1c0,0.1,0,0.3,0,0.4c-0.2,0.8,0.2,1.3,0.8,1.8c0.1,0.1,0.2,0.2,0.3,0.3
		c0.2,0.3,0.3,0.6,0.4,0.9c0,0.1,0.1,0.1,0.2,0.2c0-0.3-0.3-0.6-0.3-0.9c0.1,0,0.1,0.1,0.2,0.1c0.3,0.4,0.5,0.7,0.8,1.1
		c0.2,0.2,0.3,0.4,0.3,0.6c0,0.1,0.1,0.3,0.2,0.4c0.2,0.2,0.4,0.3,0.7,0.4c0.1,0,0.2,0.1,0.4,0.1c0.2-0.1,0.4,0,0.5,0.2
		c0.2,0.2,0.4,0.3,0.6,0.3c0.1,0,0.2,0,0.2,0.1c0.2,0.4,0.6,0.6,0.9,0.9c0,0,0.1,0,0.1,0c0-0.1,0-0.1,0.1-0.2c-0.1,0-0.2,0-0.2-0.1
		c-0.2-0.1-0.4-0.4-0.3-0.5c0.2-0.3,0-0.5-0.1-0.6c-0.2,0-0.3,0-0.5,0c-0.1-0.3,0.2-0.6,0.2-0.9c-0.3-0.1-0.4-0.1-0.5,0.2
		c-0.1,0.2-0.2,0.3-0.4,0.3c-0.2,0-0.4-0.1-0.5-0.3c-0.2-0.4,0-0.9-0.1-1.3c0,0,0.1-0.1,0.1-0.2c0.3-0.3,0.6-0.3,0.9-0.2
		c0-0.1,0-0.1,0-0.2c0.1,0,0.2,0,0.3,0c0.2,0,0.5,0.1,0.7,0.2c0.1,0.1,0.1,0.3,0.2,0.4c0,0.1,0.1,0.2,0.2,0.2c0,0,0,0,0.1,0
		c0.1-0.2,0.1-0.5-0.1-0.7c-0.1-0.2-0.1-0.3,0.1-0.5c0.1-0.1,0.2-0.1,0.3-0.2c0.2-0.1,0.4-0.4,0.3-0.6c-0.1-0.3,0-0.4,0.3-0.5
		c0.1-0.1,0.2-0.2,0.4-0.3c0.1-0.1,0.1-0.1,0.2-0.2c0.1-0.1,0.2-0.2,0.3-0.3c0.2-0.1,0.4-0.2,0.6-0.3c0-0.1,0-0.1,0-0.1
		c0-0.1-0.1-0.1-0.2-0.2c0.1,0,0.1-0.1,0.2-0.1c-0.2-0.1-0.2-0.1-0.7,0.2C-456.1,278.1-455.4,277.9-454.8,278.1z M-454.1,285.8
		c-0.2-0.1-0.3-0.1-0.5-0.2c-0.2-0.1-0.3-0.3-0.5-0.4c-0.1-0.1-0.3,0-0.4-0.1c-0.1,0-0.2,0-0.3,0c-0.1,0-0.2-0.1-0.4-0.2
		c-0.2-0.1-0.4-0.1-0.5-0.1c-0.2,0-0.3,0.2-0.5,0.3c-0.1,0.1-0.2,0.2-0.3,0.3c0,0.1,0,0.2,0,0.3c0.1,0.4,0,0.7-0.3,1
		c-0.1,0.1-0.1,0.3-0.1,0.3c0.1,0.2,0.1,0.3,0,0.5c0,0.1,0,0.2,0,0.3C-456.3,287.5-455.1,286.8-454.1,285.8z"/>
</g>
</svg>
