<?xml version="1.0" encoding="utf-8"?>
<!-- Generator: Adobe Illustrator 19.1.1, SVG Export Plug-In . SVG Version: 6.00 Build 0)  -->
<svg version="1.1" id="Layer_1" xmlns="http://www.w3.org/2000/svg" xmlns:xlink="http://www.w3.org/1999/xlink" x="0px" y="0px"
	 viewBox="0 0 412 151.3" style="enable-background:new 0 0 412 151.3;" xml:space="preserve">
<style type="text/css">
	.st0{fill:#C6C6C6;}
	.st1{fill:#FFFFFF;}
	.st2{fill:#A77DAF;}
	.st3{opacity:0.6;fill:#62356D;}
	.st4{fill:#62356D;}
	.st5{clip-path:url(#SVGID_4_);fill:#A77DAF;}
	.st6{fill:none;}
</style>
<path class="st0" d="M167.7,136H24c-3.2,0-5.7-2.6-5.7-5.7V31.8c0-3.2,2.6-5.7,5.7-5.7h143.7c3.2,0,5.7,2.6,5.7,5.7v98.5
	C173.4,133.4,170.8,136,167.7,136z"/>
<rect x="25.3" y="36.4" class="st1" width="140.5" height="92"/>
<ellipse class="st2" cx="348.5" cy="52.2" rx="34.4" ry="35.8"/>
<path class="st2" d="M298.9,135.2c0-18.7,9.3-48.3,34.2-48.3h29.9c25.1,0,33.9,29.8,33.9,48.8v0.7h-98v-1.1"/>
<polyline class="st3" points="373.7,128.8 345.1,128.8 345.1,136.5 373.7,136.5 373.7,128.8 "/>
<polyline class="st4" points="263.7,82.6 248.3,82.6 248.3,67.1 263.7,67.1 "/>
<g>
	<polygon class="st4" points="265.9,70.4 265.9,83.4 265.9,84.8 264.7,84.8 251.6,84.8 251.6,136.5 345.1,136.5 345.1,70.4 	"/>
</g>
<rect x="283.3" y="91.4" class="st2" width="6.6" height="6.6"/>
<rect x="283.3" y="96.9" class="st2" width="6.6" height="6.6"/>
<rect x="283.3" y="102.4" class="st2" width="6.6" height="6.6"/>
<rect x="283.3" y="109" class="st2" width="6.6" height="5.5"/>
<rect x="290.8" y="88.8" class="st2" width="1.6" height="1.6"/>
<rect x="290.8" y="90.2" class="st2" width="1.6" height="1.6"/>
<rect x="290.8" y="91.7" class="st2" width="1.6" height="1.6"/>
<rect x="290.8" y="93.1" class="st2" width="1.6" height="1.6"/>
<rect x="292.2" y="88.8" class="st2" width="1.6" height="1.6"/>
<rect x="292.2" y="90.2" class="st2" width="1.6" height="1.6"/>
<rect x="292.2" y="91.7" class="st2" width="1.6" height="1.6"/>
<rect x="292.2" y="93.1" class="st2" width="1.6" height="1.6"/>
<rect x="294.1" y="88" class="st2" width="1.6" height="1.6"/>
<rect x="293.7" y="90.2" class="st2" width="1.6" height="1.6"/>
<rect x="293.7" y="91.7" class="st2" width="1.6" height="1.6"/>
<rect x="293.7" y="93.1" class="st2" width="1.6" height="1.6"/>
<rect x="302.1" y="79.8" class="st2" width="1.6" height="1.6"/>
<rect x="295.7" y="89.6" class="st2" width="1.6" height="1.6"/>
<rect x="295.2" y="91.7" class="st2" width="1.6" height="1.6"/>
<rect x="295.2" y="93.1" class="st2" width="1.6" height="1.6"/>
<rect x="288.8" y="96.9" class="st2" width="6.6" height="6.6"/>
<rect x="288.8" y="102.4" class="st2" width="6.6" height="6.6"/>
<rect x="288.8" y="109" class="st2" width="6.6" height="5.5"/>
<rect x="298.5" y="86.8" class="st2" width="1.6" height="1.6"/>
<rect x="298.5" y="88.3" class="st2" width="1.6" height="1.6"/>
<rect x="298.5" y="89.7" class="st2" width="1.6" height="1.6"/>
<rect x="298.5" y="91.2" class="st2" width="1.6" height="1.6"/>
<rect x="300.7" y="85.5" class="st2" width="1.6" height="1.6"/>
<rect x="300" y="88.3" class="st2" width="1.6" height="1.6"/>
<rect x="300" y="89.7" class="st2" width="1.6" height="1.6"/>
<rect x="300" y="91.2" class="st2" width="1.6" height="1.6"/>
<rect x="308.9" y="76.8" class="st2" width="1.6" height="1.6"/>
<rect x="302.4" y="87.2" class="st2" width="1.6" height="1.6"/>
<rect x="301.5" y="89.7" class="st2" width="1.6" height="1.6"/>
<rect x="301.5" y="91.2" class="st2" width="1.6" height="1.6"/>
<rect x="315.6" y="76.8" class="st2" width="1.6" height="1.6"/>
<rect x="311.9" y="80.1" class="st2" width="1.6" height="1.6"/>
<rect x="304.1" y="88.9" class="st2" width="1.6" height="1.6"/>
<rect x="302.9" y="91.2" class="st2" width="1.6" height="1.6"/>
<rect x="297" y="95" class="st2" width="1.6" height="1.6"/>
<rect x="297" y="96.4" class="st2" width="1.6" height="1.6"/>
<rect x="297" y="97.9" class="st2" width="1.6" height="1.6"/>
<rect x="297" y="99.3" class="st2" width="1.6" height="1.6"/>
<rect x="298.4" y="95" class="st2" width="1.6" height="1.6"/>
<rect x="298.4" y="96.4" class="st2" width="1.6" height="1.6"/>
<rect x="298.4" y="97.9" class="st2" width="1.6" height="1.6"/>
<rect x="298.4" y="99.3" class="st2" width="1.6" height="1.6"/>
<rect x="300.4" y="94.3" class="st2" width="1.6" height="1.6"/>
<rect x="299.9" y="96.4" class="st2" width="1.6" height="1.6"/>
<rect x="299.9" y="97.9" class="st2" width="1.6" height="1.6"/>
<rect x="299.9" y="99.3" class="st2" width="1.6" height="1.6"/>
<rect x="309.3" y="87.1" class="st2" width="1.6" height="1.6"/>
<rect x="302" y="95.9" class="st2" width="1.6" height="1.6"/>
<rect x="301.4" y="97.9" class="st2" width="1.6" height="1.6"/>
<rect x="301.4" y="99.3" class="st2" width="1.6" height="1.6"/>
<rect x="295.4" y="102.4" class="st2" width="6.6" height="6.6"/>
<rect x="295.4" y="109" class="st2" width="6.6" height="5.5"/>
<rect x="306.7" y="85.3" class="st2" width="1.6" height="1.6"/>
<rect x="306.7" y="86.7" class="st2" width="1.6" height="1.6"/>
<rect x="306.7" y="88.2" class="st2" width="1.6" height="1.6"/>
<rect x="306.7" y="89.6" class="st2" width="1.6" height="1.6"/>
<rect x="314.7" y="75.6" class="st2" width="1.6" height="1.6"/>
<rect x="308.2" y="86.7" class="st2" width="1.6" height="1.6"/>
<rect x="308.2" y="88.2" class="st2" width="1.6" height="1.6"/>
<rect x="308.2" y="89.6" class="st2" width="1.6" height="1.6"/>
<rect x="313.4" y="84" class="st2" width="1.6" height="1.6"/>
<g>
	<g>
		<defs>
			<polyline id="SVGID_1_" points="313.4,85.6 315,85.6 315,84 313.4,84 313.4,85.6 			"/>
		</defs>
		<clipPath id="SVGID_2_">
			<use xlink:href="#SVGID_1_"  style="overflow:visible;"/>
		</clipPath>
	</g>
	<g>
		<defs>
			<polyline id="SVGID_3_" points="313.4,85.6 315,85.6 315,84 313.4,84 313.4,85.6 			"/>
		</defs>
		<use xlink:href="#SVGID_3_"  style="overflow:visible;fill:#A77DAF;"/>
		<clipPath id="SVGID_4_">
			<use xlink:href="#SVGID_3_"  style="overflow:visible;"/>
		</clipPath>
		<rect x="313.4" y="84" class="st5" width="1.6" height="1.6"/>
	</g>
	<g>
		<defs>
			<polyline id="SVGID_5_" points="313.4,85.6 315,85.6 315,84 313.4,84 313.4,85.6 			"/>
		</defs>
		<clipPath id="SVGID_6_">
			<use xlink:href="#SVGID_5_"  style="overflow:visible;"/>
		</clipPath>
	</g>
</g>
<rect x="309.6" y="88.2" class="st2" width="1.6" height="1.6"/>
<rect x="309.6" y="89.6" class="st2" width="1.6" height="1.6"/>
<rect x="319.8" y="82.1" class="st2" width="1.6" height="1.6"/>
<rect x="311.1" y="89.6" class="st2" width="1.6" height="1.6"/>
<rect x="305.1" y="93.4" class="st2" width="1.6" height="1.6"/>
<rect x="305.1" y="94.9" class="st2" width="1.6" height="1.6"/>
<rect x="305.1" y="96.3" class="st2" width="1.6" height="1.6"/>
<rect x="305.1" y="97.8" class="st2" width="1.6" height="1.6"/>
<rect x="307.5" y="92.2" class="st2" width="1.6" height="1.6"/>
<rect x="306.6" y="94.9" class="st2" width="1.6" height="1.6"/>
<rect x="306.6" y="96.3" class="st2" width="1.6" height="1.6"/>
<rect x="306.6" y="97.8" class="st2" width="1.6" height="1.6"/>
<rect x="316.8" y="84.2" class="st2" width="1.6" height="1.6"/>
<rect x="309.1" y="93.9" class="st2" width="1.6" height="1.6"/>
<rect x="308.1" y="96.3" class="st2" width="1.6" height="1.6"/>
<rect x="308.1" y="97.8" class="st2" width="1.6" height="1.6"/>
<rect x="319.9" y="81.5" class="st2" width="1.6" height="1.6"/>
<rect x="317.6" y="87.7" class="st2" width="1.6" height="1.6"/>
<rect x="310.9" y="95.6" class="st2" width="1.6" height="1.6"/>
<rect x="309.5" y="97.8" class="st2" width="1.6" height="1.6"/>
<rect x="303.2" y="101.2" class="st2" width="1.6" height="1.6"/>
<rect x="303.2" y="102.6" class="st2" width="1.6" height="1.6"/>
<rect x="303.2" y="104.1" class="st2" width="1.6" height="1.6"/>
<rect x="303.2" y="105.6" class="st2" width="1.6" height="1.6"/>
<rect x="304.7" y="101.2" class="st2" width="1.6" height="1.6"/>
<rect x="304.7" y="102.6" class="st2" width="1.6" height="1.6"/>
<rect x="304.7" y="104.1" class="st2" width="1.6" height="1.6"/>
<rect x="304.7" y="105.6" class="st2" width="1.6" height="1.6"/>
<rect x="306.8" y="100.6" class="st2" width="1.6" height="1.6"/>
<rect x="306.1" y="102.6" class="st2" width="1.6" height="1.6"/>
<rect x="306.1" y="104.1" class="st2" width="1.6" height="1.6"/>
<rect x="306.1" y="105.6" class="st2" width="1.6" height="1.6"/>
<rect x="316.7" y="94.4" class="st2" width="1.6" height="1.6"/>
<rect x="308.4" y="102.2" class="st2" width="1.6" height="1.6"/>
<rect x="307.6" y="104.1" class="st2" width="1.6" height="1.6"/>
<rect x="307.6" y="105.6" class="st2" width="1.6" height="1.6"/>
<rect x="302" y="109" class="st2" width="6.6" height="5.5"/>
<rect x="12.7" y="39.8" class="st6" width="117.9" height="82.5"/>
<g>
	<defs>
		<rect id="SVGID_7_" x="24" y="36.4" width="141.8" height="92"/>
	</defs>
	<clipPath id="SVGID_8_">
		<use xlink:href="#SVGID_7_"  style="overflow:visible;"/>
	</clipPath>
</g>
<polygon class="st1" points="146.7,36.4 154.5,28.6 162.2,36.4 "/>
<g>
	<polyline class="st0" points="170.3,105.6 251.6,105.6 251.6,102.6 170.3,102.6 	"/>
</g>
<g>
	<path d="M33.9,48.8c0.5,0.4,1.1,0.7,1.7,0.7c0.7,0,1.1-0.3,1.1-0.8c0-0.5-0.4-0.7-1-0.9l-0.9-0.4c-0.6-0.3-1.3-0.8-1.3-1.7
		c0-1,0.9-1.8,2.2-1.8c0.8,0,1.5,0.3,2,0.8l-0.6,0.7c-0.4-0.3-0.8-0.6-1.4-0.6c-0.6,0-1,0.3-1,0.8c0,0.5,0.5,0.7,1,0.9l0.9,0.4
		c0.8,0.3,1.3,0.8,1.3,1.7c0,1-0.9,1.9-2.3,1.9c-0.9,0-1.7-0.3-2.3-0.9L33.9,48.8z"/>
	<path d="M38.8,44.1c0-0.4,0.3-0.6,0.7-0.6c0.4,0,0.7,0.3,0.7,0.6c0,0.4-0.3,0.6-0.7,0.6C39.1,44.7,38.8,44.5,38.8,44.1z M38.9,45.6
		h1.1v4.8h-1.1V45.6z"/>
	<path d="M41.9,50.3L41.9,50.3c-0.2-0.2-0.4-0.5-0.4-0.8c0-0.4,0.3-0.7,0.5-0.9v0c-0.3-0.2-0.6-0.7-0.6-1.3c0-1.1,0.9-1.7,1.9-1.7
		c0.3,0,0.5,0,0.7,0.1h1.7v0.8h-0.9c0.2,0.2,0.3,0.5,0.3,0.8c0,1.1-0.8,1.6-1.8,1.6c-0.2,0-0.4,0-0.7-0.1c-0.1,0.1-0.2,0.2-0.2,0.5
		c0,0.3,0.2,0.4,0.8,0.4H44c1.2,0,1.8,0.4,1.8,1.2c0,1-1,1.7-2.6,1.7c-1.2,0-2-0.4-2-1.3C41.2,50.9,41.4,50.5,41.9,50.3z M43.4,51.8
		c0.8,0,1.3-0.4,1.3-0.8c0-0.4-0.3-0.5-0.9-0.5h-0.7c-0.3,0-0.5,0-0.7-0.1c-0.3,0.2-0.4,0.4-0.4,0.6C42.1,51.6,42.6,51.8,43.4,51.8z
		 M44.1,47.2c0-0.6-0.4-1-0.8-1c-0.5,0-0.8,0.3-0.8,1c0,0.6,0.4,1,0.8,1C43.7,48.2,44.1,47.8,44.1,47.2z"/>
	<path d="M46.6,45.6h0.9l0.1,0.6h0c0.4-0.4,0.9-0.8,1.6-0.8c1,0,1.5,0.7,1.5,1.9v3h-1.1v-2.9c0-0.8-0.2-1.1-0.8-1.1
		c-0.4,0-0.7,0.2-1.1,0.6v3.4h-1.1V45.6z"/>
	<path d="M54,44.1c0-0.4,0.3-0.6,0.7-0.6c0.4,0,0.7,0.3,0.7,0.6c0,0.4-0.3,0.6-0.7,0.6C54.3,44.7,54,44.5,54,44.1z M54.2,45.6h1.1
		v4.8h-1.1V45.6z"/>
	<path d="M56.7,45.6h0.9l0.1,0.6h0c0.4-0.4,0.9-0.8,1.6-0.8c1,0,1.5,0.7,1.5,1.9v3h-1.1v-2.9c0-0.8-0.2-1.1-0.8-1.1
		c-0.4,0-0.7,0.2-1.1,0.6v3.4h-1.1V45.6z"/>
</g>
<g>
	<path d="M53.8,68.6h0.8l0.7,2.6c0.1,0.4,0.2,0.8,0.3,1.3h0c0.1-0.4,0.2-0.8,0.3-1.3l0.7-2.6h0.7l0.7,2.6c0.1,0.4,0.2,0.8,0.3,1.3h0
		c0.1-0.4,0.2-0.8,0.3-1.3l0.7-2.6H60l-1.2,4.5h-0.9l-0.6-2.4c-0.1-0.4-0.2-0.8-0.3-1.3h0c-0.1,0.5-0.2,0.9-0.3,1.3l-0.6,2.4H55
		L53.8,68.6z"/>
	<path d="M60.8,67.2c0-0.3,0.2-0.5,0.5-0.5s0.5,0.2,0.5,0.5c0,0.3-0.2,0.5-0.5,0.5S60.8,67.5,60.8,67.2z M61,68.6h0.8v4.5H61V68.6z"
		/>
	<path d="M63.4,69.2h-0.7v-0.6l0.7,0l0.1-1.3h0.6v1.3h1.2v0.6h-1.2v2.5c0,0.6,0.2,0.9,0.7,0.9c0.2,0,0.4-0.1,0.5-0.1l0.1,0.6
		c-0.3,0.1-0.6,0.2-0.8,0.2c-1,0-1.3-0.6-1.3-1.5V69.2z"/>
	<path d="M66.4,66.5h0.8v1.8l0,0.9c0.4-0.4,0.9-0.7,1.5-0.7c0.9,0,1.4,0.6,1.4,1.8v2.9h-0.8v-2.8c0-0.8-0.3-1.2-0.9-1.2
		c-0.5,0-0.8,0.2-1.2,0.7v3.3h-0.8V66.5z"/>
	<path d="M75.8,66.9c0.8,0,1.4,0.4,1.7,0.8l-0.4,0.5c-0.3-0.3-0.7-0.6-1.3-0.6c-1.2,0-2,0.9-2,2.5c0,1.5,0.7,2.5,2,2.5
		c0.4,0,0.9-0.1,1.1-0.4v-1.6h-1.3V70h2v2.6c-0.4,0.4-1.1,0.7-1.9,0.7c-1.6,0-2.7-1.2-2.7-3.2C73,68.1,74.2,66.9,75.8,66.9z"/>
	<path d="M78.8,67.2c0-0.3,0.2-0.5,0.5-0.5s0.5,0.2,0.5,0.5c0,0.3-0.2,0.5-0.5,0.5S78.8,67.5,78.8,67.2z M79,68.6h0.8v4.5H79V68.6z"
		/>
	<path d="M81.4,69.2h-0.7v-0.6l0.7,0l0.1-1.3h0.6v1.3h1.2v0.6h-1.2v2.5c0,0.6,0.2,0.9,0.7,0.9c0.2,0,0.4-0.1,0.5-0.1l0.1,0.6
		c-0.3,0.1-0.6,0.2-0.8,0.2c-1,0-1.3-0.6-1.3-1.5V69.2z"/>
	<path d="M84.4,67h0.8v2.6H88V67h0.8v6.1H88v-2.9h-2.8v2.9h-0.8V67z"/>
	<path d="M90.3,68.6h0.8v2.8c0,0.8,0.3,1.2,0.8,1.2c0.5,0,0.8-0.2,1.2-0.8v-3.2h0.8v4.5h-0.6l-0.1-0.7h0c-0.4,0.5-0.9,0.8-1.5,0.8
		c-1,0-1.4-0.6-1.4-1.8V68.6z"/>
	<path d="M95.4,66.5h0.8v1.8l0,0.8c0.4-0.4,0.9-0.6,1.4-0.6c1.2,0,1.8,0.9,1.8,2.3c0,1.5-0.9,2.4-1.9,2.4c-0.4,0-0.9-0.2-1.3-0.6h0
		L96,73.1h-0.6V66.5z M97.3,72.6c0.7,0,1.3-0.7,1.3-1.8c0-1-0.3-1.7-1.2-1.7c-0.4,0-0.8,0.2-1.2,0.6v2.4
		C96.6,72.5,97,72.6,97.3,72.6z"/>
</g>
<g>
	<path d="M53.8,90.6h0.8l0.7,2.6c0.1,0.4,0.2,0.8,0.3,1.3h0c0.1-0.4,0.2-0.8,0.3-1.3l0.7-2.6h0.7l0.7,2.6c0.1,0.4,0.2,0.8,0.3,1.3h0
		c0.1-0.4,0.2-0.8,0.3-1.3l0.7-2.6H60l-1.2,4.5h-0.9l-0.6-2.4c-0.1-0.4-0.2-0.8-0.3-1.3h0c-0.1,0.5-0.2,0.9-0.3,1.3l-0.6,2.4H55
		L53.8,90.6z"/>
	<path d="M60.8,89.2c0-0.3,0.2-0.5,0.5-0.5s0.5,0.2,0.5,0.5c0,0.3-0.2,0.5-0.5,0.5S60.8,89.5,60.8,89.2z M61,90.6h0.8v4.5H61V90.6z"
		/>
	<path d="M63.4,91.3h-0.7v-0.6l0.7,0l0.1-1.3h0.6v1.3h1.2v0.6h-1.2v2.5c0,0.6,0.2,0.9,0.7,0.9c0.2,0,0.4-0.1,0.5-0.1l0.1,0.6
		c-0.3,0.1-0.6,0.2-0.8,0.2c-1,0-1.3-0.6-1.3-1.5V91.3z"/>
	<path d="M66.4,88.5h0.8v1.8l0,0.9c0.4-0.4,0.9-0.7,1.5-0.7c0.9,0,1.4,0.6,1.4,1.8v2.9h-0.8v-2.8c0-0.8-0.3-1.2-0.9-1.2
		c-0.5,0-0.8,0.2-1.2,0.7v3.3h-0.8V88.5z"/>
	<path d="M75.8,88.9c0.8,0,1.4,0.4,1.7,0.8l-0.4,0.5c-0.3-0.3-0.7-0.6-1.3-0.6c-1.2,0-2,0.9-2,2.5c0,1.5,0.7,2.5,2,2.5
		c0.4,0,0.9-0.1,1.1-0.4v-1.6h-1.3V92h2v2.6c-0.4,0.4-1.1,0.7-1.9,0.7c-1.6,0-2.7-1.2-2.7-3.2C73,90.1,74.2,88.9,75.8,88.9z"/>
	<path d="M80.7,90.5c1.1,0,2.1,0.9,2.1,2.4c0,1.5-1,2.4-2.1,2.4s-2.1-0.9-2.1-2.4C78.6,91.4,79.6,90.5,80.7,90.5z M80.7,94.6
		c0.8,0,1.3-0.7,1.3-1.7c0-1-0.5-1.7-1.3-1.7c-0.8,0-1.3,0.7-1.3,1.7C79.4,93.9,80,94.6,80.7,94.6z"/>
	<path d="M85.7,90.5c1.1,0,2.1,0.9,2.1,2.4c0,1.5-1,2.4-2.1,2.4s-2.1-0.9-2.1-2.4C83.7,91.4,84.6,90.5,85.7,90.5z M85.7,94.6
		c0.8,0,1.3-0.7,1.3-1.7c0-1-0.5-1.7-1.3-1.7c-0.8,0-1.3,0.7-1.3,1.7C84.4,93.9,85,94.6,85.7,94.6z"/>
	<path d="M89.3,95L89.3,95c-0.2-0.2-0.4-0.4-0.4-0.8c0-0.4,0.3-0.7,0.5-0.8v0c-0.3-0.2-0.6-0.7-0.6-1.2c0-1,0.8-1.6,1.7-1.6
		c0.3,0,0.5,0,0.6,0.1h1.6v0.6h-0.9c0.2,0.2,0.4,0.5,0.4,0.9c0,1-0.7,1.6-1.7,1.6c-0.2,0-0.5-0.1-0.7-0.2c-0.2,0.1-0.3,0.3-0.3,0.5
		c0,0.3,0.2,0.5,0.8,0.5h0.9c1,0,1.6,0.3,1.6,1.1c0,0.8-0.9,1.6-2.3,1.6c-1.1,0-1.9-0.4-1.9-1.2C88.7,95.6,88.9,95.3,89.3,95z
		 M90.7,96.7c0.9,0,1.4-0.4,1.4-0.9c0-0.4-0.3-0.6-0.9-0.6h-0.8c-0.2,0-0.4,0-0.6-0.1c-0.3,0.2-0.5,0.5-0.5,0.8
		C89.3,96.4,89.8,96.7,90.7,96.7z M91.5,92.1c0-0.7-0.4-1-1-1s-1,0.4-1,1c0,0.7,0.4,1.1,1,1.1S91.5,92.8,91.5,92.1z"/>
	<path d="M93.7,88.5h0.8v5.8c0,0.2,0.1,0.3,0.2,0.3c0,0,0.1,0,0.2,0l0.1,0.6c-0.1,0-0.2,0.1-0.4,0.1c-0.6,0-0.8-0.4-0.8-1V88.5z"/>
	<path d="M97.7,90.5c1.2,0,1.8,0.8,1.8,2.1c0,0.2,0,0.3,0,0.4h-3c0.1,1,0.6,1.6,1.5,1.6c0.4,0,0.8-0.1,1.1-0.4l0.3,0.5
		c-0.4,0.3-0.9,0.5-1.5,0.5c-1.2,0-2.2-0.9-2.2-2.4S96.7,90.5,97.7,90.5z M98.9,92.5c0-0.9-0.4-1.4-1.1-1.4c-0.6,0-1.2,0.5-1.3,1.4
		H98.9z"/>
</g>
<g>
	<path d="M53.8,115.7h0.8l0.7,2.6c0.1,0.4,0.2,0.8,0.3,1.3h0c0.1-0.4,0.2-0.8,0.3-1.3l0.7-2.6h0.7l0.7,2.6c0.1,0.4,0.2,0.8,0.3,1.3
		h0c0.1-0.4,0.2-0.8,0.3-1.3l0.7-2.6H60l-1.2,4.5h-0.9l-0.6-2.4c-0.1-0.4-0.2-0.8-0.3-1.3h0c-0.1,0.5-0.2,0.9-0.3,1.3l-0.6,2.4H55
		L53.8,115.7z"/>
	<path d="M60.8,114.3c0-0.3,0.2-0.5,0.5-0.5s0.5,0.2,0.5,0.5c0,0.3-0.2,0.5-0.5,0.5S60.8,114.6,60.8,114.3z M61,115.7h0.8v4.5H61
		V115.7z"/>
	<path d="M63.4,116.4h-0.7v-0.6l0.7,0l0.1-1.3h0.6v1.3h1.2v0.6h-1.2v2.5c0,0.6,0.2,0.9,0.7,0.9c0.2,0,0.4-0.1,0.5-0.1l0.1,0.6
		c-0.3,0.1-0.6,0.2-0.8,0.2c-1,0-1.3-0.6-1.3-1.5V116.4z"/>
	<path d="M66.4,113.7h0.8v1.8l0,0.9c0.4-0.4,0.9-0.7,1.5-0.7c0.9,0,1.4,0.6,1.4,1.8v2.9h-0.8v-2.8c0-0.8-0.3-1.2-0.9-1.2
		c-0.5,0-0.8,0.2-1.2,0.7v3.3h-0.8V113.7z"/>
	<path d="M75,115.6c1.2,0,1.8,0.8,1.8,2.1c0,0.2,0,0.3,0,0.4h-3c0.1,1,0.6,1.6,1.5,1.6c0.4,0,0.8-0.1,1.1-0.4l0.3,0.5
		c-0.4,0.3-0.9,0.5-1.5,0.5c-1.2,0-2.2-0.9-2.2-2.4S74,115.6,75,115.6z M76.1,117.7c0-0.9-0.4-1.4-1.1-1.4c-0.6,0-1.2,0.5-1.3,1.4
		H76.1z"/>
	<path d="M77.6,117.6h2.1v0.6h-2.1V117.6z"/>
	<path d="M80.8,115.7h0.6l0.1,0.6h0c0.4-0.4,0.9-0.8,1.4-0.8c0.7,0,1.1,0.3,1.2,0.9c0.5-0.5,0.9-0.9,1.5-0.9c0.9,0,1.4,0.6,1.4,1.8
		v2.9h-0.8v-2.8c0-0.8-0.3-1.2-0.8-1.2c-0.4,0-0.7,0.2-1.1,0.7v3.3h-0.8v-2.8c0-0.8-0.3-1.2-0.8-1.2c-0.3,0-0.7,0.2-1.1,0.7v3.3
		h-0.8V115.7z"/>
	<path d="M91.1,117.4c0-0.6-0.2-1.1-0.9-1.1c-0.5,0-1,0.2-1.3,0.5l-0.3-0.5c0.4-0.3,1-0.6,1.8-0.6c1.1,0,1.6,0.7,1.6,1.9v2.8h-0.6
		l-0.1-0.5h0c-0.4,0.4-0.9,0.6-1.5,0.6c-0.8,0-1.3-0.5-1.3-1.3C88.3,118.1,89.1,117.6,91.1,117.4z M89.8,119.8
		c0.4,0,0.8-0.2,1.2-0.6v-1.3c-1.5,0.2-2,0.6-2,1.1C89,119.5,89.4,119.8,89.8,119.8z"/>
	<path d="M93.1,114.3c0-0.3,0.2-0.5,0.5-0.5s0.5,0.2,0.5,0.5c0,0.3-0.2,0.5-0.5,0.5S93.1,114.6,93.1,114.3z M93.3,115.7H94v4.5h-0.8
		V115.7z"/>
	<path d="M95.5,113.7h0.8v5.8c0,0.2,0.1,0.3,0.2,0.3c0,0,0.1,0,0.2,0l0.1,0.6c-0.1,0-0.2,0.1-0.4,0.1c-0.6,0-0.8-0.4-0.8-1V113.7z"
		/>
</g>
<g>
	<g>
		<g>
			<path class="st0" d="M40.8,115l6.5-4.4c0,0-0.2-0.3-0.5-0.3H33.3c-0.5,0-0.6,0.4-0.6,0.4l6.9,4.4C39.9,115.3,40.4,115.3,40.8,115
				z"/>
			<path class="st0" d="M39.6,116.5l-6.9-4.4v7.4c0,0.3,0.3,0.8,0.8,0.8h13.1c0.3,0,0.7-0.4,0.7-0.8V112l-6.5,4.5
				C40.5,116.7,39.9,116.7,39.6,116.5z"/>
		</g>
	</g>
</g>
<g>
	<g>
		<path class="st0" d="M45.7,67.6c0-0.9-0.4-1.7-0.9-2.3c0.1-0.2,0.4-1.1-0.1-2.3c0,0-0.7-0.2-2.4,0.9c-0.6-0.2-1.3-0.3-2-0.3
			s-1.5,0.1-2.1,0.3c-1.7-1.1-2.4-0.9-2.4-0.9c-0.5,1.2-0.2,2-0.1,2.3c-0.6,0.6-0.9,1.4-0.9,2.3c0,3,1.7,3.9,3.4,4.2
			c0.1,0,0.2,0,0.3,0c-0.1,0.2-0.2,0.5-0.3,0.8c-0.5,0.2-1.6,0.6-2.2-0.6c0,0-0.4-0.7-1.2-0.7c0,0-0.7,0-0.1,0.5
			c0,0,0.5,0.3,0.8,1.1c0,0,0.4,1.4,2.3,1.1c0.1,0,0.2,0,0.3-0.1l0,0c0,0.6,0,1.1,0,1.3c0,0.1,0,0.6-0.1,1.1l0,0
			c-0.2,0.2-0.5,0.3-0.6,0.4s0,0.2,0.1,0.3c0,0,0.1,0,0.2,0c0.2,0,0.4,0,0.6-0.2c0.5-0.2,0.6-0.6,0.6-0.9c0-0.4,0-2,0-2
			s0-0.4,0.1-0.6c0.3-0.2,0.3-0.2,0.4-0.2l0,0v3.7c0,0,0,0.2-0.1,0.4c0,0-0.1,0.1-0.2,0.2c-0.1,0.1-0.2,0.1-0.2,0.2
			c0,0.2,0.1,0.3,0.4,0.2c0.2,0,0.5-0.2,0.7-0.4l0.1-0.1c0.2-0.3,0.2-0.5,0.2-0.6c0-0.1,0-3.6,0-3.6s0-0.1,0.1-0.1s0.1,0.1,0.1,0.1
			s0,3.5,0,3.6c0,0.1,0,0.4,0.2,0.6c0,0,0,0,0,0.1c0.2,0.3,0.5,0.4,0.7,0.4c0.3,0,0.4-0.1,0.4-0.2c0-0.1-0.2-0.2-0.3-0.3L41.3,77
			c-0.1-0.1-0.1-0.4-0.1-0.4v-3.8l0,0c0,0,0.1,0.1,0.2,0.3c0.1,0.3,0.1,0.6,0.1,0.6s0,1.7,0,2c0,0.3,0.1,0.6,0.4,0.7
			c0.1,0.1,0.2,0.1,0.3,0.2c0.5,0.2,0.7,0.2,0.8,0.1c0.1,0,0.2-0.2,0.1-0.3c-0.1-0.1-0.3-0.2-0.6-0.5c-0.1-0.2-0.1-0.6-0.1-0.6
			s0-2.2,0-2.4c0-0.4-0.2-0.8-0.2-0.8s-0.2-0.3-0.3-0.5l-0.1-0.1C43.9,71.5,45.7,70.6,45.7,67.6z"/>
	</g>
</g>
<g>
	<g>
		<path id="Google_2_" class="st0" d="M43.2,85.6h-3.9c-1.1,0-2.4,0.2-3.4,1.1c-0.8,0.7-1.3,1.7-1.3,2.6c0,1.5,1.2,3,3.1,3
			c0.2,0,0.4,0,0.6,0c0,0.2-0.1,0.4-0.1,0.7c0,0.6,0.3,1,0.6,1.3c-0.9,0.1-2.5,0.2-3.6,0.9c-1.1,0.7-1.5,1.7-1.5,2.4
			c0,1.4,1.4,2.7,4.1,2.7c3.3,0,5-1.8,5-3.6c0-1.3-0.8-2-1.6-2.7l-0.7-0.5c-0.3-0.3-0.6-0.5-0.6-0.9c0-0.4,0.3-0.7,0.5-1
			c0.8-0.6,1.6-1.3,1.6-2.7c0-1.5-0.9-2.3-1.4-2.6h1.2L43.2,85.6z M41.5,97.3c0,1.2-1.3,2-3,2c-2.2,0-3.1-0.8-3.1-2.2s1.2-1.8,1.7-2
			c0.8-0.3,1.9-0.3,2-0.3c0.2,0,0.3,0,0.4,0C40.8,95.8,41.5,96.4,41.5,97.3z M39.9,91.2c-0.3,0.3-0.8,0.5-1.3,0.5
			c-1.7,0-2.4-2.1-2.4-3.3c0-0.5,0.1-1,0.4-1.4c0.3-0.4,0.9-0.6,1.4-0.6c1.6,0,2.5,2.2,2.5,3.5C40.4,90.1,40.4,90.7,39.9,91.2z"/>
		<rect x="45.3" y="90.4" class="st0" width="0.9" height="4.2"/>
		<rect x="43.8" y="92.1" class="st0" width="4.1" height="0.9"/>
	</g>
</g>
<rect x="25.3" y="103.7" class="st0" width="141.2" height="0.7"/>
<rect x="25.3" y="81.2" class="st0" width="141.2" height="0.7"/>
<rect x="25.3" y="58" class="st0" width="141.2" height="0.7"/>
<rect x="153.8" y="42" transform="matrix(0.7071 -0.7071 0.7071 0.7071 12.0327 123.3174)" width="2.1" height="10.3"/>
<rect x="153.8" y="42" transform="matrix(0.7071 0.7071 -0.7071 0.7071 78.6902 -95.707)" width="2.1" height="10.3"/>
</svg>
