<?xml version="1.0" encoding="utf-8"?>
<!-- Generator: Adobe Illustrator 19.1.0, SVG Export Plug-In . SVG Version: 6.00 Build 0)  -->
<!DOCTYPE svg PUBLIC "-//W3C//DTD SVG 1.1//EN" "http://www.w3.org/Graphics/SVG/1.1/DTD/svg11.dtd">
<svg version="1.1" id="Layer_1" xmlns="http://www.w3.org/2000/svg" xmlns:xlink="http://www.w3.org/1999/xlink" x="0px" y="0px"
	 viewBox="0 -3 25 30" style="enable-background:new 0 -3 25 30;" xml:space="preserve">
<style type="text/css">
	.st0{fill:#9E9E9E;}
	.st1{fill:#7F7F7F;}
</style>
<path class="st0" d="M12.5,13.7c-2.3,0-4.1-1.7-4.2-3.9c-0.1-2.3,1.6-4.3,3.8-4.4c0.1,0,0.2,0,0.3,0c2.2,0,4.1,1.7,4.2,4
	C16.7,11.6,15,13.5,12.5,13.7C12.5,13.7,12.5,13.7,12.5,13.7 M9.4-0.6c0,0-0.1,0-0.2,0c-0.5,0.2-1,0.4-1.6,0.6
	C7.5,0.2,7.5,0.2,7.5,0.4c0,0.4,0.1,0.8,0.1,1.2c0,0.4,0,0.8,0.1,1.2c0,0.2,0,0.3-0.2,0.4C6.9,3.5,6.4,4,6,4.6
	C5.9,4.7,5.8,4.8,5.7,4.8c0,0,0,0-0.1,0C4.9,4.7,4.2,4.7,3.5,4.6c0,0,0,0-0.1,0c-0.1,0-0.2,0-0.3,0.2C2.9,5.4,2.7,5.9,2.5,6.4
	c-0.1,0.2,0,0.3,0.1,0.4c0.6,0.5,1.1,0.9,1.7,1.4c0.2,0.1,0.2,0.3,0.2,0.4c-0.1,0.6-0.1,1.3,0,1.9c0,0.2,0,0.3-0.2,0.4
	c-0.5,0.4-1,0.9-1.6,1.3c-0.2,0.1-0.2,0.2-0.1,0.4c0.2,0.5,0.4,1,0.6,1.6c0.1,0.1,0.1,0.2,0.3,0.2c0,0,0,0,0.1,0
	c0.7-0.1,1.4-0.1,2.1-0.1c0,0,0,0,0.1,0c0.1,0,0.3,0,0.4,0.2C6.5,15.1,7,15.6,7.6,16c0.2,0.1,0.2,0.2,0.2,0.4
	c-0.1,0.7-0.1,1.4-0.2,2.2c0,0.2,0.1,0.3,0.2,0.3c0.5,0.2,1,0.4,1.5,0.6c0.1,0,0.1,0.1,0.2,0.1c0.1,0,0.2-0.1,0.3-0.2
	c0.5-0.6,0.9-1.1,1.4-1.7c0.1-0.1,0.2-0.2,0.3-0.2c0,0,0,0,0.1,0c0.3,0,0.6,0,0.9,0c0.3,0,0.6,0,1-0.1c0,0,0.1,0,0.1,0
	c0.1,0,0.2,0.1,0.3,0.2c0.4,0.5,0.9,1.1,1.4,1.6c0.1,0.1,0.2,0.1,0.2,0.1c0,0,0.1,0,0.2,0c0.5-0.2,1-0.4,1.5-0.6
	c0.2-0.1,0.3-0.2,0.2-0.4c-0.1-0.7-0.1-1.4-0.1-2.1c0-0.2,0-0.3,0.2-0.4c0.5-0.4,1-0.9,1.4-1.4c0.1-0.1,0.2-0.2,0.3-0.2
	c0,0,0,0,0.1,0c0.7,0.1,1.5,0.1,2.2,0.1c0,0,0,0,0.1,0c0.2,0,0.2-0.1,0.3-0.2c0.2-0.5,0.4-1,0.6-1.5c0.1-0.2,0.1-0.3-0.1-0.4
	c-0.6-0.5-1.1-0.9-1.7-1.4c-0.1-0.1-0.2-0.2-0.2-0.3c0.1-0.6,0.1-1.2,0-1.8c0-0.2,0-0.3,0.2-0.5c0.6-0.5,1.2-1,1.7-1.5
	c0.2-0.1,0.2-0.2,0.1-0.4c-0.2-0.5-0.4-1-0.6-1.5c-0.1-0.2-0.2-0.3-0.4-0.3c0,0,0,0-0.1,0c-0.8,0.1-1.5,0.1-2.3,0.2c0,0,0,0-0.1,0
	c-0.1,0-0.2,0-0.3-0.2c-0.4-0.5-0.8-1-1.3-1.4c-0.1-0.1-0.2-0.2-0.2-0.4c0.1-0.8,0.1-1.5,0.1-2.3c0-0.2,0-0.3-0.2-0.4
	c-0.5-0.2-1-0.4-1.5-0.6c-0.1,0-0.1,0-0.2,0c-0.1,0-0.2,0-0.2,0.1c-0.5,0.6-0.9,1.1-1.4,1.7c-0.1,0.1-0.1,0.2-0.3,0.2c0,0,0,0-0.1,0
	c-0.4-0.1-0.8-0.1-1.2-0.1c-0.3,0-0.6,0-0.9,0.1c0,0,0,0-0.1,0c-0.1,0-0.2-0.1-0.3-0.2c-0.5-0.6-1-1.2-1.5-1.7
	C9.6-0.5,9.5-0.6,9.4-0.6"/>
<polygon class="st1" points="17.2,22.2 12.7,25.4 8.2,22.2 "/>
</svg>
