<?xml version="1.0" encoding="utf-8"?>
<!-- Generator: Adobe Illustrator 18.1.1, SVG Export Plug-In . SVG Version: 6.00 Build 0)  -->
<!DOCTYPE svg PUBLIC "-//W3C//DTD SVG 1.1//EN" "http://www.w3.org/Graphics/SVG/1.1/DTD/svg11.dtd">
<svg version="1.1" id="Layer_1" xmlns="http://www.w3.org/2000/svg" xmlns:xlink="http://www.w3.org/1999/xlink" x="0px" y="0px"
	 viewBox="0 0 25 30" style="enable-background:new 0 0 25 30;" xml:space="preserve">
<path style="fill:#9E9E9E;" d="M17.7,16.6c-0.6,0-1.2,0.2-1.7,0.6l-6-3.7c0-0.1,0-0.1,0-0.2c0-0.3-0.1-0.6-0.1-0.8l6.3-4.2
	c0.4,0.3,1,0.4,1.5,0.4c1.6,0,2.9-1.3,2.9-2.9c0-1.6-1.3-2.9-2.9-2.9c-1.6,0-2.9,1.3-2.9,2.9c0,0.2,0,0.3,0,0.5l-6.5,4.3
	c-0.4-0.2-0.8-0.3-1.2-0.3c-1.6,0-2.9,1.3-2.9,2.9c0,1.6,1.3,2.9,2.9,2.9c0.7,0,1.3-0.2,1.7-0.6l5.9,3.7c0,0.1,0,0.2,0,0.2
	c0,1.6,1.3,2.9,2.9,2.9c1.6,0,2.9-1.3,2.9-2.9C20.6,17.9,19.3,16.6,17.7,16.6z"/>
<polygon style="fill:#7F7F7F;" points="17.2,25.2 12.7,28.4 8.2,25.2 "/>
</svg>
