<?xml version="1.0" encoding="UTF-8" standalone="no"?>
<!-- Generator: Adobe Illustrator 16.0.0, SVG Export Plug-In . SVG Version: 6.00 Build 0)  -->

<svg
   xmlns:dc="http://purl.org/dc/elements/1.1/"
   xmlns:cc="http://creativecommons.org/ns#"
   xmlns:rdf="http://www.w3.org/1999/02/22-rdf-syntax-ns#"
   xmlns:svg="http://www.w3.org/2000/svg"
   xmlns="http://www.w3.org/2000/svg"
   xmlns:sodipodi="http://sodipodi.sourceforge.net/DTD/sodipodi-0.dtd"
   xmlns:inkscape="http://www.inkscape.org/namespaces/inkscape"
   version="1.1"
   id="Layer_1"
   x="0px"
   y="0px"
   width="217"
   height="283.06201"
   viewBox="0 0 217 283.06201"
   enable-background="new 0 0 412 430"
   xml:space="preserve"
   inkscape:version="0.48.4 r9939"
   sodipodi:docname="draw.io-logo.svg"><metadata
     id="metadata35"><rdf:RDF><cc:Work
         rdf:about=""><dc:format>image/svg+xml</dc:format><dc:type
           rdf:resource="http://purl.org/dc/dcmitype/StillImage" /></cc:Work></rdf:RDF></metadata><defs
     id="defs33" /><sodipodi:namedview
     pagecolor="#ffffff"
     bordercolor="#666666"
     borderopacity="1"
     objecttolerance="10"
     gridtolerance="10"
     guidetolerance="10"
     inkscape:pageopacity="0"
     inkscape:pageshadow="2"
     inkscape:window-width="1233"
     inkscape:window-height="1067"
     id="namedview31"
     showgrid="false"
     fit-margin-top="0"
     fit-margin-left="0"
     fit-margin-right="0"
     fit-margin-bottom="0"
     inkscape:zoom="0.54883721"
     inkscape:cx="112.64407"
     inkscape:cy="214.94336"
     inkscape:window-x="1230"
     inkscape:window-y="195"
     inkscape:window-maximized="0"
     inkscape:current-layer="Layer_1" /><path
     d="M 217,172.733 C 217,187.24 205.239,199 190.732,199 H 26.268 C 11.761,199 0,187.24 0,172.733 V 26.267 C 0,11.76 11.761,0 26.268,0 H 190.733 C 205.239,0 217,11.76 217,26.267 v 146.466 z"
     id="path3"
     inkscape:connector-curvature="0"
     style="fill:#ff8e14" /><path
     d="M 178.522,113 H 144.959 L 130.594,88 h 8.531 C 142.562,88 145,84.848 145,81.412 V 44.087 C 145,40.651 142.562,38 139.125,38 H 81.065 C 77.627,38 75,40.651 75,44.087 V 81.412 C 75,84.848 77.628,88 81.065,88 h 8.762 L 75.459,113 H 41.667 C 38.23,113 35,115.302 35,118.737 v 33.175 c 0,3.438 3.23,6.088 6.667,6.088 h 58.06 c 3.438,0 6.273,-2.649 6.273,-6.088 V 118.737 C 106,115.301 103.164,113 99.727,113 H 88.373 L 102.74,88 h 14.942 l 14.365,25 h -11.586 c -3.433,0 -6.461,2.302 -6.461,5.737 v 33.175 c 0,3.438 3.028,6.088 6.461,6.088 h 58.062 c 3.437,0 6.478,-2.649 6.478,-6.088 V 118.737 C 185,115.302 181.959,113 178.522,113 z"
     id="path5"
     inkscape:connector-curvature="0"
     style="fill:#ffffff" /><path
     stroke-miterlimit="10"
     d="m 8.355,262.799 c 0,-5.637 1.216,-10.184 3.649,-13.64 2.433,-3.457 5.862,-5.186 10.287,-5.186 1.783,0 3.391,0.386 4.822,1.156 1.431,0.771 2.686,1.871 3.765,3.303 v -19.585 h 9.677 v 51.521 h -8.224 l -0.826,-4.393 c -1.122,1.651 -2.455,2.912 -3.996,3.781 -1.541,0.87 -3.302,1.305 -5.283,1.305 -4.382,0 -7.789,-1.606 -10.222,-4.821 -2.434,-3.215 -3.649,-7.464 -3.649,-12.748 v -0.693 z m 9.61,0.693 c 0,3.126 0.528,5.587 1.585,7.381 1.057,1.795 2.774,2.691 5.152,2.691 1.387,0 2.598,-0.28 3.633,-0.842 1.034,-0.562 1.883,-1.382 2.543,-2.46 v -15.226 c -0.66,-1.122 -1.503,-1.998 -2.526,-2.625 -1.024,-0.628 -2.219,-0.941 -3.583,-0.941 -2.356,0 -4.079,1.046 -5.169,3.138 -1.09,2.092 -1.635,4.821 -1.635,8.19 v 0.694 z"
     id="path7"
     inkscape:connector-curvature="0"
     style="fill:#ffffff;stroke:#ff8e14;stroke-width:4;stroke-miterlimit:10" /><path
     stroke-miterlimit="10"
     d="m 64.781,252.924 -3.533,-0.1 c -1.432,0 -2.609,0.298 -3.534,0.893 -0.925,0.594 -1.63,1.431 -2.113,2.51 v 24.142 h -9.61 v -35.733 h 8.949 l 0.43,5.283 c 0.837,-1.871 1.921,-3.329 3.253,-4.375 1.332,-1.046 2.868,-1.569 4.607,-1.569 0.483,0 0.93,0.039 1.337,0.116 0.407,0.077 0.82,0.17 1.239,0.28 l -1.025,8.553 z"
     id="path9"
     inkscape:connector-curvature="0"
     style="fill:#ffffff;stroke:#ff8e14;stroke-width:4;stroke-miterlimit:10" /><path
     stroke-miterlimit="10"
     d="m 88.842,280.368 c -0.353,-0.814 -0.655,-1.673 -0.908,-2.576 -0.254,-0.902 -0.436,-1.827 -0.545,-2.774 -0.991,1.74 -2.301,3.183 -3.931,4.327 -1.629,1.145 -3.566,1.717 -5.813,1.717 -3.743,0 -6.627,-0.963 -8.652,-2.89 -2.026,-1.926 -3.038,-4.552 -3.038,-7.877 0,-3.5 1.348,-6.214 4.045,-8.141 2.697,-1.926 6.633,-2.89 11.807,-2.89 h 5.417 v -2.84 c 0,-1.718 -0.452,-3.05 -1.354,-3.996 -0.903,-0.946 -2.246,-1.421 -4.029,-1.421 -1.563,0 -2.769,0.38 -3.616,1.14 -0.847,0.76 -1.271,1.8 -1.271,3.121 h -9.28 l -0.065,-0.198 c -0.154,-3.016 1.16,-5.619 3.946,-7.811 2.785,-2.19 6.424,-3.286 10.915,-3.286 4.293,0 7.766,1.079 10.42,3.236 2.652,2.158 3.979,5.251 3.979,9.28 v 14.763 c 0,1.674 0.126,3.248 0.38,4.723 0.252,1.476 0.654,2.939 1.205,4.393 h -9.612 z m -8.818,-6.44 c 1.673,0 3.171,-0.418 4.492,-1.255 1.32,-0.836 2.223,-1.805 2.708,-2.906 v -5.053 h -5.417 c -2.047,0 -3.594,0.507 -4.64,1.52 -1.046,1.013 -1.568,2.257 -1.568,3.731 0,1.211 0.391,2.175 1.172,2.89 0.781,0.715 1.866,1.073 3.253,1.073 z"
     id="path11"
     inkscape:connector-curvature="0"
     style="fill:#ffffff;stroke:#ff8e14;stroke-width:4;stroke-miterlimit:10" /><path
     stroke-miterlimit="10"
     d="m 133.148,267.092 h 0.199 l 4.326,-22.457 h 9.379 l -9.082,35.733 h -8.059 l -6.639,-20.608 h -0.197 l -6.639,20.608 h -8.025 l -9.082,-35.733 h 9.379 l 4.392,22.358 h 0.199 l 6.67,-22.358 h 6.441 l 6.738,22.457 z"
     id="path13"
     inkscape:connector-curvature="0"
     style="fill:#ffffff;stroke:#ff8e14;stroke-width:4;stroke-miterlimit:10" /><path
     stroke-miterlimit="10"
     d="m 156.418,280.368 h -9.645 v -8.454 h 9.645 v 8.454 z"
     id="path15"
     inkscape:connector-curvature="0"
     style="fill:#ffffff;stroke:#ff8e14;stroke-width:4;stroke-miterlimit:10" /><path
     d="m 8.355,262.799 c 0,-5.637 1.216,-10.184 3.649,-13.64 2.433,-3.457 5.862,-5.186 10.287,-5.186 1.783,0 3.391,0.386 4.822,1.156 1.431,0.771 2.686,1.871 3.765,3.303 v -19.585 h 9.677 v 51.521 h -8.224 l -0.826,-4.393 c -1.122,1.651 -2.455,2.912 -3.996,3.781 -1.541,0.87 -3.302,1.305 -5.283,1.305 -4.382,0 -7.789,-1.606 -10.222,-4.821 -2.434,-3.215 -3.649,-7.464 -3.649,-12.748 v -0.693 z m 9.61,0.693 c 0,3.126 0.528,5.587 1.585,7.381 1.057,1.795 2.774,2.691 5.152,2.691 1.387,0 2.598,-0.28 3.633,-0.842 1.034,-0.562 1.883,-1.382 2.543,-2.46 v -15.226 c -0.66,-1.122 -1.503,-1.998 -2.526,-2.625 -1.024,-0.628 -2.219,-0.941 -3.583,-0.941 -2.356,0 -4.079,1.046 -5.169,3.138 -1.09,2.092 -1.635,4.821 -1.635,8.19 v 0.694 z"
     id="path17"
     inkscape:connector-curvature="0"
     style="fill:#ffffff" /><path
     d="m 64.781,252.924 -3.533,-0.1 c -1.432,0 -2.609,0.298 -3.534,0.893 -0.925,0.594 -1.63,1.431 -2.113,2.51 v 24.142 h -9.61 v -35.733 h 8.949 l 0.43,5.283 c 0.837,-1.871 1.921,-3.329 3.253,-4.375 1.332,-1.046 2.868,-1.569 4.607,-1.569 0.483,0 0.93,0.039 1.337,0.116 0.407,0.077 0.82,0.17 1.239,0.28 l -1.025,8.553 z"
     id="path19"
     inkscape:connector-curvature="0"
     style="fill:#ffffff" /><path
     d="m 88.842,280.368 c -0.353,-0.814 -0.655,-1.673 -0.908,-2.576 -0.254,-0.902 -0.436,-1.827 -0.545,-2.774 -0.991,1.74 -2.301,3.183 -3.931,4.327 -1.629,1.145 -3.566,1.717 -5.813,1.717 -3.743,0 -6.627,-0.963 -8.652,-2.89 -2.026,-1.926 -3.038,-4.552 -3.038,-7.877 0,-3.5 1.348,-6.214 4.045,-8.141 2.697,-1.926 6.633,-2.89 11.807,-2.89 h 5.417 v -2.84 c 0,-1.718 -0.452,-3.05 -1.354,-3.996 -0.903,-0.946 -2.246,-1.421 -4.029,-1.421 -1.563,0 -2.769,0.38 -3.616,1.14 -0.847,0.76 -1.271,1.8 -1.271,3.121 h -9.28 l -0.065,-0.198 c -0.154,-3.016 1.16,-5.619 3.946,-7.811 2.785,-2.19 6.424,-3.286 10.915,-3.286 4.293,0 7.766,1.079 10.42,3.236 2.652,2.158 3.979,5.251 3.979,9.28 v 14.763 c 0,1.674 0.126,3.248 0.38,4.723 0.252,1.476 0.654,2.939 1.205,4.393 h -9.612 z m -8.818,-6.44 c 1.673,0 3.171,-0.418 4.492,-1.255 1.32,-0.836 2.223,-1.805 2.708,-2.906 v -5.053 h -5.417 c -2.047,0 -3.594,0.507 -4.64,1.52 -1.046,1.013 -1.568,2.257 -1.568,3.731 0,1.211 0.391,2.175 1.172,2.89 0.781,0.715 1.866,1.073 3.253,1.073 z"
     id="path21"
     inkscape:connector-curvature="0"
     style="fill:#ffffff" /><path
     d="m 133.148,267.092 h 0.199 l 4.326,-22.457 h 9.379 l -9.082,35.733 h -8.059 l -6.639,-20.608 h -0.197 l -6.639,20.608 h -8.025 l -9.082,-35.733 h 9.379 l 4.392,22.358 h 0.199 l 6.67,-22.358 h 6.441 l 6.738,22.457 z"
     id="path23"
     inkscape:connector-curvature="0"
     style="fill:#ffffff" /><path
     d="m 156.418,280.368 h -9.645 v -8.454 h 9.645 v 8.454 z"
     id="path25"
     inkscape:connector-curvature="0"
     style="fill:#ffffff" /><path
     stroke-miterlimit="10"
     d="m 173.51,236.081 h -9.643 v -7.233 h 9.643 v 7.233 z m 0,44.287 h -9.643 v -35.733 h 9.643 v 35.733 z"
     id="path27"
     inkscape:connector-curvature="0"
     style="fill:#ff8e14;stroke:#ff8e14;stroke-miterlimit:10" /><path
     stroke-miterlimit="10"
     d="m 177.922,262.171 c 0,-5.328 1.486,-9.693 4.457,-13.095 2.973,-3.401 7.09,-5.103 12.352,-5.103 5.285,0 9.424,1.696 12.418,5.086 2.994,3.391 4.492,7.762 4.492,13.111 v 0.693 c 0,5.373 -1.492,9.748 -4.475,13.128 -2.984,3.38 -7.107,5.069 -12.369,5.069 -5.283,0 -9.418,-1.689 -12.4,-5.069 -2.984,-3.38 -4.475,-7.755 -4.475,-13.128 v -0.692 z m 9.609,0.693 c 0,3.259 0.572,5.874 1.719,7.844 1.145,1.971 2.992,2.956 5.547,2.956 2.488,0 4.311,-0.991 5.467,-2.973 1.156,-1.982 1.732,-4.591 1.732,-7.827 v -0.693 c 0,-3.17 -0.582,-5.757 -1.75,-7.761 -1.166,-2.004 -3.004,-3.006 -5.516,-3.006 -2.488,0 -4.309,1.008 -5.465,3.022 -1.156,2.014 -1.734,4.596 -1.734,7.744 v 0.694 z"
     id="path29"
     inkscape:connector-curvature="0"
     style="fill:#ff8e14;stroke:#ff8e14;stroke-miterlimit:10" /></svg>
