<?xml version="1.0" encoding="utf-8"?>
<!-- Generator: Adobe Illustrator 15.1.0, SVG Export Plug-In . SVG Version: 6.00 Build 0)  -->
<!DOCTYPE svg PUBLIC "-//W3C//DTD SVG 1.1//EN" "http://www.w3.org/Graphics/SVG/1.1/DTD/svg11.dtd">
<svg version="1.1" id="Layer_1" xmlns="http://www.w3.org/2000/svg" xmlns:xlink="http://www.w3.org/1999/xlink" x="0px" y="0px"
	 width="1200px" height="1200px" viewBox="0 0 1200 1200" enable-background="new 0 0 1200 1200" xml:space="preserve">
<g>
	<path d="M183.611,880.954v-68.929h24.748v68.065c0,15.984,9.28,26.988,26.989,26.988c17.696,0,26.807-11.004,26.807-26.988v-68.065
		h24.93v68.76c0,28.53-16.849,47.954-51.737,47.954C200.452,928.739,183.611,909.138,183.611,880.954"/>
	<path d="M359.965,926.673v-50.191c0-11.512-6.019-15.468-15.303-15.468c-8.59,0-15.294,4.819-18.907,9.801v55.858h-21.83v-83.017
		h21.83v10.826c5.336-6.354,15.472-12.893,29.047-12.893c18.221,0,26.993,10.31,26.993,26.472v58.611H359.965z"/>
	<path d="M421.85,926.673h-21.834v-83.009h21.834V926.673z M397.784,821.657c0-7.218,6.015-12.893,13.063-12.893
		c7.222,0,13.054,5.675,13.054,12.893c0,7.226-5.833,13.07-13.054,13.07C403.798,834.728,397.784,828.883,397.784,821.657"/>
	<path d="M440.067,926.673v-83.017h21.83v11.343c5.841-7.395,16.15-13.409,26.463-13.409v21.321
		c-1.55-0.348-3.604-0.525-6.026-0.525c-7.209,0-16.833,4.126-20.437,9.462v54.825H440.067z"/>
	<path d="M536.142,858.947c-13.575,0-19.424,10.14-20.449,18.406h40.902C556.078,869.434,550.58,858.947,536.142,858.947
		 M493.176,885.08c0-24.066,17.696-43.49,42.965-43.49c24.752,0,41.597,18.56,41.597,45.727v4.812h-61.707
		c1.38,10.486,9.801,19.254,23.896,19.254c7.048,0,16.841-3.1,22.169-8.251l9.623,14.088c-8.243,7.564-21.313,11.521-34.198,11.521
		C512.253,928.739,493.176,911.713,493.176,885.08"/>
	<path d="M651.813,897.278v-26.811c-3.608-5.498-11.496-9.454-18.729-9.454c-12.385,0-20.958,8.59-20.958,22.863
		c0,14.266,8.573,22.854,20.958,22.854C640.317,906.731,648.205,902.614,651.813,897.278 M593.227,947.985l9.769-15.815
		c6.725,7.388,15.477,10.318,25.972,10.318s22.847-4.643,22.847-20.975v-8.42c-6.531,8.259-15.46,13.063-25.592,13.063
		c-20.805,0-36.612-14.604-36.612-42.279c0-27.158,15.622-42.287,36.612-42.287c9.971,0,18.899,4.303,25.592,12.723v-10.656h22.008
		v77.341c0,31.631-24.39,39.364-44.854,39.364C614.693,960.361,603.689,957.101,593.227,947.985"/>
	<path d="M711.829,926.673h-21.846v-83.009h21.846V926.673z M687.747,821.657c0-7.218,6.007-12.893,13.078-12.893
		c7.201,0,13.047,5.675,13.047,12.893c0,7.226-5.846,13.07-13.047,13.07C693.754,834.728,687.747,828.883,687.747,821.657"/>
	<path d="M722.801,915.847l9.462-15.299c6.03,5.676,18.382,11.351,28.724,11.351c9.43,0,13.895-3.786,13.895-8.953
		c0-13.74-49.319-2.567-49.319-35.23c0-13.919,12.198-26.117,34.036-26.117c14.096,0,25.253,4.804,33.512,11.335l-8.768,14.959
		c-4.973-5.328-14.426-9.623-24.582-9.623c-7.888,0-13.07,3.609-13.07,8.243c0,12.376,49.157,2.074,49.157,35.586
		c0,15.121-12.885,26.634-35.901,26.634C745.494,928.731,731.568,923.92,722.801,915.847"/>
	<path d="M816.312,906.046v-43.313h-13.74v-19.077h13.74v-22.686h22v22.686h16.849v19.077h-16.849v37.468
		c0,5.158,2.744,9.114,7.58,9.114c3.262,0,6.346-1.203,7.549-2.406l4.65,16.494c-3.271,2.931-9.115,5.336-18.237,5.336
		C824.555,928.739,816.312,920.828,816.312,906.046"/>
	<path d="M870.128,926.673v-83.017h21.813v11.343c5.853-7.395,16.162-13.409,26.464-13.409v21.321
		c-1.534-0.348-3.609-0.525-6.007-0.525c-7.226,0-16.841,4.126-20.457,9.462v54.825H870.128z"/>
	<path d="M938.338,939.558c1.913,0.863,4.836,1.38,6.886,1.38c5.684,0,9.454-1.55,11.537-6.014l3.075-7.049l-33.688-84.211h23.38
		l21.66,57.748l21.66-57.748h23.541l-39.01,96.588c-6.191,15.638-17.195,19.763-31.461,20.109c-2.583,0-8.081-0.517-10.817-1.202
		L938.338,939.558z"/>
	<path fill="#008752" d="M692.825,441.204h111.409v-15.908H692.825V441.204z M692.825,401.419h111.409v-13.26H692.825V401.419z
		 M692.825,480.993h111.409v-18.564H692.825V480.993z M523.895,573.83H399.616c2.81,9.119,6.225,17.979,10.253,26.528H559.19
		C545.426,594.352,533.348,585.213,523.895,573.83 M680.005,560.569h118.659c1.873-7.798,3.277-15.779,4.166-23.876H689.838
		C687.634,545.166,684.316,553.174,680.005,560.569 M635.538,600.358h149.321c3.979-8.549,7.395-17.41,10.196-26.528H670.785
		C661.332,585.213,649.254,594.352,635.538,600.358 M804.234,239.638H692.825v2.648h111.409V239.638z M597.34,719.701
		c42.315,0,81.64-12.69,114.4-34.48H482.98C515.749,707.011,555.069,719.701,597.34,719.701 M692.825,361.631h111.409v-10.596
		H692.825V361.631z M692.825,321.843h111.409v-7.948H692.825V321.843z M692.825,282.066h111.409v-5.3H692.825V282.066z
		 M501.851,388.159H390.486v13.26h111.365V388.159z M434.254,640.141h326.167c7.16-9.147,13.538-18.899,19.101-29.185H415.157
		C420.728,621.241,427.138,630.993,434.254,640.141 M501.851,512.825v-13.264H390.486v13.264c0,2.665,0.048,5.316,0.141,7.96
		h111.599C501.988,518.149,501.851,515.501,501.851,512.825 M692.825,512.825c0,2.676-0.138,5.325-0.371,7.96h111.595
		c0.097-2.644,0.186-5.296,0.186-7.96v-13.264H692.825V512.825z M475.354,679.909h243.967c12.69-9.276,24.3-19.949,34.553-31.816
		H440.806C451.059,659.96,462.676,670.633,475.354,679.909 M501.851,276.766H390.486v5.3h111.365V276.766z M501.851,239.638H390.486
		v2.648h111.365V239.638z M501.851,425.296H390.486v15.908h111.365V425.296z M501.851,462.428H390.486v18.564h111.365V462.428z
		 M501.851,351.035H390.486v10.596h111.365V351.035z M501.851,313.895H390.486v7.948h111.365V313.895z M504.89,536.693H391.85
		c0.928,8.097,2.341,16.078,4.158,23.876h118.667C510.417,553.174,507.042,545.166,504.89,536.693"/>
</g>
</svg>
